<?xml version="1.0" encoding="UTF-8"?>
<svg xmlns="http://www.w3.org/2000/svg" xmlns:xlink="http://www.w3.org/1999/xlink" version="1.2" >
<font id="American Typewriter Condensed">
<font-face	font-family="American Typewriter" units-per-em="1000" ascent="686" descent="-178" font-style="normal" font-weight="400" font-stretch="condensed" cap-height="671" x-height="495" underline-position="-166" underline-thickness="20" />
<missing-glyph	horiz-adv-x="500" d="M63 0 L63 760 L438 760 L438 0 L63 0 Z M125 63 L375 63 L375 698 L125 698 L125 63 Z " />
<glyph glyph-name="space" unicode="&#x20;" horiz-adv-x="250" d="" />
<glyph glyph-name="controlNULL" d="" />
<glyph glyph-name="controlBS" unicode="&#x8;" d="" />
<glyph glyph-name="controlHT" unicode="&#x9;" horiz-adv-x="250" d="" />
<glyph glyph-name="controlCR" unicode="&#xd;" horiz-adv-x="250" d="" />
<glyph glyph-name="controlGS" unicode="&#x1d;" d="" />
<glyph glyph-name="exclam" unicode="&#x21;" horiz-adv-x="236" d="M118 -11 Q96 -11 81.5 6.5 Q67 24 67 52 Q67 79 81.5 96.5 Q96 114 118 114 Q140 114 154.5 96.5 Q169 79 169 52 Q169 24 154.5 6.5 Q140 -11 118 -11 Z M118 152 Q85 152 84 202 L79 636 Q78 682 116 682 Q158 682 157 636 L152 202 Q151 152 118 152 Z " />
<glyph glyph-name="quotedbl" unicode="&#x22;" horiz-adv-x="320" d="M128 667 L116 398 L66 398 L54 667 L128 667 Z M265 667 L253 398 L204 398 L192 667 L265 667 Z " />
<glyph glyph-name="numbersign" unicode="&#x23;" horiz-adv-x="600" d="M434 271 L544 271 L535 210 L424 210 L392 0 L324 0 L356 210 L216 210 L184 0 L116 0 L148 210 L35 210 L45 271 L157 271 L178 409 L66 409 L75 470 L188 470 L218 667 L286 667 L256 470 L396 470 L426 667 L494 667 L464 470 L574 470 L565 409 L455 409 L434 271 Z M366 271 L386 409 L246 409 L225 271 L366 271 Z " />
<glyph glyph-name="dollar" unicode="&#x24;" horiz-adv-x="500" d="M359 545 Q349 572 334.5 584.5 Q320 597 284 607 L280 381 Q287 378 298 374 Q375 348 396 333 Q417 318 435.5 278 Q454 238 454 191 Q454 110 406 54 Q358 -2 279 -12 L280 -91 Q280 -126 251 -126 Q219 -126 219 -93 L219 -90 L222 -13 Q156 -3 117 26 Q46 80 46 175 Q46 266 109 266 Q131 266 144.5 251 Q158 236 158 212 Q158 168 117 160 Q117 77 225 56 L233 312 Q166 330 138 348 Q70 390 70 486 Q70 565 114 616 Q158 667 234 676 L232 760 Q231 792 261 792 Q292 792 292 762 L292 760 L287 678 Q355 666 394 624.5 Q433 583 433 524 Q433 456 383 456 Q338 456 338 505 Q338 531 359 545 Z M233 396 L235 608 Q139 586 139 497 Q139 455 160.5 432 Q182 409 233 396 Z M281 298 L280 56 Q380 83 380 184 Q380 229 363 251.5 Q346 274 299 291 Q291 293 281 298 Z " />
<glyph glyph-name="percent" unicode="&#x25;" horiz-adv-x="770" d="M168 251 Q109 251 71 311.5 Q33 372 33 466 Q33 559 71 619.5 Q109 680 168 680 Q226 680 264 619.5 Q302 559 302 466 Q302 372 264 311.5 Q226 251 168 251 Z M563 663 Q563 661 560 654 L268 13 Q259 -6 232 -6 Q210 -6 210 7 Q210 10 214 19 L504 656 Q514 677 539 677 Q563 677 563 663 Z M602 -13 Q543 -13 505.5 47 Q468 107 468 201 Q468 295 506 355.5 Q544 416 602 416 Q661 416 699 355.5 Q737 295 737 201 Q737 107 699 47 Q661 -13 602 -13 Z M169 620 Q138 620 117.5 576.5 Q97 533 97 466 Q97 400 117 355.5 Q137 311 167 311 Q198 311 218.5 354.5 Q239 398 239 466 Q239 531 218.5 575.5 Q198 620 169 620 Z M604 356 Q573 356 552.5 312 Q532 268 532 201 Q532 135 552 90.5 Q572 46 602 46 Q633 46 653.5 90 Q674 134 674 201 Q674 267 653.5 311.5 Q633 356 604 356 Z " />
<glyph glyph-name="ampersand" unicode="&#x26;" horiz-adv-x="672" d="M326 440 Q303 415 262 384 L271 366 Q304 300 348 223 L352 216 L386 329 Q441 513 549 513 Q597 513 628 479 Q659 445 659 393 Q659 336 630 299 Q601 262 557 262 Q526 262 505.5 281 Q485 300 485 329 Q485 379 525 379 Q539 379 549 369.5 Q559 360 559 346 Q559 339 555 330 Q563 328 564 328 Q577 328 586 344 Q595 360 595 383 Q595 412 580.5 429.5 Q566 447 543 447 Q499 447 475 391 Q453 340 424 238 Q406 175 394 149 Q429 99 452 83 Q475 67 511 67 Q518 67 531.5 69 Q545 71 552 71 Q585 71 585 35 Q585 0 552 0 Q514 0 514 0 L471 1 Q412 2 353 78 Q293 -6 202 -6 Q127 -6 80 49 Q33 104 33 192 Q33 306 109 371 Q128 388 156 406 L165 412 L161 424 Q127 526 127 569 Q127 627 162 662.5 Q197 698 253 698 Q309 698 343 663.5 Q377 629 377 571 Q377 497 326 440 Z M200 570 Q200 531 234 449 Q306 497 306 568 Q306 596 290.5 614 Q275 632 252 632 Q229 632 214.5 615 Q200 598 200 570 Z M202 338 L197 347 Q108 303 108 193 Q108 137 135.5 101.5 Q163 66 206 66 Q271 66 310 140 L304 151 L266 215 Q250 242 231 280 Q221 301 202 338 Z " />
<glyph glyph-name="quotesingle" unicode="&#x27;" horiz-adv-x="182" d="M128 667 L116 398 L66 398 L54 667 L128 667 Z " />
<glyph glyph-name="parenleft" unicode="&#x28;" horiz-adv-x="335" d="M40 173 Q33 209 33 259 Q33 409 102 521 Q135 574 177 613 Q207 641 243 662 Q279 683 296 683 Q315 683 315 666 Q315 655 296 644 Q209 592 154 484 Q105 387 105 274 Q105 139 170 33 Q224 -54 305 -108 Q314 -114 314 -121 Q314 -137 295 -137 Q272 -137 223 -104 Q183 -77 159 -53 Q119 -12 85 52.5 Q51 117 40 173 Z " />
<glyph glyph-name="parenright" unicode="&#x29;" horiz-adv-x="335" d="M291 381 Q302 327 302 259 Q302 149 248 48 Q214 -15 177 -53 Q153 -78 113 -104 Q65 -137 40 -137 Q22 -137 22 -121 Q22 -112 36 -104 Q110 -59 166 33 Q230 139 230 274 Q230 387 181 484 Q154 538 117.5 578.5 Q81 619 39 644 Q20 655 20 666 Q20 683 39 683 Q56 683 92 661.5 Q128 640 158 613 Q205 571 241.5 506.5 Q278 442 291 381 Z " />
<glyph glyph-name="asterisk" unicode="&#x2a;" horiz-adv-x="500" d="M292 497 L281 471 L328 429 Q362 399 362 382 Q362 368 352.5 358 Q343 348 329 348 Q305 348 289 385 L257 459 L229 461 L203 404 Q190 376 187 371 Q176 355 158 355 Q125 355 125 387 Q125 406 149 427 L210 480 L203 508 L141 514 Q104 518 91.5 525.5 Q79 533 79 553 Q79 585 112 585 Q127 585 147 573 L215 532 L240 546 L227 608 Q221 637 221 647 Q221 661 231 670.5 Q241 680 254 680 Q287 680 287 642 Q287 633 284 620 L266 542 L288 523 L342 555 Q374 574 388 574 Q402 574 411.5 564.5 Q421 555 421 541 Q421 508 372 504 L292 497 Z " />
<glyph glyph-name="plus" unicode="&#x2b;" horiz-adv-x="500" d="M33 301 L33 363 L217 363 L217 536 L283 536 L283 363 L467 363 L467 301 L283 301 L283 129 L217 129 L217 301 L33 301 Z " />
<glyph glyph-name="comma" unicode="&#x2c;" horiz-adv-x="215" d="M114 -26 Q114 -15 111 -6 Q104 -8 95 -8 Q51 -8 51 52 Q51 116 103 116 Q165 116 165 18 Q165 -54 132 -115 L119 -139 Q105 -164 92 -164 Q72 -164 72 -145 Q72 -139 77 -130 L88 -110 Q114 -63 114 -26 Z " />
<glyph glyph-name="hyphentwo" unicode="&#x2010;" horiz-adv-x="201" d="M0 289 Q0 325 35 324 L63 323 Q91 322 105 322 Q115 322 135 323 Q155 324 165 324 Q201 324 201 289 Q201 254 165 254 Q162 254 153 255 Q144 256 138 256 Q124 257 101 257 Q77 257 63 256 Q57 256 48 255 Q39 254 36 254 Q0 254 0 289 Z " />
<glyph glyph-name="period" unicode="&#x2e;" horiz-adv-x="215" d="M108 -11 Q85 -11 70.5 6.5 Q56 24 56 52 Q56 79 70.5 96.5 Q85 114 108 114 Q130 114 144.5 96.5 Q159 79 159 52 Q159 24 144.5 6.5 Q130 -11 108 -11 Z " />
<glyph glyph-name="slash" unicode="&#x2f;" horiz-adv-x="428" d="M394 660 Q394 656 390 647 L50 -93 Q42 -111 13 -111 Q-7 -111 -7 -98 Q-7 -94 -3 -85 L335 654 Q344 673 369 673 Q394 673 394 660 Z " />
<glyph glyph-name="zero" unicode="0" horiz-adv-x="500" d="M98 79.5 Q35 172 35 334 Q35 496 98.5 588 Q162 680 248 680 Q341 680 401 589 Q465 493 465 333 Q465 171 401.5 79 Q338 -13 252 -13 Q161 -13 98 79.5 Z M250 609 Q191 609 152 531 Q113 453 113 334 Q113 215 152 136.5 Q191 58 250 58 Q309 58 348 136 Q387 214 387 333 Q387 452 348 530.5 Q309 609 250 609 Z " />
<glyph glyph-name="one" unicode="1" horiz-adv-x="500" d="M229 365 L230 520 L228 555 Q225 603 201 603 Q193 603 177.5 599.5 Q162 596 154 596 Q122 596 122 631 Q122 647 133 657.5 Q144 668 161 668 Q175 668 197 664 Q219 660 237 660 Q253 660 263 663 Q283 671 292 671 Q307 671 307 647 Q307 637 307 637 L304 599 Q303 549 300 448 L298 364 L301 127 Q303 84 308.5 73.5 Q314 63 336 63 Q345 63 362 65.5 Q379 68 388 68 Q423 68 423 33 Q423 -5 387 -5 Q368 -5 329 1 Q290 7 270 7 Q238 7 200 1 Q162 -5 148 -5 Q112 -5 112 31 Q112 66 143 66 Q151 66 166 63.5 Q181 61 189 61 Q223 61 224 115 Q224 126 226 163 Q229 236 229 365 Z " />
<glyph glyph-name="two" unicode="2" horiz-adv-x="500" d="M138 195 Q108 164 99 116 Q136 169 184 169 Q222 169 263 131 L300 97 Q334 66 356 66 Q373 66 386 84 Q399 102 399 126 Q399 127 399 131 Q398 135 398 138 Q387 130 375 130 Q358 130 347 143 Q336 156 336 176 Q336 198 351.5 214 Q367 230 387 230 Q416 230 433.5 202.5 Q451 175 451 128 Q451 68 423 27.5 Q395 -13 354 -13 Q322 -13 267 30 L226 62 Q189 91 162 91 Q144 91 130 82.5 Q116 74 116 63 Q116 59 125 54 Q143 44 143 24 Q143 -13 108 -13 Q79 -13 61.5 15.5 Q44 44 44 91 Q44 186 94 248 Q130 293 242 344 Q309 374 335 405.5 Q361 437 361 487 Q361 543 328.5 577.5 Q296 612 244 612 Q196 612 163.5 584.5 Q131 557 129 514 Q171 509 171 466 Q171 440 154.5 422 Q138 404 115 404 Q87 404 70.5 428.5 Q54 453 54 493 Q54 572 111.5 626 Q169 680 254 680 Q333 680 383.5 625.5 Q434 571 434 486 Q434 434 412 387.5 Q390 341 353 317 Q324 298 268 275 Q182 239 138 195 Z " />
<glyph glyph-name="three" unicode="3" horiz-adv-x="500" d="M199 388 L350 593 L199 593 Q138 593 138 553 Q138 543 141 519 Q143 503 143 488 Q143 439 110 439 Q78 439 78 482 Q78 495 80 528 Q83 558 82 575 L80 629 Q80 672 107 672 Q121 672 146 670 Q175 668 185 668 L251 666 L342 668 L409 673 Q410 673 414 673 Q456 673 456 637 Q456 618 433 588 L297 414 L308 414 Q376 414 418 362 Q460 310 460 225 Q460 119 401.5 53 Q343 -13 250 -13 Q165 -13 107.5 41 Q50 95 50 175 Q50 225 71.5 257.5 Q93 290 126 290 Q178 290 178 232 Q178 181 139 181 Q136 181 124 183 L124 172 Q124 126 161 92.5 Q198 59 249 59 Q309 59 348 106.5 Q387 154 387 227 Q387 283 358.5 315.5 Q330 348 280 348 Q264 348 246 343 Q218 335 213 335 Q186 335 186 362 Q186 370 199 388 Z " />
<glyph glyph-name="four" unicode="4" horiz-adv-x="500" d="M296 172 L296 195 L89 195 Q36 195 36 237 Q36 259 60 299 L270 651 Q286 677 315 677 Q345 677 355.5 661 Q366 645 366 599 L366 265 L433 265 Q471 265 471 232 Q471 195 425 195 L366 195 L366 172 L367 117 Q368 61 400 61 Q406 61 418 63 Q430 65 436 65 Q469 65 469 31 Q469 16 458.5 5.5 Q448 -5 432 -5 Q417 -5 385.5 1 Q354 7 336 7 Q316 7 279.5 1 Q243 -5 226 -5 Q191 -5 191 31 Q191 65 223 65 Q228 65 241 62.5 Q254 60 261 60 Q289 60 295 105 Q296 114 296 172 Z M111 265 L296 265 L296 576 L111 265 Z " />
<glyph glyph-name="five" unicode="5" horiz-adv-x="500" d="M155 557 L141 400 Q200 453 269 453 Q351 453 401.5 391.5 Q452 330 452 232 Q452 125 393.5 56 Q335 -13 244 -13 Q164 -13 108 36 Q52 85 52 156 Q52 196 69 221.5 Q86 247 113 247 Q135 247 149.5 231 Q164 215 164 191 Q164 145 121 144 Q148 56 241 56 Q302 56 340.5 105 Q379 154 379 231 Q379 299 345 341 Q311 383 255 383 Q187 383 148 321 Q136 302 130 298 Q124 294 108 294 Q73 294 73 332 Q73 351 77 382 Q81 420 82 433 Q84 456 87 502 Q92 572 92 619 L92 643 Q92 660 95 666.5 Q98 673 112 673 Q120 673 124 672 Q202 666 232 666 L240 667 L319 668 Q330 668 352.5 670 Q375 672 387 672 Q400 672 404 667.5 Q408 663 408 648 Q408 635 407 628 L407 607 Q407 591 412 561 Q417 531 417 516 Q417 487 388 487 Q359 487 357 518 L355 550 Q353 577 338 587 Q323 597 285 597 L189 597 Q169 597 163 590.5 Q157 584 155 557 Z " />
<glyph glyph-name="six" unicode="6" horiz-adv-x="500" d="M274 614 Q208 614 167.5 545.5 Q127 477 122 358 Q161 407 195 427 Q229 447 276 447 Q357 447 408.5 384.5 Q460 322 460 224 Q460 121 404 54 Q348 -13 262 -13 Q209 -13 163 16.5 Q117 46 94 96 Q50 192 50 329 Q50 484 113 582 Q176 680 276 680 Q340 680 384 638.5 Q428 597 428 536 Q428 469 378 469 Q358 469 345 483.5 Q332 498 332 520 Q332 546 355 564 Q331 614 274 614 Z M264 375 Q210 375 174.5 332.5 Q139 290 139 226 Q139 155 175 107 Q211 59 264 59 Q317 59 351.5 105.5 Q386 152 386 223 Q386 291 352.5 333 Q319 375 264 375 Z " />
<glyph glyph-name="seven" unicode="7" horiz-adv-x="500" d="M132 639 Q132 638 132 630 Q131 622 131 613 Q151 647 167 658 Q183 669 213 669 Q235 669 283 645.5 Q331 622 358 622 Q367 622 382 626 Q373 635 373 648 Q373 680 407 680 Q459 680 459 587 Q459 511 417 449 Q398 420 373 391 Q317 324 301 276 Q283 221 283 143 Q283 138 283 128 Q284 117 284 112 Q285 81 285 61 Q285 -13 242 -13 Q208 -13 200 30 Q198 42 198 99 Q198 219 243 315 Q270 372 336 449 Q371 489 384 512.5 Q397 536 405 575 Q372 548 344 548 Q331 548 315 554 Q307 557 276 570 Q233 588 205 588 Q174 588 153 564.5 Q132 541 132 507 Q132 493 134 475 Q137 448 137 436 Q137 385 102 385 Q67 385 67 423 Q67 443 73 476 Q80 515 80 550 Q80 566 76 598 Q72 630 72 646 Q72 680 103 680 Q132 680 132 639 Z " />
<glyph glyph-name="eight" unicode="8" horiz-adv-x="500" d="M97 322 Q123 352 175 366 Q84 404 84 507 Q84 582 134 631 Q184 680 260 680 Q333 680 379.5 633 Q426 586 426 512 Q426 413 337 366 Q452 329 452 197 Q452 104 395.5 45.5 Q339 -13 249 -13 Q163 -13 105.5 43.5 Q48 100 48 185 Q48 265 97 322 Z M256 614 Q214 614 187 584.5 Q160 555 160 510 Q160 466 187 436.5 Q214 407 255 407 Q295 407 322.5 437 Q350 467 350 510 Q350 554 323 584 Q296 614 256 614 Z M250 328 Q195 328 158.5 290 Q122 252 122 193 Q122 131 157.5 92 Q193 53 248 53 Q304 53 340 92 Q376 131 376 192 Q376 254 342 291 Q308 328 250 328 Z " />
<glyph glyph-name="nine" unicode="9" horiz-adv-x="500" d="M226 53 Q292 53 332.5 121.5 Q373 190 378 309 Q340 260 305.5 240 Q271 220 224 220 Q143 220 91.5 282 Q40 344 40 442 Q40 545 96.5 612.5 Q153 680 238 680 Q291 680 337 650.5 Q383 621 406 571 Q450 475 450 337 Q450 182 387 84.5 Q324 -13 224 -13 Q159 -13 115.5 28 Q72 69 72 130 Q72 198 122 198 Q142 198 155 183.5 Q168 169 168 146 Q168 120 145 103 Q169 53 226 53 Z M236 291 Q290 291 325.5 333.5 Q361 376 361 440 Q361 511 325 559 Q289 607 236 607 Q183 607 148.5 561 Q114 515 114 444 Q114 376 147.5 333.5 Q181 291 236 291 Z " />
<glyph glyph-name="colon" unicode="&#x3a;" horiz-adv-x="215" d="M108 -11 Q85 -11 70.5 6.5 Q56 24 56 52 Q56 79 70.5 96.5 Q85 114 108 114 Q130 114 144.5 96.5 Q159 79 159 52 Q159 24 144.5 6.5 Q130 -11 108 -11 Z M108 309 Q85 309 70.5 326.5 Q56 344 56 371 Q56 399 70.5 416.5 Q85 434 108 434 Q130 434 144.5 416.5 Q159 399 159 371 Q159 344 144.5 326.5 Q130 309 108 309 Z " />
<glyph glyph-name="semicolon" unicode="&#x3b;" horiz-adv-x="215" d="M114 -26 Q114 -15 111 -6 Q104 -8 95 -8 Q51 -8 51 52 Q51 116 103 116 Q165 116 165 18 Q165 -54 132 -115 L119 -139 Q105 -164 92 -164 Q72 -164 72 -145 Q72 -139 77 -130 L88 -110 Q114 -63 114 -26 Z M107 309 Q85 309 70.5 326.5 Q56 344 56 371 Q56 399 70.5 416.5 Q85 434 107 434 Q129 434 143.5 416.5 Q158 399 158 371 Q158 344 143.5 326.5 Q129 309 107 309 Z " />
<glyph glyph-name="less" unicode="&#x3c;" horiz-adv-x="500" d="M33 359 L467 560 L467 493 L105 330 L466 166 L467 100 L33 301 L33 359 Z " />
<glyph glyph-name="equal" unicode="&#x3d;" horiz-adv-x="500" d="M33 388 L33 447 L467 447 L467 388 L33 388 Z M33 237 L33 296 L467 296 L467 237 L33 237 Z " />
<glyph glyph-name="greater" unicode="&#x3e;" horiz-adv-x="500" d="M467 300 L33 100 L33 166 L395 330 L34 494 L33 560 L467 359 L467 300 Z " />
<glyph glyph-name="question" unicode="&#x3f;" horiz-adv-x="472" d="M223 -11 Q201 -11 186.5 6.5 Q172 24 172 52 Q172 79 186.5 96.5 Q201 114 223 114 Q246 114 260.5 96.5 Q275 79 275 52 Q275 24 260.5 6.5 Q246 -11 223 -11 Z M335 314 Q288 284 271 262 Q254 240 253 203 L252 178 Q251 146 218 146 Q184 146 184 195 Q184 254 211 297 Q232 331 292 371 Q335 400 351 424 Q367 448 367 484 Q367 538 334.5 572.5 Q302 607 251 607 Q200 607 162.5 573 Q125 539 125 493 Q125 476 133 476 Q135 476 142 481 Q154 492 165 492 Q182 492 193.5 478.5 Q205 465 205 444 Q205 416 187 396.5 Q169 377 143 377 Q106 377 83 407.5 Q60 438 60 485 Q60 567 114.5 620 Q169 673 253 673 Q337 673 388 621.5 Q439 570 439 485 Q439 379 335 314 Z " />
<glyph glyph-name="at" unicode="&#x40;" horiz-adv-x="694" d="M397 201 Q397 204 399 214 Q360 156 281 156 Q234 156 204.5 188.5 Q175 221 175 273 Q175 364 241 433.5 Q307 503 394 503 Q418 503 438 497 L458 491 Q461 490 468 490 Q476 490 485 495 Q501 502 507 502 Q522 502 522 489 Q522 482 521 478 L516 459 L458 246 Q455 234 455 227 Q455 209 474 209 Q511 209 544 257 Q589 322 589 412 Q589 495 534.5 550 Q480 605 397 605 Q280 605 193.5 511 Q107 417 107 292 Q107 194 170 128.5 Q233 63 328 63 Q383 63 420 76.5 Q457 90 511 129 Q532 144 545 144 Q564 144 564 126 Q564 109 537 88 Q435 10 319 10 Q198 10 118 90.5 Q38 171 38 292 Q38 438 146.5 546.5 Q255 655 403 655 Q515 655 585.5 588.5 Q656 522 656 416 Q656 299 568 209 Q515 155 458 155 Q432 155 414.5 168 Q397 181 397 201 Z M419 337 L446 437 Q415 452 387 452 Q329 452 286 401 Q243 350 243 282 Q243 213 303 213 Q386 213 419 337 Z " />
<glyph glyph-name="A" unicode="A" horiz-adv-x="564" d="M123 202 L239 625 Q248 655 254 663 Q265 680 288 680 Q316 680 326 666.5 Q336 653 351 592 L466 135 Q478 92 486 78.5 Q494 65 508 65 Q512 65 526 67 Q529 67 533 68 Q537 68 538 68 Q570 68 570 34 Q570 -5 536 -5 Q532 -5 490 3 Q469 7 446 7 Q428 7 396.5 1 Q365 -5 354 -5 Q340 -5 329 6 Q318 17 318 33 Q318 68 351 68 Q357 68 360 67 Q363 67 367 67 Q371 66 372 66 Q395 66 395 98 Q395 115 389 140 L371 214 Q367 230 363 233.5 Q359 237 346 237 L225 237 Q204 237 195 202 L177 131 Q170 103 170 86 Q170 67 188 67 Q195 67 198 67.5 Q201 68 205 69 Q210 69 211 69 Q243 69 243 33 Q243 -5 210 -5 Q197 -5 169 1 Q141 7 125 7 Q103 7 73 1 Q43 -5 31 -5 Q-5 -5 -5 32 Q-5 68 26 68 Q32 68 42 66 Q52 64 57 64 Q73 64 87.5 94 Q102 124 123 202 Z M346 327 L291 574 L227 327 Q225 319 225 316 Q225 303 244 303 L331 303 Q348 303 348 315 Q348 318 346 327 Z " />
<glyph glyph-name="B" unicode="B" horiz-adv-x="540" d="M467 509 Q467 408 377 365 Q494 318 494 197 Q494 112 439 53.5 Q384 -5 305 -5 Q278 -5 224 2 Q185 7 156 7 Q140 7 109 1 Q78 -5 63 -5 Q47 -5 36.5 6.5 Q26 18 26 35 Q26 68 58 68 Q68 68 73 66 Q89 64 91 64 Q110 64 115 93.5 Q120 123 120 238 L120 428 Q120 544 115 573.5 Q110 603 91 603 Q86 603 75 600.5 Q64 598 58 598 Q26 598 26 632 Q26 671 64 671 Q81 671 115.5 665.5 Q150 660 167 660 Q203 660 240 664 Q277 668 305 668 Q378 668 422.5 624 Q467 580 467 509 Z M191 533 L191 418 Q191 402 194 397.5 Q197 393 210 393 Q210 393 243 393 Q322 393 356 417.5 Q390 442 390 500 Q390 601 274 601 Q224 601 207.5 587.5 Q191 574 191 533 Z M263 326 Q220 326 216 325 Q191 320 191 295 L192 144 Q193 93 209.5 76.5 Q226 60 278 60 Q415 60 415 195 Q415 281 359 311 Q331 326 263 326 Z " />
<glyph glyph-name="C" unicode="C" horiz-adv-x="514" d="M265 679 Q346 679 391 614 L391 624 Q391 657 397.5 668.5 Q404 680 421 680 Q451 680 451 642 Q451 623 447.5 584.5 Q444 546 444 526 Q444 503 447 468 Q450 433 450 416 Q450 373 416 373 Q384 373 384 412 Q384 420 385 435 Q386 450 386 458 Q386 527 354 568 Q322 609 269 609 Q198 609 156.5 535.5 Q115 462 115 337 Q115 213 158 136.5 Q201 60 272 60 Q327 60 361.5 100 Q396 140 402 210 Q405 245 413 256.5 Q421 268 442 268 Q474 268 474 230 Q474 127 414.5 57.5 Q355 -12 267 -12 Q163 -12 101.5 82 Q40 176 40 337 Q40 490 102 584.5 Q164 679 265 679 Z " />
<glyph glyph-name="D" unicode="D" horiz-adv-x="570" d="M91 64 Q110 64 115 93.5 Q120 123 120 238 L120 428 Q120 544 115 573.5 Q110 603 91 603 Q86 603 75 600.5 Q64 598 58 598 Q26 598 26 632 Q26 671 64 671 Q82 671 121 664 Q143 660 167 660 Q184 660 241 665 Q264 667 290 667 Q530 667 530 332 Q530 -3 282 -3 Q261 -3 225 1 Q171 7 153 7 Q137 7 110 2 Q72 -5 63 -5 Q47 -5 36.5 6.5 Q26 18 26 35 Q26 68 58 68 Q68 68 73 66 Q89 64 91 64 Z M192 117 Q193 79 221 69 Q236 63 283 63 Q365 63 405 124 Q458 205 458 338 Q458 445 425.5 511.5 Q393 578 335 592 Q301 600 264 600 Q213 600 200 580 Q191 567 191 515 L191 509 L192 117 Z " />
<glyph glyph-name="E" unicode="E" horiz-adv-x="539" d="M191 497 L191 435 L192 414 Q193 386 211 386 L250 386 Q291 386 291 433 Q291 448 290 458 Q287 487 287 491 Q287 529 317 529 Q346 529 346 482 Q346 461 346 461 L342 407 Q340 380 340 352 Q340 303 345 254 Q347 234 347 228 Q347 188 317 188 Q288 188 288 229 Q288 238 289.5 257 Q291 276 291 285 Q291 327 253 327 L211 327 Q197 327 194 321 Q191 315 191 287 L191 217 Q191 206 192 166 Q192 166 192 118 Q192 84 209 75 Q221 69 258 69 L312 69 Q378 69 399 87 Q420 105 420 162 Q420 175 418 200.5 Q416 226 416 239 Q416 284 449 284 Q482 284 482 244 Q482 237 480 211 Q474 177 474 133 Q474 119 475 90 Q476 61 476 47 Q476 20 465 9.5 Q454 -1 425 -1 Q408 -1 382 2 Q339 7 256 7 Q249 7 175 4 Q134 2 117 0 Q81 -5 65 -5 Q26 -5 26 35 Q26 68 58 68 Q68 68 73 66 Q89 64 91 64 Q110 64 115 93.5 Q120 123 120 238 L120 428 Q120 544 115 573.5 Q110 603 91 603 Q86 603 75 600.5 Q64 598 58 598 Q26 598 26 632 Q26 671 64 671 Q73 671 130 663 Q151 660 182 660 Q261 660 350 667 Q375 669 415 669 Q459 669 464 646 Q466 636 466 618 Q466 604 465 581 Q462 517 465 477 L468 429 Q468 388 437 388 Q403 388 403 433 Q403 446 404 470.5 Q405 495 405 508 Q405 563 389 582 Q373 601 327 601 L250 601 Q210 601 200.5 584 Q191 567 191 497 Z " />
<glyph glyph-name="F" unicode="F" horiz-adv-x="502" d="M193 529 L192 496 L192 414 Q192 390 196 384 Q200 378 217 378 L240 378 Q291 378 291 423 Q291 429 288 454 L288 471 Q288 510 318 510 Q348 510 348 476 Q348 448 343.5 392 Q339 336 339 308 Q339 290 345 248 Q348 227 348 214 Q348 173 318 173 Q286 173 286 220 Q286 228 287 245 Q288 262 288 271 Q288 312 250 312 L216 312 Q198 312 195 304.5 Q192 297 192 283 L192 228 L194 109 Q195 64 226 64 Q233 64 246 66.5 Q259 69 266 69 Q297 69 297 37 Q297 -2 262 -2 Q246 -2 214 2.5 Q182 7 166 7 Q147 7 113.5 1 Q80 -5 64 -5 Q48 -5 37 6.5 Q26 18 26 35 Q26 68 58 68 Q68 68 73 66 Q89 64 91 64 Q110 64 115 93.5 Q120 123 120 238 L120 428 Q120 544 115 573.5 Q110 603 91 603 Q86 603 75 600.5 Q64 598 58 598 Q26 598 26 632 Q26 649 36.5 660 Q47 671 63 671 Q76 671 121 663 Q138 660 172 660 Q186 660 261 661 Q285 661 339 664 Q389 667 416 667 Q445 667 456 659.5 Q467 652 467 623 Q467 607 466 579 L464 524 L465 479 L468 431 Q468 431 468 424 Q468 386 438 386 Q401 386 401 429 Q401 435 401 434 L404 474 Q405 478 405 491 Q405 556 391 576 Q377 596 331 596 L258 596 Q193 596 193 557 L193 529 Z " />
<glyph glyph-name="G" unicode="G" horiz-adv-x="546" d="M263 680 Q332 680 391 624 Q389 635 389 646 Q389 684 419 684 Q449 684 449 648 Q449 639 446 598 Q442 554 442 526 Q442 512 444.5 484.5 Q447 457 447 443 Q447 403 413 403 Q383 403 383 441 L383 468 Q383 610 268 610 Q194 610 158 542 Q114 459 114 338 Q114 214 161 127 Q198 59 265 59 Q318 59 350.5 101 Q383 143 383 213 Q383 279 353 279 Q345 279 329 276 Q313 273 305 273 Q292 273 283 283.5 Q274 294 274 309 Q274 345 309 345 Q325 345 356 340 Q387 335 403 335 Q421 335 455 341.5 Q489 348 506 348 Q539 348 539 311 Q539 277 509 277 Q504 277 501 278 Q481 280 482 280 Q466 280 459.5 259.5 Q453 239 453 186 Q453 170 454 141 L456 82 L459 34 Q459 34 459 29 Q459 -11 427 -11 Q395 -11 395 24 Q395 30 398 66 Q342 -13 260 -13 Q160 -13 100 81 Q40 175 40 330 Q40 490 100.5 585 Q161 680 263 680 Z " />
<glyph glyph-name="H" unicode="H" horiz-adv-x="610" d="M416 238 L416 289 Q416 307 412.5 311.5 Q409 316 396 316 Q391 317 373 317 L215 317 Q204 317 201 312 Q195 306 195 270 L195 238 Q195 139 195 139 Q200 64 224 64 Q226 64 242 66 Q248 68 257 68 Q271 68 280.5 58.5 Q290 49 290 35 Q290 18 279 6.5 Q268 -5 252 -5 Q241 -5 203 2 Q176 7 158 7 Q142 7 111 1 Q80 -5 64 -5 Q48 -5 37 6.5 Q26 18 26 35 Q26 68 58 68 Q68 68 73 66 Q89 64 91 64 Q110 64 115 93.5 Q120 123 120 238 L120 428 Q120 544 115 573.5 Q110 603 91 603 Q86 603 75 600.5 Q64 598 58 598 Q26 598 26 632 Q26 671 64 671 Q82 671 106 666 Q134 660 166 660 Q181 660 209.5 665.5 Q238 671 252 671 Q268 671 279 659.5 Q290 648 290 632 Q290 618 280.5 608 Q271 598 257 598 Q251 598 240.5 600.5 Q230 603 224 603 Q200 603 195 527 Q195 528 195 428 L195 420 L196 407 Q197 388 205 384 Q213 380 250 380 L366 380 Q400 380 408 386.5 Q416 393 416 420 L416 428 Q416 528 416 527 Q411 603 387 603 Q380 603 368.5 600.5 Q357 598 354 598 Q340 598 330.5 608 Q321 618 321 632 Q321 649 332.5 660 Q344 671 360 671 Q376 671 408.5 665.5 Q441 660 458 660 Q474 660 504 665.5 Q534 671 547 671 Q563 671 574 659.5 Q585 648 585 632 Q585 618 575.5 608 Q566 598 552 598 Q546 598 535.5 600.5 Q525 603 519 603 Q495 603 490 527 Q490 528 490 428 L490 238 Q490 139 490 139 Q495 64 519 64 Q521 64 537 66 Q543 68 552 68 Q566 68 575.5 58.5 Q585 49 585 35 Q585 18 574 6.5 Q563 -5 546 -5 Q531 -5 499 1 Q467 7 449 7 Q434 7 404 1 Q374 -5 359 -5 Q343 -5 332 6.5 Q321 18 321 35 Q321 49 331 58.5 Q341 68 354 68 Q363 68 369 66 Q383 64 387 64 Q411 64 416 139 Q416 139 416 238 Z " />
<glyph glyph-name="I" unicode="I" horiz-adv-x="313" d="M91 64 Q110 64 115 93.5 Q120 123 120 238 L120 428 Q120 544 115 573.5 Q110 603 91 603 Q86 603 75 600.5 Q64 598 58 598 Q26 598 26 632 Q26 671 64 671 Q79 671 109 665.5 Q139 660 154 660 Q170 660 201 665.5 Q232 671 248 671 Q287 671 287 632 Q287 598 254 598 Q251 598 240 600.5 Q229 603 221 603 Q202 603 197.5 573.5 Q193 544 193 428 L193 238 Q193 123 197.5 93.5 Q202 64 221 64 Q225 64 239 66 Q245 68 254 68 Q268 68 277.5 58.5 Q287 49 287 35 Q287 18 276 6.5 Q265 -5 249 -5 Q244 -5 201 3 Q179 7 159 7 Q141 7 109.5 1 Q78 -5 64 -5 Q48 -5 37 6.5 Q26 18 26 35 Q26 68 58 68 Q68 68 73 66 Q89 64 91 64 Z " />
<glyph glyph-name="J" unicode="J" horiz-adv-x="493" d="M118 238 Q118 253 128 268 Q87 248 87 191 Q87 133 117 98 Q147 63 195 63 Q230 63 260 84 Q290 105 303 139 Q315 170 318 199 Q321 228 321 317 L321 428 Q321 528 321 527 Q316 603 292 603 Q286 603 275.5 600.5 Q265 598 259 598 Q245 598 235.5 608 Q226 618 226 632 Q226 648 237 659.5 Q248 671 264 671 Q279 671 308.5 665.5 Q338 660 354 660 Q372 660 404 665.5 Q436 671 450 671 Q466 671 477 659.5 Q488 648 488 632 Q488 618 478.5 608 Q469 598 455 598 Q452 598 441 600.5 Q430 603 422 603 Q398 603 393 527 Q393 528 393 428 L393 247 Q393 120 336.5 53.5 Q280 -13 194 -13 Q117 -13 68.5 43.5 Q20 100 20 188 Q20 253 51 295 Q82 337 129 337 Q161 337 183 313.5 Q205 290 205 254 Q205 227 192 210 Q179 193 158 193 Q118 193 118 238 Z " />
<glyph glyph-name="K" unicode="K" horiz-adv-x="607" d="M394 123 L266 355 L192 268 L192 238 Q192 139 192 139 Q197 64 221 64 Q225 64 239 66 Q245 68 254 68 Q268 68 277.5 58.5 Q287 49 287 35 Q287 18 276 6.5 Q265 -5 249 -5 Q241 -5 204 2 Q178 7 158 7 Q142 7 111 1 Q80 -5 64 -5 Q48 -5 37 6.5 Q26 18 26 35 Q26 68 58 68 Q68 68 73 66 Q89 64 91 64 Q110 64 115 93.5 Q120 123 120 238 L120 428 Q120 544 115 573.5 Q110 603 91 603 Q86 603 75 600.5 Q64 598 58 598 Q26 598 26 632 Q26 671 65 671 Q83 671 111 666 Q144 660 162 660 Q182 660 201 664 Q234 671 249 671 Q265 671 276 659.5 Q287 648 287 632 Q287 618 277.5 608 Q268 598 254 598 Q251 598 240 600.5 Q229 603 221 603 Q197 603 192 527 Q192 528 192 428 L192 365 L317 501 Q387 577 387 591 Q387 600 376 600 Q372 600 364.5 598.5 Q357 597 353 597 Q322 597 322 635 Q322 671 356 671 Q368 671 386 667 Q410 662 417 662 Q430 660 449 660 Q465 660 496 665.5 Q527 671 542 671 Q579 671 579 635 Q579 620 569.5 609.5 Q560 599 546 599 Q537 599 531 601 Q517 603 515 603 Q499 603 472 574 L438 537 L317 411 L493 102 Q507 78 514.5 71.5 Q522 65 535 65 Q546 65 552 67 Q568 69 571 69 Q602 69 602 33 Q602 -5 566 -5 Q550 -5 518 1 Q486 7 469 7 Q453 7 421.5 1 Q390 -5 374 -5 Q337 -5 337 33 Q337 70 372 70 Q377 70 385.5 68.5 Q394 67 399 67 Q412 67 412 79 Q412 92 405 104 L394 123 Z " />
<glyph glyph-name="L" unicode="L" horiz-adv-x="502" d="M190 428 L191 162 Q192 91 199.5 76.5 Q207 62 243 62 L306 62 Q371 62 390 77 Q409 92 409 142 L409 146 Q409 169 408 190 Q408 203 407 217 Q406 231 406 232 Q406 279 441 279 Q475 279 475 238 Q475 228 473 203 Q468 142 468 123 Q468 99 470 76 Q473 41 473 39 Q473 -3 430 -3 Q417 -3 389 0 Q378 1 322 4 Q262 7 245 7 Q163 7 123 1 Q83 -5 64 -5 Q26 -5 26 35 Q26 68 58 68 Q68 68 73 66 Q89 64 91 64 Q110 64 115 93.5 Q120 123 120 238 L120 428 Q120 544 115 573.5 Q110 603 91 603 Q86 603 75 600.5 Q64 598 58 598 Q26 598 26 632 Q26 671 64 671 Q78 671 108 665.5 Q138 660 155 660 Q171 660 201 665.5 Q231 671 246 671 Q262 671 273 659.5 Q284 648 284 632 Q284 598 251 598 Q248 598 237 600.5 Q226 603 218 603 Q199 603 194.5 573.5 Q190 544 190 428 Z " />
<glyph glyph-name="M" unicode="M" horiz-adv-x="712" d="M244 612 L357 108 L469 624 Q479 668 501 668 Q500 668 537 662 Q548 660 561 660 Q576 660 604.5 665.5 Q633 671 648 671 Q665 671 676 660 Q687 649 687 632 Q687 618 677.5 608 Q668 598 654 598 Q648 598 639 600 Q626 603 621 603 Q597 603 592 527 Q592 528 592 428 L592 238 Q592 139 592 139 Q597 64 621 64 Q623 64 639 66 Q644 68 654 68 Q668 68 677.5 58.5 Q687 49 687 35 Q687 18 676 6.5 Q665 -5 648 -5 Q632 -5 601.5 1 Q571 7 555 7 Q540 7 513.5 1 Q487 -5 473 -5 Q460 -5 450.5 6 Q441 17 441 32 Q441 66 476 66 L489 66 Q491 65 497 65 Q522 65 524 110 L526 152 L528 237 L528 612 L398 14 Q392 -13 358 -13 Q322 -13 316 14 L184 603 L184 245 Q184 126 189 95.5 Q194 65 213 65 Q218 65 228 66.5 Q238 68 243 68 Q276 68 276 33 Q276 -5 242 -5 Q231 -5 206 1 Q181 7 158 7 Q142 7 111 1 Q80 -5 64 -5 Q26 -5 26 35 Q26 68 58 68 Q68 68 73 66 Q89 64 91 64 Q110 64 115 93.5 Q120 123 120 238 L120 422 Q120 537 115 566.5 Q110 596 91 596 Q89 596 73 594 Q68 592 58 592 Q26 592 26 625 Q26 642 37 653.5 Q48 665 64 665 Q71 665 96 662 Q105 660 131 660 Q145 660 171 663 Q197 666 209 666 Q227 666 235 647 Q237 641 244 612 Z " />
<glyph glyph-name="N" unicode="N" horiz-adv-x="584" d="M230 640 L413 97 L413 428 Q413 528 413 527 Q408 603 384 603 Q378 603 367.5 600.5 Q357 598 351 598 Q337 598 327.5 608 Q318 618 318 632 Q318 648 329 659.5 Q340 671 356 671 Q369 671 401 664 Q419 660 446 660 Q476 660 492 664 Q521 671 532 671 Q545 671 554.5 660 Q564 649 564 633 Q564 598 534 598 Q530 598 521 599.5 Q512 601 507 601 Q485 601 482 555 L479 506 L478 431 L478 64 Q478 -6 427 -6 Q382 -6 361 57 L186 579 L186 238 Q186 123 191 93.5 Q196 64 215 64 Q218 64 232 66 Q238 68 248 68 Q280 68 280 35 Q280 19 269 7 Q258 -5 243 -5 Q239 -5 201 4 Q188 7 158 7 Q133 7 107 2 Q70 -5 63 -5 Q47 -5 36.5 6.5 Q26 18 26 35 Q26 68 58 68 Q68 68 73 66 Q89 64 91 64 Q110 64 115 93.5 Q120 123 120 238 L120 428 Q120 544 115 573.5 Q110 603 91 603 Q86 603 75 600.5 Q64 598 58 598 Q26 598 26 632 Q26 649 36.5 660 Q47 671 63 671 Q74 671 101 665 Q123 660 148 660 Q152 660 190 666 Q199 667 205 667 Q221 667 230 640 Z " />
<glyph glyph-name="O" unicode="O" horiz-adv-x="509" d="M255 -13 Q157 -13 98.5 81 Q40 175 40 333 Q40 491 98.5 585.5 Q157 680 255 680 Q353 680 411 586 Q469 492 469 333 Q469 175 411 81 Q353 -13 255 -13 Z M256 610 Q189 610 152.5 537 Q116 464 116 333 Q116 204 152.5 130.5 Q189 57 253 57 Q319 57 356 130 Q393 203 393 333 Q393 462 356.5 536 Q320 610 256 610 Z " />
<glyph glyph-name="P" unicode="P" horiz-adv-x="497" d="M262 282 L212 282 Q198 282 194.5 276.5 Q191 271 191 251 L191 238 Q191 139 191 139 Q196 64 220 64 Q222 64 238 66 Q243 68 253 68 Q267 68 276.5 58.5 Q286 49 286 35 Q286 18 275 6.5 Q264 -5 248 -5 Q244 -5 199 3 Q184 7 156 7 Q139 7 107.5 1 Q76 -5 63 -5 Q47 -5 36.5 6.5 Q26 18 26 35 Q26 68 58 68 Q68 68 73 66 Q89 64 91 64 Q110 64 115 93.5 Q120 123 120 238 L120 428 Q120 544 115 573.5 Q110 603 91 603 Q86 603 75 600.5 Q64 598 58 598 Q26 598 26 632 Q26 671 64 671 Q80 671 111.5 665.5 Q143 660 159 660 Q185 660 240 664 Q268 666 305 666 Q388 666 432.5 616 Q477 566 477 473 Q477 354 399 309 Q352 282 262 282 Z M276 601 Q226 601 208.5 589.5 Q191 578 191 544 L191 391 Q191 360 194.5 355.5 Q198 351 211 351 Q244 348 270 348 Q406 348 406 471 Q406 539 375 570 Q344 601 276 601 Z " />
<glyph glyph-name="Q" unicode="Q" horiz-adv-x="508" d="M427 114 Q399 54 353 20 L353 -44 Q353 -131 391 -131 Q428 -131 428 -64 Q428 -17 458 -17 Q488 -17 488 -64 Q488 -122 461 -156.5 Q434 -191 389 -191 Q337 -191 316 -159 Q295 -127 293 -48 L292 -7 Q266 -12 251 -12 Q208 -12 164.5 15 Q121 42 96 84 Q40 178 40 335 Q40 487 101 584 Q162 681 259 681 Q357 681 413.5 586 Q470 491 470 325 Q470 206 427 114 Z M351 154 Q351 142 348 109 Q371 150 380 185 Q398 255 398 344 Q398 466 360 539.5 Q322 613 259 613 Q185 613 150 532 Q111 442 111 334 Q111 208 145 137 Q149 128 161 111 Q156 145 156 168 Q156 217 184 247.5 Q212 278 257 278 Q351 278 351 154 Z M263 52 Q272 52 292 57 L292 133 Q292 213 251 213 Q228 213 212 190 Q196 167 196 134 Q196 100 215.5 76 Q235 52 263 52 Z " />
<glyph glyph-name="R" unicode="R" horiz-adv-x="550" d="M477 495 Q477 371 374 340 Q418 323 431 301.5 Q444 280 447 220 L449 174 L450 133 Q452 64 481 64 Q486 64 498 66 Q510 68 511 68 Q543 68 543 34 Q543 -3 501 -3 L491 -3 L467 0 L441 1 Q404 2 391 35.5 Q378 69 376 168 L375 215 Q374 268 353 286.5 Q332 305 273 305 Q265 305 265 305 L215 303 Q201 302 197 295 Q193 288 193 262 L193 238 Q193 123 198 93.5 Q203 64 222 64 Q224 64 240 66 Q245 68 255 68 Q287 68 287 35 Q287 18 276 6.5 Q265 -5 249 -5 Q235 -5 203 1 Q171 7 154 7 Q138 7 108 1 Q78 -5 63 -5 Q47 -5 36.5 6.5 Q26 18 26 35 Q26 68 58 68 Q68 68 73 66 Q89 64 91 64 Q110 64 115 93.5 Q120 123 120 238 L120 428 Q120 544 115 573.5 Q110 603 91 603 Q86 603 75 600.5 Q64 598 58 598 Q26 598 26 632 Q26 671 64 671 Q80 671 112.5 665.5 Q145 660 162 660 Q188 660 240 663.5 Q292 667 318 667 Q394 667 435.5 622.5 Q477 578 477 495 Z M193 397 Q193 375 214 374 L234 373 Q237 372 244 372 Q249 372 261 373 Q306 376 333 379 Q365 387 384 417 Q403 447 403 490 Q403 604 287 604 Q235 604 214 593 Q193 582 193 556 L193 397 Z " />
<glyph glyph-name="S" unicode="S" horiz-adv-x="480" d="M225 681 Q294 681 342 627 Q342 630 342 635 Q341 641 341 643 Q341 676 371 676 Q404 676 404 635 Q404 620 402.5 590.5 Q401 561 401 546 Q401 531 403 502 Q405 473 405 458 Q405 415 370 415 Q338 415 338 454 L338 458 L339 483 Q339 483 339 491 Q339 544 309 577 Q279 610 230 610 Q184 610 155 577.5 Q126 545 126 495 Q126 448 154 425.5 Q182 403 268 381 Q340 362 371 343 Q402 324 419 289 Q438 250 438 198 Q438 108 385.5 49 Q333 -10 252 -10 Q173 -10 113 59 Q114 46 114 34 Q114 -9 82 -9 Q51 -9 51 34 L51 37 Q51 58 55 101.5 Q59 145 59 167 Q59 181 56 208 Q53 235 53 248 Q53 289 88 289 Q122 289 122 246 Q122 244 120 222 Q118 200 118 193 Q118 138 155.5 100 Q193 62 247 62 Q301 62 335 97 Q369 132 369 187 Q369 266 298 292 Q267 303 228 312 Q110 338 74 406 Q53 446 53 492 Q53 571 103 626 Q153 681 225 681 Z " />
<glyph glyph-name="T" unicode="T" horiz-adv-x="491" d="M283 519 L283 238 Q283 123 288 93.5 Q293 64 312 64 Q315 64 329 66 Q335 68 345 68 Q377 68 377 35 Q377 18 366 6.5 Q355 -5 339 -5 Q330 -5 292 2 Q265 7 245 7 Q229 7 198.5 1 Q168 -5 154 -5 Q138 -5 127 6.5 Q116 18 116 35 Q116 68 149 68 Q158 68 164 66 Q178 64 182 64 Q201 64 205.5 93.5 Q210 123 210 238 L210 473 Q210 557 202 578 Q194 599 160 599 Q125 599 112 588.5 Q99 578 99 549 Q99 539 101 497 Q103 455 103 441 Q103 388 67 388 Q33 388 33 432 Q33 431 35 463 Q38 511 38 537 Q38 553 36 595 Q35 616 35 633 Q35 668 65 668 Q74 668 109 664 Q144 660 215 660 L245 660 L303 661 Q346 662 365 664 Q399 668 428 668 Q458 668 458 634 Q458 628 456 601 Q453 560 453 530 Q453 507 455 465 Q456 444 456 434 Q456 389 421 389 Q388 389 388 439 Q388 442 389 458.5 Q390 475 390 485 L392 545 Q392 576 380.5 588 Q369 600 340 600 Q298 600 288 578 Q283 566 283 519 Z " />
<glyph glyph-name="U" unicode="U" horiz-adv-x="575" d="M102 379 L102 535 Q102 603 73 603 Q69 603 61 601.5 Q53 600 49 600 Q36 600 27 609.5 Q18 619 18 633 Q18 672 55 672 Q69 672 90 667 Q120 660 140 660 Q156 660 185 665.5 Q214 671 227 671 Q243 671 254 659.5 Q265 648 265 632 Q265 618 255.5 608 Q246 598 232 598 Q226 598 215.5 600.5 Q205 603 199 603 Q175 603 170 527 Q170 528 170 428 L170 283 Q170 176 181 132 Q189 98 219 76.5 Q249 55 287 55 Q325 55 354 76.5 Q383 98 393 135 Q404 176 404 283 L404 428 Q404 528 404 527 Q399 603 375 603 Q369 603 358.5 600.5 Q348 598 342 598 Q328 598 318.5 608 Q309 618 309 632 Q309 649 320.5 660 Q332 671 348 671 Q362 671 390 665.5 Q418 660 432 660 Q447 660 476 666.5 Q505 673 520 673 Q555 673 555 635 Q555 602 523 602 L505 602 Q484 602 478.5 584 Q473 566 473 494 L473 401 Q473 375 474 322.5 Q475 270 475 244 Q475 130 449 77 Q428 35 382.5 11 Q337 -13 280 -13 Q228 -13 186 8.5 Q144 30 126 65 Q100 117 100 243 Q100 288 100 288 Q102 357 102 379 Z " />
<glyph glyph-name="V" unicode="V" horiz-adv-x="523" d="M167 511 L268 105 L363 550 Q367 570 367 580 Q367 602 349 602 Q347 602 344 602 Q340 601 339 601 Q327 598 320 598 Q292 598 292 633 Q292 671 328 671 Q341 671 369 665 Q393 660 413 660 Q428 660 455 665.5 Q482 671 494 671 Q528 671 528 634 Q528 600 499 600 Q494 600 485.5 601.5 Q477 603 472 603 Q452 603 433 526 L415 453 L312 27 Q303 -9 266 -9 Q242 -9 233 1 Q225 8 218 35 L90 515 Q68 600 43 600 Q42 600 40 600 Q37 599 36 599 Q30 598 23 597 Q11 597 2.5 608.5 Q-6 620 -6 635 Q-6 671 30 671 Q44 671 71 665.5 Q98 660 112 660 Q135 660 151 665 Q183 671 194 671 Q228 671 228 635 Q228 620 218 609.5 Q208 599 194 599 Q190 599 181.5 600.5 Q173 602 169 602 Q151 602 151 582 Q151 573 159 542 L167 511 Z " />
<glyph glyph-name="W" unicode="W" horiz-adv-x="687" d="M153 539 L215 129 L297 611 Q303 646 312.5 658.5 Q322 671 342 671 Q367 671 377 653 Q381 645 387 611 L470 119 L530 530 Q534 557 534 570 Q534 604 505 604 Q503 604 499 604 Q495 603 493 603 Q480 600 473 600 Q443 600 443 636 Q443 671 479 671 Q494 671 524 665.5 Q554 660 569 660 Q584 660 614 665.5 Q644 671 659 671 Q693 671 693 635 Q693 600 663 600 Q660 600 648 602 Q643 604 635 604 Q615 604 608 555 Q608 549 602 515 L592 459 L514 35 Q506 -9 471 -9 Q429 -9 422 43 L418 74 L341 524 L257 40 Q251 12 247 4 Q238 -9 216 -9 Q191 -9 183.5 -1 Q176 7 171 35 L88 480 Q73 563 65 583 Q57 603 41 603 L39 603 L23 601 L21 601 Q-6 601 -6 635 Q-6 650 4.5 660.5 Q15 671 29 671 Q43 671 70 665.5 Q97 660 111 660 Q127 660 158 665.5 Q189 671 204 671 Q238 671 238 634 Q238 600 206 600 Q200 600 189.5 602 Q179 604 173 604 Q148 604 148 575 L148 570 L153 539 Z " />
<glyph glyph-name="X" unicode="X" horiz-adv-x="598" d="M162 183 L263 347 L175 494 Q111 601 88 601 L78 601 Q70 599 62 599 Q31 599 31 634 Q31 671 68 671 Q88 671 107 667 Q139 660 160 660 Q174 660 195 664 Q223 669 229 670 Q239 671 248 671 Q282 671 282 635 Q282 598 251 598 Q246 598 235 600 Q224 602 219 602 Q203 602 203 589 Q203 584 212 568 L229 537 L301 412 L375 537 Q401 581 401 589 Q401 601 384 601 Q379 601 370.5 599.5 Q362 598 357 598 Q345 598 336 609 Q327 620 327 634 Q327 649 337.5 660 Q348 671 363 671 Q377 671 405 665.5 Q433 660 448 660 Q464 660 494.5 665.5 Q525 671 540 671 Q576 671 576 634 Q576 599 544 599 Q540 599 531 600 Q522 601 518 601 Q502 601 487 583.5 Q472 566 432 501 L337 347 L466 138 L493 99 Q517 64 534 64 Q539 64 550 66 Q561 68 566 68 Q596 68 596 35 Q596 -5 559 -5 Q550 -5 527 -1 Q481 7 457 7 Q442 7 414 1 Q386 -5 372 -5 Q357 -5 346 6.5 Q335 18 335 34 Q335 69 370 69 Q375 69 385.5 67 Q396 65 401 65 Q415 65 415 80 Q415 86 403 108 L389 134 L301 283 L209 134 L192 103 Q183 87 183 80 Q183 65 201 65 Q211 65 217.5 66.5 Q224 68 233 68 Q265 68 265 33 Q265 17 255 6 Q245 -5 231 -5 Q220 -5 199 -1 Q174 5 167 6 Q155 7 144 7 Q117 7 90 2 Q52 -5 42 -5 Q2 -5 2 33 Q2 69 34 69 Q40 69 50 67 Q60 65 65 65 Q83 65 100 93 Q101 95 130 135 Q147 159 162 183 Z " />
<glyph glyph-name="Y" unicode="Y" horiz-adv-x="542" d="M183 537 L272 332 L374 564 Q381 581 381 585 Q381 598 369 598 Q364 598 355 596 Q346 594 341 594 Q312 594 312 632 Q312 671 346 671 Q356 671 382.5 665.5 Q409 660 425 660 Q450 660 478 666 Q502 671 513 671 Q548 671 548 632 Q548 595 516 595 Q509 595 500 598 Q488 600 486 600 Q472 600 460 579 L450 561 L439 537 L313 271 Q308 261 307 245 Q305 236 305 222 L305 118 Q305 62 336 62 Q347 62 355 64 Q369 66 374 66 Q405 66 405 33 Q405 17 395 6 Q385 -5 370 -5 Q353 -5 320.5 1 Q288 7 271 7 Q252 7 216.5 1 Q181 -5 164 -5 Q127 -5 127 33 Q127 66 160 66 Q167 66 180.5 64 Q194 62 200 62 Q226 62 232 125 Q234 140 234 202 L234 225 Q234 250 227 267 Q224 274 214 297 L82 575 Q69 599 54 599 Q49 599 39.5 597.5 Q30 596 25 596 Q-6 596 -6 633 Q-6 672 30 672 Q41 672 71 666 Q101 660 119 660 Q135 660 161 665.5 Q187 671 197 671 Q212 671 222.5 659.5 Q233 648 233 631 Q233 594 200 594 Q195 594 186.5 596 Q178 598 174 598 Q164 598 164 586 Q164 585 165 581.5 Q166 578 173 561 L183 537 Z " />
<glyph glyph-name="Z" unicode="Z" horiz-adv-x="495" d="M142 69 L169 68 L312 68 Q352 68 368.5 86.5 Q385 105 385 149 Q385 150 383 198 Q381 246 381 241 Q381 279 415 279 Q449 279 449 241 Q449 228 446.5 203 Q444 178 444 167 L443 121 L443 77 L445 40 Q445 -3 398 -3 Q377 -3 352 -1 Q289 4 207 4 Q174 4 102 0 Q102 0 86 0 Q29 0 29 45 Q29 70 57 114 L350 575 Q355 583 355 587 Q355 600 324 600 L187 600 Q143 600 129.5 580 Q116 560 116 495 Q116 488 117 466 Q117 445 117 434 L117 429 Q117 384 85 384 Q50 384 50 426 Q50 436 51 441 Q56 496 56 537 Q56 549 56 565 Q55 581 55 585 L55 624 Q55 650 65 660.5 Q75 671 102 671 Q109 671 112 670 Q171 665 283 665 Q318 665 332 666 L402 671 Q452 671 452 629 Q452 608 435 581 L128 102 Q119 88 119 82 Q119 70 142 69 Z " />
<glyph glyph-name="bracketleft" unicode="&#x5b;" horiz-adv-x="266" d="M130 421 L132 6 Q133 -29 133 -33 Q138 -56 157 -56 Q166 -56 173 -55 L184 -55 Q219 -55 219 -87 Q219 -122 184 -122 Q175 -122 158 -119 Q141 -116 133 -116 Q123 -116 105.5 -119.5 Q88 -123 79 -123 Q64 -123 61 -111 Q60 -108 60 -86 L60 634 Q60 656 61 660 Q64 672 79 672 Q81 672 113 667 Q125 665 133 665 Q141 665 158 668 Q175 671 184 671 Q219 671 219 636 Q219 604 184 604 L173 604 Q166 605 157 605 Q138 605 133 582 Q133 578 132 543 L130 421 Z " />
<glyph glyph-name="backslash" unicode="&#x5c;" horiz-adv-x="500" d="M25 750 L91 750 L453 -83 L388 -83 L25 750 Z " />
<glyph glyph-name="bracketright" unicode="&#x5d;" horiz-adv-x="266" d="M187 672 Q201 672 205 659 Q206 655 206 634 L206 -86 Q206 -118 197 -122 Q194 -123 187 -123 Q185 -123 153 -118 Q141 -116 133 -116 Q125 -116 108 -119 Q91 -122 82 -122 Q47 -122 47 -87 Q47 -55 82 -55 L93 -55 Q99 -56 108 -56 Q128 -56 132 -33 Q133 -29 134 6 L136 128 L136 421 Q136 443 135 493 L134 543 Q133 578 132 582 Q128 605 108 605 Q99 605 93 604 L82 604 Q47 604 47 636 Q47 671 82 671 Q91 671 108 668 Q125 665 133 665 Q143 665 160.5 668.5 Q178 672 187 672 Z " />
<glyph glyph-name="asciicircum" unicode="&#x5e;" horiz-adv-x="500" d="M249 615 L100 368 L27 368 L206 668 L294 668 L473 368 L399 368 L249 615 Z " />
<glyph glyph-name="underscore" unicode="&#x5f;" horiz-adv-x="500" d="M0 -129 L0 -69 L500 -69 L500 -129 L0 -129 Z " />
<glyph glyph-name="grave" unicode="&#x60;" horiz-adv-x="500" d="M303 565 Q297 565 284 571 L197 611 Q159 628 159 659 Q159 678 170 691 Q181 704 197 704 Q214 704 240 678 L306 611 Q320 597 320 583 Q320 565 303 565 Z " />
<glyph glyph-name="a" unicode="a" horiz-adv-x="443" d="M354 -13 Q297 -13 281 47 Q238 -13 166 -13 Q108 -13 70.5 28 Q33 69 33 133 Q33 215 84 249 Q120 273 195 283 Q238 289 254 305.5 Q270 322 270 361 Q270 442 201 442 Q183 442 160 432 Q134 420 134 403 Q134 398 140 388 Q152 369 152 352 Q152 309 107 309 Q55 309 55 374 Q55 429 96.5 465.5 Q138 502 201 502 Q243 502 277 485 Q315 465 329 429 Q340 399 340 328 L341 83 Q342 54 358 54 Q380 54 380 125 Q380 138 379 144 L379 154 Q379 197 408 197 Q441 197 441 140 Q441 53 422 20 Q403 -13 354 -13 Z M269 149 Q273 172 274 239 Q246 227 219 222 L174 214 Q101 201 101 131 Q101 95 121.5 73 Q142 51 175 51 Q210 51 236 78 Q262 105 269 149 Z " />
<glyph glyph-name="b" unicode="b" horiz-adv-x="437" d="M139 628 L135 453 Q177 502 236 502 Q311 502 355.5 432 Q400 362 400 244 Q400 130 353 58.5 Q306 -13 232 -13 Q174 -13 137 40 L137 25 Q137 -13 104 -13 Q70 -13 70 26 Q70 51 70 51 L71 79 L68 561 Q66 589 62.5 596 Q59 603 46 603 L39 603 Q15 603 15 633 Q15 669 45 669 Q54 669 63 666 Q85 662 86 662 Q89 662 107 666 Q116 669 123 669 Q140 669 140 646 Q140 644 140 638 Q139 632 139 628 Z M231 434 Q136 434 136 249 Q136 56 228 56 Q274 56 302 108 Q330 160 330 244 Q330 331 303.5 382.5 Q277 434 231 434 Z " />
<glyph glyph-name="c" unicode="c" horiz-adv-x="405" d="M250 318 Q250 360 286 369 Q267 436 213 436 Q166 436 137 382 Q108 328 108 239 Q108 154 136 105 Q164 56 213 56 Q248 56 271.5 83.5 Q295 111 298 155 Q301 206 333 206 Q368 206 368 159 Q368 89 321 38 Q274 -13 209 -13 Q129 -13 83 54.5 Q37 122 37 238 Q37 361 84 431.5 Q131 502 213 502 Q277 502 317.5 459.5 Q358 417 358 351 Q358 266 298 266 Q277 266 263.5 280.5 Q250 295 250 318 Z " />
<glyph glyph-name="d" unicode="d" horiz-adv-x="455" d="M211 502 Q265 502 306 458 L305 517 Q305 532 304 549 Q303 566 303 569 Q303 603 279 603 L273 603 Q270 602 263 602 Q234 602 234 634 Q234 648 243.5 658.5 Q253 669 266 669 Q274 669 289.5 665.5 Q305 662 313 662 Q322 662 340 665 Q353 669 362 669 Q378 669 378 648 L378 644 Q378 626 377 594 Q376 555 376 534 L375 463 L373 390 L373 159 Q373 106 373 102 Q378 62 398 62 L402 62 Q410 63 418 63 Q445 63 445 31 Q445 -4 414 -4 Q408 -4 393 -1 Q363 2 364 2 Q353 2 342 -1 Q328 -5 322 -5 Q305 -5 305 19 Q305 28 306 41 Q258 -13 203 -13 Q130 -13 83.5 57 Q37 127 37 238 Q37 355 85.5 428.5 Q134 502 211 502 Z M210 431 Q166 431 138.5 381.5 Q111 332 111 252 L111 244 Q111 156 136.5 107.5 Q162 59 208 59 Q254 59 280 107.5 Q306 156 306 242 Q306 334 286 377 Q261 431 210 431 Z " />
<glyph glyph-name="e" unicode="e" horiz-adv-x="414" d="M377 286 Q377 249 372 240.5 Q367 232 345 232 L146 232 Q122 232 116 227.5 Q110 223 110 204 Q110 138 138 97 Q166 56 212 56 Q241 56 264 75 Q287 94 295 124 L304 158 Q311 186 339 186 Q371 186 371 150 Q371 85 322.5 36 Q274 -13 210 -13 Q131 -13 84 55.5 Q37 124 37 240 Q37 356 87 429 Q137 502 217 502 Q288 502 332.5 441.5 Q377 381 377 286 Z M115 316 Q115 298 141 298 L267 298 Q291 298 297 302 Q303 306 303 322 Q303 370 277 402 Q251 434 213 434 Q154 434 128 368 Q118 343 116 325 Q115 321 115 316 Z " />
<glyph glyph-name="f" unicode="f" horiz-adv-x="296" d="M249 582 Q249 594 258 608 Q244 623 229 623 Q203 623 185.5 596.5 Q168 570 168 529 Q168 502 172 497.5 Q176 493 184 493 Q190 493 202.5 495 Q215 497 221 497 Q257 497 257 460 Q257 425 214 425 Q205 425 201 426 Q185 428 185 428 Q169 428 167 392 L166 370 L166 150 Q166 89 170 75 Q174 61 191 61 L200 61 Q218 63 220 63 Q251 63 251 30 Q251 -5 219 -5 Q211 -5 181 0 Q163 3 127 3 Q115 3 92 -1 Q69 -5 58 -5 Q27 -5 27 29 Q27 63 55 63 Q61 63 66 62 L75 62 Q91 62 94.5 76.5 Q98 91 98 156 L98 389 Q98 425 85 425 Q78 425 74 424 Q70 423 64 423 Q25 423 25 459 Q25 498 65 498 Q69 498 77 497 Q85 496 89 496 Q102 496 102 512 Q102 577 117 614 Q130 646 159.5 666 Q189 686 226 686 Q270 686 302 659 Q334 632 334 594 Q334 571 321.5 555 Q309 539 290 539 Q273 539 261 551.5 Q249 564 249 582 Z " />
<glyph glyph-name="g" unicode="g" horiz-adv-x="420" d="M225 502 Q234 502 253 499 Q262 590 339 590 Q375 590 400.5 563 Q426 536 426 498 Q426 445 385 445 Q369 445 358 456 Q347 467 347 483 Q347 498 360 516 Q352 530 342 530 Q329 530 319.5 517 Q310 504 310 487 Q310 479 311 473 Q364 428 364 345 Q364 274 324 227.5 Q284 181 223 181 Q182 181 136 206 Q129 210 123 210 Q103 210 103 175 Q103 131 167.5 131 Q232 131 258 127 Q310 121 342 99 Q403 58 403 -19 Q403 -91 350.5 -134.5 Q298 -178 212 -178 Q127 -178 75 -138 Q23 -98 23 -33 Q23 45 94 82 Q35 113 35 175 Q35 236 94 270 Q77 309 77 346 Q77 414 118.5 458 Q160 502 225 502 Z M218 436 Q147 436 144 347 L143 341 Q143 300 164.5 275 Q186 250 222 250 Q256 250 276.5 275 Q297 300 297 342 Q297 384 275 410 Q253 436 218 436 Z M216 63 Q160 63 127.5 40 Q95 17 95 -22 Q95 -63 126.5 -86.5 Q158 -110 213 -110 Q270 -110 302.5 -87 Q335 -64 335 -23 Q335 16 302.5 39.5 Q270 63 216 63 Z " />
<glyph glyph-name="h" unicode="h" horiz-adv-x="491" d="M153 642 L151 445 Q204 502 269 502 Q349 502 387 440 Q413 400 413 316 L413 156 Q413 91 416.5 76.5 Q420 62 436 62 L445 62 Q450 63 456 63 Q483 63 483 29 Q483 -5 451 -5 Q439 -5 418 -1 Q392 4 366 4 Q361 4 334 1 Q309 -5 305 -5 Q274 -5 274 29 Q274 63 301 63 Q308 63 312 62 L321 62 Q337 62 340.5 76.5 Q344 91 344 156 L344 302 Q344 434 258 434 Q194 434 172 376 Q153 326 153 266 L153 252 L154 199 L154 156 Q154 91 157.5 76.5 Q161 62 177 62 L186 62 Q190 63 197 63 Q224 63 224 29 Q224 -5 192 -5 Q184 -5 157 1 Q137 3 123 3 Q110 3 84.5 -1 Q59 -5 46 -5 Q14 -5 14 29 Q14 63 41 63 Q48 63 52 62 L61 62 Q76 62 79 75.5 Q82 89 84 156 L85 199 L85 444 Q85 451 84 473 Q83 499 83 517 L82 569 Q81 603 58 603 L52 603 Q48 602 42 602 Q12 602 12 634 Q12 648 21.5 658.5 Q31 669 44 669 Q52 669 67 665.5 Q82 662 90 662 Q105 662 117 665.5 Q129 669 137 669 Q153 669 153 644 L153 642 Z " />
<glyph glyph-name="i" unicode="i" horiz-adv-x="248" d="M166 316 L166 252 L167 199 L167 156 Q167 91 170.5 76.5 Q174 62 190 62 L199 62 Q203 63 210 63 Q237 63 237 29 Q237 -5 205 -5 Q192 -5 166 -1 Q140 3 127 3 Q114 3 91.5 -1 Q69 -5 59 -5 Q27 -5 27 29 Q27 63 55 63 Q61 63 66 62 L75 62 Q91 62 94.5 76.5 Q98 91 98 156 L98 271 Q98 277 97 300.5 Q96 324 96 343 Q95 398 95 395 Q95 429 71 429 L65 429 Q64 429 60 429 Q57 428 55 428 Q26 428 26 460 Q26 474 35.5 485 Q45 496 58 496 Q61 496 81 491 Q93 488 102 488 Q111 488 128 491.5 Q145 495 153 495 Q169 495 169 471 L169 459 Q169 457 169 445 Q168 431 168 419 L166 316 Z M125 535 Q105 535 91.5 552 Q78 569 78 595 Q78 618 93 636.5 Q108 655 127 655 Q147 655 161.5 637.5 Q176 620 176 596 Q176 571 161 553 Q146 535 125 535 Z " />
<glyph glyph-name="j" unicode="j" horiz-adv-x="225" d="M6 -81 Q6 -98 -5 -116 Q14 -130 32 -130 Q71 -130 84.5 -97 Q98 -64 98 33 L98 271 Q98 277 97 300.5 Q96 324 96 343 Q95 398 95 395 Q95 429 71 429 L65 429 Q64 429 60 429 Q57 428 55 428 Q26 428 26 460 Q26 474 35.5 485 Q45 496 58 496 Q61 496 81 491 Q93 488 102 488 Q117 488 132 492 Q143 495 152 495 Q169 495 169 472 L169 462 Q168 459 168 428 L167 358 L167 33 Q167 -85 138 -132 Q99 -194 28 -194 Q-18 -194 -48.5 -166.5 Q-79 -139 -79 -98 Q-79 -73 -65 -55.5 Q-51 -38 -31 -38 Q-15 -38 -4.5 -50.5 Q6 -63 6 -81 Z M117 535 Q97 535 83.5 552.5 Q70 570 70 595 Q70 618 85.5 636.5 Q101 655 120 655 Q140 655 154 637.5 Q168 620 168 596 Q168 570 153.5 552.5 Q139 535 117 535 Z " />
<glyph glyph-name="k" unicode="k" horiz-adv-x="468" d="M153 476 L153 261 L267 390 Q283 408 283 417 Q283 429 269 429 Q266 429 260 428 Q254 427 251 427 Q219 427 219 458 Q219 473 229 484 Q239 495 253 495 Q265 495 292 490.5 Q319 486 334 486 Q347 486 372.5 490.5 Q398 495 410 495 Q442 495 442 463 Q442 449 433.5 438 Q425 427 413 428 L399 429 Q398 430 396 430 Q380 430 345 390 L280 316 Q269 303 269 297 Q269 294 276 281 L287 261 L386 85 Q400 60 420 60 L424 60 Q432 61 438 61 Q465 61 465 28 Q465 -5 434 -5 Q428 -5 407 -1 Q386 3 354 3 Q341 3 317 -1 Q293 -5 281 -5 Q249 -5 249 31 Q249 63 279 63 Q286 63 291 62 L295 62 Q308 62 308 73 Q308 79 303 88 L292 108 L241 204 Q222 239 213 239 Q208 239 201 231 L192 221 L167 193 Q153 177 153 159 L153 101 L154 86 Q156 62 170 62 L179 62 Q185 64 192 64 Q219 64 219 34 Q219 19 208 7 Q197 -5 184 -5 Q173 -5 151 -1 Q129 3 117 3 Q104 3 80 -1 Q56 -5 45 -5 Q14 -5 14 29 Q14 63 41 63 Q48 63 52 62 L61 62 Q76 62 79 75.5 Q82 89 84 156 L85 199 L85 444 Q85 451 84 473 Q83 499 83 517 L82 569 Q81 603 58 603 L52 603 Q48 602 42 602 Q12 602 12 634 Q12 648 21.5 658.5 Q31 669 44 669 Q51 669 68 664 Q75 662 89 662 Q105 662 118 665 Q136 669 138 669 Q156 669 156 646 Q156 638 155 634 L155 599 Q155 578 154 537.5 Q153 497 153 476 Z " />
<glyph glyph-name="l" unicode="l" horiz-adv-x="234" d="M153 465 L153 156 Q153 91 156.5 76.5 Q160 62 176 62 L185 62 Q190 63 197 63 Q208 63 216 53 Q224 43 224 29 Q224 -5 191 -5 Q183 -5 150 0 Q130 3 106 3 Q89 3 73 0 Q47 -5 45 -5 Q14 -5 14 29 Q14 63 41 63 Q48 63 52 62 L61 62 Q76 62 79 75.5 Q82 89 84 156 L85 199 L85 444 Q85 451 84 473 Q83 499 83 517 L82 569 Q81 603 58 603 L52 603 Q48 602 42 602 Q12 602 12 634 Q12 648 21.5 658.5 Q31 669 44 669 Q51 669 68 664 Q78 661 88 661 Q97 661 114.5 665 Q132 669 139 669 Q158 669 158 647 L158 634 Q157 625 156 595 L154 533 L153 465 Z " />
<glyph glyph-name="m" unicode="m" horiz-adv-x="701" d="M164 464 Q164 457 163 448 Q214 502 265 502 Q300 502 322.5 488 Q345 474 369 438 Q405 502 486 502 Q572 502 604 438 Q623 399 623 304 L623 156 Q623 91 626.5 76.5 Q630 62 646 62 L655 62 Q660 63 666 63 Q693 63 693 29 Q693 -5 661 -5 Q650 -5 628.5 -1 Q607 3 596 3 Q582 3 560 -1 Q538 -5 529 -5 Q493 -5 493 32 Q493 62 519 62 Q522 62 534 61 L537 61 Q546 61 548.5 67 Q551 73 551 97 L551 100 Q551 132 552 158 L554 216 L554 285 Q554 372 538 403 Q522 434 476 434 Q432 434 414 401 Q396 368 396 288 L397 88 Q397 70 401.5 65 Q406 60 417 60 L425 60 Q459 60 459 27 Q459 -5 429 -5 Q418 -5 395 -1 Q372 3 360 3 Q340 3 319 -1 Q298 -5 291 -5 Q262 -5 262 30 Q262 61 286 61 L302 61 Q322 61 324 98 L327 144 L327 285 Q327 371 310.5 403.5 Q294 436 250 436 Q204 436 183.5 393 Q163 350 163 255 L164 101 Q165 60 176 60 Q180 60 187.5 61.5 Q195 63 199 63 Q227 63 227 31 Q227 -5 191 -5 Q180 -5 156.5 -1 Q133 3 121 3 Q110 3 89.5 -1 Q69 -5 59 -5 Q27 -5 27 29 Q27 63 55 63 Q61 63 66 62 L75 62 Q91 62 94.5 76.5 Q98 91 98 156 L98 332 Q98 395 93.5 412 Q89 429 73 429 Q72 429 71 429 Q70 428 69 428 Q65 428 60 428 Q54 427 53 427 Q26 427 26 459 Q26 474 35 484.5 Q44 495 57 495 Q65 495 81.5 492 Q98 489 107 489 Q120 489 136 493 Q144 495 148 495 Q164 495 164 464 Z " />
<glyph glyph-name="n" unicode="n" horiz-adv-x="503" d="M165 450 Q208 502 282 502 Q365 502 400 445 Q425 404 425 299 L425 156 Q425 91 428.5 76.5 Q432 62 448 62 L457 62 Q462 63 468 63 Q495 63 495 29 Q495 -5 464 -5 Q453 -5 430.5 -1 Q408 3 396 3 Q383 3 357.5 -1 Q332 -5 319 -5 Q287 -5 287 29 Q287 43 295 53 Q303 63 314 63 Q321 63 326 62 L335 62 Q350 62 352.5 75.5 Q355 89 357 156 L358 199 L358 297 Q358 373 337 406 Q316 439 269 439 Q221 439 193 395.5 Q165 352 165 278 L165 156 Q165 91 168.5 76.5 Q172 62 188 62 L197 62 Q201 63 208 63 Q235 63 235 29 Q235 -5 204 -5 Q196 -5 166 1 Q146 3 129 3 Q108 3 91 0 Q63 -5 58 -5 Q27 -5 27 29 Q27 63 55 63 Q61 63 66 62 L75 62 Q91 62 94.5 76.5 Q98 91 98 156 L98 332 Q98 395 93.5 412 Q89 429 73 429 Q72 429 71 429 Q70 428 69 428 Q65 428 60 428 Q54 427 53 427 Q26 427 26 459 Q26 474 35 484.5 Q44 495 57 495 Q65 495 81.5 492 Q98 489 107 489 Q122 489 129 491 Q143 495 149 495 Q165 495 165 472 L165 450 Z " />
<glyph glyph-name="o" unicode="o" horiz-adv-x="430" d="M215 -13 Q133 -13 85 56.5 Q37 126 37 244 Q37 362 85 432 Q133 502 215 502 Q297 502 345 432 Q393 362 393 244 Q393 126 345 56.5 Q297 -13 215 -13 Z M215 435 Q166 435 137 382.5 Q108 330 108 244 Q108 158 137 106 Q166 54 215 54 Q264 54 293.5 106 Q323 158 323 244 Q323 330 293.5 382.5 Q264 435 215 435 Z " />
<glyph glyph-name="p" unicode="p" horiz-adv-x="442" d="M135 465 Q135 456 134 447 Q192 502 247 502 Q319 502 362 434.5 Q405 367 405 252 Q405 133 358 60 Q311 -13 234 -13 Q181 -13 137 31 L137 -5 Q137 -70 140.5 -84.5 Q144 -99 160 -99 L169 -99 Q179 -97 180 -97 Q207 -97 207 -132 Q207 -166 176 -166 Q167 -166 143 -161 Q119 -156 105 -156 Q83 -156 60.5 -161 Q38 -166 32 -166 Q1 -166 1 -132 Q1 -97 28 -97 Q31 -97 39 -99 L48 -99 Q64 -99 67.5 -84.5 Q71 -70 71 -5 L71 332 Q71 395 67 412 Q63 429 47 429 Q46 429 45 429 Q43 428 42 428 Q38 428 33 428 Q28 427 26 427 Q0 427 0 459 Q0 495 30 495 Q38 495 52 492 Q66 489 81 489 Q89 489 112 494 Q117 495 121 495 Q135 495 135 465 Z M232 55 Q279 55 306 107.5 Q333 160 333 252 Q333 337 307 384 Q281 431 235 431 Q188 431 162.5 381.5 Q137 332 137 241 Q137 153 162 104 Q187 55 232 55 Z " />
<glyph glyph-name="q" unicode="q" horiz-adv-x="428" d="M211 502 Q261 502 310 459 L310 473 Q310 508 343 508 Q374 508 374 467 L374 460 L372 402 L370 327 L370 -5 Q370 -70 373.5 -84.5 Q377 -99 393 -99 L402 -99 Q412 -97 413 -97 Q440 -97 440 -132 Q440 -166 409 -166 Q397 -166 373 -161.5 Q349 -157 336 -157 Q323 -157 299 -161.5 Q275 -166 263 -166 Q232 -166 232 -132 Q232 -97 259 -97 Q261 -97 271 -99 L279 -99 Q295 -99 298.5 -84 Q302 -69 302 -5 Q302 -3 303 7 Q303 18 303 25 L303 41 Q252 -13 196 -13 Q123 -13 80 52 Q37 117 37 228 Q37 350 85 426 Q133 502 211 502 Z M212 433 Q166 433 138.5 382.5 Q111 332 109 241 Q109 241 109 230 Q109 151 135 104.5 Q161 58 205 58 Q251 58 277.5 109 Q304 160 304 249 Q304 433 212 433 Z " />
<glyph glyph-name="r" unicode="r" horiz-adv-x="391" d="M157 467 Q157 467 157 454 Q198 502 252 502 Q305 502 338 464.5 Q371 427 371 368 Q371 324 353.5 296 Q336 268 309 268 Q288 268 274 282 Q260 296 260 317 Q260 357 304 363 Q305 370 305 380 Q305 404 288.5 421.5 Q272 439 249 439 Q164 439 164 270 L164 188 Q164 102 168 81.5 Q172 61 188 61 Q192 61 206 63 Q213 65 225 65 Q255 65 255 32 Q255 -5 222 -5 Q211 -5 178 1 Q156 3 136 3 Q121 3 95 -1 Q69 -5 59 -5 Q27 -5 27 29 Q27 63 55 63 Q61 63 66 62 L75 62 Q91 62 94.5 76.5 Q98 91 98 156 L98 332 Q98 395 93.5 412 Q89 429 73 429 Q72 429 71 429 Q70 428 69 428 Q65 428 60 428 Q54 427 53 427 Q26 427 26 459 Q26 474 35 484.5 Q44 495 57 495 Q65 495 82 492 Q99 489 108 489 Q117 489 139 494 Q144 495 147 495 Q156 495 157 467 Z " />
<glyph glyph-name="s" unicode="s" horiz-adv-x="410" d="M198 501 Q243 501 287 466 Q287 506 316 506 Q348 506 348 469 Q348 465 346 448 Q342 414 342 394 Q342 384 344 363 Q346 342 346 332 Q346 299 317 299 Q283 299 283 347 Q283 390 261 414.5 Q239 439 200 439 Q166 439 144.5 418 Q123 397 123 363 Q123 330 143 314 Q163 298 219 286 Q295 270 324 247 Q370 212 370 145 Q370 78 326.5 34 Q283 -10 216 -10 Q160 -10 111 36 L111 28 Q111 -16 80 -16 Q48 -16 48 22 Q48 35 50 54 Q51 64 51 101 Q51 113 49 138 Q47 163 47 175 Q47 207 76 207 Q108 207 110 166 Q114 53 217 53 Q253 53 276.5 75.5 Q300 98 300 132 Q300 167 278.5 185 Q257 203 202 213 Q129 226 96 250 Q51 282 51 350 Q51 415 93 458 Q135 501 198 501 Z " />
<glyph glyph-name="t" unicode="t" horiz-adv-x="323" d="M69 508 L70 520 L70 599 Q70 643 104 643 Q138 643 138 599 L138 519 Q138 502 141.5 497.5 Q145 493 159 493 Q176 493 190 494 L223 496 Q263 496 263 460 Q263 422 223 422 Q212 422 189.5 425.5 Q167 429 156 429 Q144 429 141 423.5 Q138 418 138 398 L138 197 Q138 128 140 116 Q148 61 182 61 Q227 61 227 166 L227 176 Q227 209 230 218 Q236 241 259 241 Q293 241 293 181 Q293 159 289 117 Q277 -11 177 -11 Q99 -11 79 60 Q70 92 70 165 L70 403 Q70 425 58 425 Q57 425 47 423 Q46 423 42 423 Q38 422 36 422 Q6 422 6 460 Q6 495 36 495 Q40 495 47 494 Q54 493 58 493 Q68 493 69 508 Z " />
<glyph glyph-name="u" unicode="u" horiz-adv-x="480" d="M332 46 Q288 -13 220 -13 Q182 -13 146 8 Q110 29 94.5 61.5 Q79 94 78 133 Q78 133 78 199 L78 332 Q78 395 73.5 412 Q69 429 53 429 Q52 429 51 429 Q50 428 49 428 Q45 428 40 428 Q34 427 33 427 Q6 427 6 459 Q6 474 15 484.5 Q24 495 37 495 Q45 495 61.5 492 Q78 489 86 489 Q101 489 109 491 L126 495 Q128 495 130 496 Q132 496 133 496 Q149 496 149 478 L149 468 L148 425 L146 295 L146 209 Q146 126 166 91.5 Q186 57 234 57 Q332 57 332 243 L332 271 Q332 315 331 343 L329 395 Q328 429 305 429 L299 429 Q298 429 294 429 Q291 428 289 428 Q260 428 260 460 Q260 474 269.5 485 Q279 496 292 496 Q298 496 313.5 492 Q329 488 337 488 Q345 488 361 491.5 Q377 495 385 495 Q401 495 401 468 Q401 454 401 454 Q399 423 399 374 L399 159 Q399 96 403 79 Q407 62 423 62 L428 62 Q435 63 444 63 Q470 63 470 31 Q470 -4 440 -4 Q432 -4 415 -1 Q398 2 389 2 Q382 2 368.5 -1.5 Q355 -5 349 -5 Q332 -5 332 25 L332 46 Z " />
<glyph glyph-name="v" unicode="v" horiz-adv-x="463" d="M152 379 L231 95 L311 379 Q319 407 319 416 Q319 431 301 431 L293 431 Q289 430 282 430 Q252 430 252 461 Q252 495 283 495 Q293 495 318 490 Q340 488 356 488 Q370 488 397 491.5 Q424 495 437 495 Q467 495 467 461 Q467 429 440 429 Q430 429 426.5 430 Q423 431 420 431 Q403 431 393 409 Q393 408 382 372 L279 41 Q269 9 259.5 -2 Q250 -13 232 -13 Q213 -13 203.5 -2 Q194 9 184 41 L82 372 Q71 406 70 409 Q60 431 43 431 Q41 431 37 430 Q33 429 23 429 Q-4 429 -4 461 Q-4 495 26 495 Q40 495 66.5 491.5 Q93 488 107 488 Q123 488 146.5 491.5 Q170 495 180 495 Q211 495 211 460 Q211 430 181 430 Q174 430 170 431 L161 431 Q144 431 144 415 Q144 408 152 379 Z " />
<glyph glyph-name="w" unicode="w" horiz-adv-x="629" d="M150 370 L207 87 L268 442 Q277 495 317 495 Q339 495 349.5 484 Q360 473 366 442 L436 87 L484 363 Q489 392 489 407 Q489 429 468 429 L466 429 Q462 429 452 428 Q426 428 426 461 Q426 495 454 495 Q467 495 492 490 Q517 485 531 485 Q545 485 569 490 Q593 495 605 495 Q633 495 633 462 Q633 430 596 430 Q577 430 566.5 409 Q556 388 544 327 L489 42 Q478 -13 436 -13 Q396 -13 383 51 L317 370 L254 42 Q243 -13 204 -13 Q167 -13 154 42 L74 380 Q67 408 64 413 Q56 430 39 430 L36 430 L22 429 Q12 428 4 439.5 Q-4 451 -4 462 Q-4 495 28 495 Q34 495 62 490 Q77 486 98 486 Q112 486 138.5 490.5 Q165 495 179 495 Q208 495 208 463 Q208 429 178 429 L165 429 Q145 429 145 407 Q145 395 150 370 Z " />
<glyph glyph-name="x" unicode="x" horiz-adv-x="487" d="M123 137 L201 257 L131 371 Q112 401 106 409 Q88 430 67 430 L62 430 Q55 429 47 429 Q17 429 17 460 Q17 474 27 484.5 Q37 495 50 495 Q61 495 83 492 Q105 489 118 489 Q141 489 163.5 492 Q186 495 197 495 Q232 495 232 462 Q232 429 197 429 Q186 429 186 420 Q186 419 201 394 L247 317 L310 412 Q314 419 314 424 Q314 430 307 430 L303 430 Q299 429 294 429 Q263 429 263 461 Q263 495 295 495 Q308 495 333.5 491 Q359 487 372 487 Q385 487 409.5 491 Q434 495 445 495 Q476 495 476 462 Q476 448 466.5 438 Q457 428 444 428 Q448 428 434 429 Q424 430 420 430 Q403 430 385 406 L366 381 L285 257 L390 89 Q408 62 430 62 L434 62 Q441 63 449 63 Q478 63 478 30 Q478 16 468 5.5 Q458 -5 445 -5 Q436 -5 403 1 Q392 3 368 3 Q336 3 328 1 Q288 -5 288 -5 Q256 -5 256 30 Q256 64 289 64 L295 64 Q299 63 305 63 Q315 63 315 71 Q315 79 302 100 L285 127 L241 195 L178 102 L165 85 Q160 78 160 72 Q160 61 175 61 L180 61 Q184 62 191 62 Q221 62 221 29 Q221 -5 189 -5 Q179 -5 163 -2 Q142 1 136 2 Q122 3 104 3 Q90 3 70 1 Q39 -5 32 -5 Q18 -5 8.5 5 Q-1 15 -1 29 Q-1 63 31 63 Q38 63 42 62 Q44 62 48 62 Q52 61 54 61 Q74 61 123 137 Z " />
<glyph glyph-name="y" unicode="y" horiz-adv-x="470" d="M166 378 L243 81 L320 401 Q323 414 323 418 Q323 431 305 431 Q301 431 299 430 Q293 429 285 429 Q273 429 264 439 Q255 449 255 462 Q255 495 289 495 Q302 495 328.5 492 Q355 489 369 489 Q382 489 406.5 492 Q431 495 443 495 Q475 495 475 462 Q475 430 442 430 Q441 430 437 431 Q433 431 431 431 Q421 433 419 433 Q404 433 395 402 L383 361 L299 71 Q256 -76 212.5 -136 Q169 -196 103 -196 Q56 -196 24.5 -165 Q-7 -134 -7 -87 Q-7 -58 8 -38.5 Q23 -19 46 -19 Q66 -19 78.5 -33 Q91 -47 91 -69 Q91 -96 72 -110 Q84 -126 105 -126 Q140 -126 168.5 -85.5 Q197 -45 197 6 Q197 18 193 31 L183 63 L86 389 Q73 431 48 431 L42 431 Q33 429 27 429 Q16 429 7.5 439 Q-1 449 -1 463 Q-1 495 31 495 Q44 495 70 490 Q96 485 110 485 Q124 485 151.5 490 Q179 495 192 495 Q223 495 223 463 Q223 428 194 428 Q187 428 181 429 Q179 430 174 430 Q159 430 159 416 Q159 409 160 405 L166 378 Z " />
<glyph glyph-name="z" unicode="z" horiz-adv-x="428" d="M59 118 L300 434 L186 434 Q145 434 131 428 Q109 418 109 383 Q109 371 109.5 365.5 Q110 360 111 353 Q111 345 111 342 Q111 303 79 303 Q47 303 47 338 Q47 350 49.5 374.5 Q52 399 52 411 Q52 420 50 438.5 Q48 457 48 466 Q48 500 84 500 Q89 500 111 498 Q120 496 161 496 Q165 496 178 496 Q195 495 206 495 Q230 495 272 496 Q319 497 337 497 Q388 497 388 457 Q388 432 370 409 L106 66 L239 66 Q282 66 293 70 Q319 78 319 112 Q319 104 317 148 Q316 166 316 170 Q316 220 350 220 Q379 220 379 185 Q379 169 376.5 136 Q374 103 374 87 Q374 79 375 61.5 Q376 44 376 36 Q376 -4 337 -4 Q334 -4 325 -4 Q316 -3 308 -2.5 Q300 -2 259 -1 L212 0 L88 -3 Q29 -3 29 48 Q29 79 59 118 Z " />
<glyph glyph-name="braceleft" unicode="&#x7b;" horiz-adv-x="500" d="M272 360 Q272 312 258.5 287.5 Q245 263 210 245 Q245 227 258.5 201 Q272 175 272 128 L272 -38 Q272 -94 290.5 -112 Q309 -130 367 -131 L367 -187 Q355 -188 344 -188 Q268 -188 236.5 -154 Q205 -120 205 -40 L205 126 Q205 170 192.5 191 Q180 212 148 221 L148 274 Q205 289 205 364 L205 542 Q205 615 237.5 647 Q270 679 344 679 L367 679 L367 622 Q310 621 291 603 Q272 585 272 533 L272 360 Z " />
<glyph glyph-name="bar" unicode="&#x7c;" horiz-adv-x="500" d="M217 -250 L217 750 L283 750 L283 -250 L217 -250 Z " />
<glyph glyph-name="braceright" unicode="&#x7d;" horiz-adv-x="500" d="M238 131 Q238 179 251 203.5 Q264 228 300 246 Q265 264 251.5 290 Q238 316 238 363 L238 530 Q238 585 219 603 Q200 621 143 622 L143 679 L166 679 Q241 679 273 645 Q305 611 305 531 L305 365 Q305 321 318 300 Q331 279 362 271 L362 218 Q305 201 305 128 L305 -51 Q305 -123 272 -155.5 Q239 -188 166 -188 Q155 -188 143 -187 L143 -131 Q200 -130 219 -112 Q238 -94 238 -42 L238 131 Z " />
<glyph glyph-name="asciitilde" unicode="&#x7e;" horiz-adv-x="667" d="M224 658 Q174 658 133 585 L93 611 Q125 673 155 698 Q185 723 229 723 Q267 723 342 688 Q410 656 439 656 Q491 656 532 725 L573 701 Q518 591 432 591 Q399 591 350 613 L292 639 Q250 658 224 658 Z " />
<glyph glyph-name="Adieresis" unicode="&#xc4;" horiz-adv-x="564" d="M123 202 L239 625 Q248 655 254 663 Q265 680 288 680 Q316 680 326 666.5 Q336 653 351 592 L466 135 Q478 92 486 78.5 Q494 65 508 65 Q512 65 526 67 Q529 67 533 68 Q537 68 538 68 Q570 68 570 34 Q570 -5 536 -5 Q532 -5 490 3 Q469 7 446 7 Q428 7 396.5 1 Q365 -5 354 -5 Q340 -5 329 6 Q318 17 318 33 Q318 68 351 68 Q357 68 360 67 Q363 67 367 67 Q371 66 372 66 Q395 66 395 98 Q395 115 389 140 L371 214 Q367 230 363 233.5 Q359 237 346 237 L225 237 Q204 237 195 202 L177 131 Q170 103 170 86 Q170 67 188 67 Q195 67 198 67.5 Q201 68 205 69 Q210 69 211 69 Q243 69 243 33 Q243 -5 210 -5 Q197 -5 169 1 Q141 7 125 7 Q103 7 73 1 Q43 -5 31 -5 Q-5 -5 -5 32 Q-5 68 26 68 Q32 68 42 66 Q52 64 57 64 Q73 64 87.5 94 Q102 124 123 202 Z M214 726 Q194 726 180 743 Q166 760 166 785 Q166 811 180 828 Q194 845 214 845 Q235 845 248.5 828.5 Q262 812 262 786 Q262 760 248.5 743 Q235 726 214 726 Z M370 726 Q350 726 336 743 Q322 760 322 785 Q322 811 336 828 Q350 845 370 845 Q391 845 404.5 828.5 Q418 812 418 786 Q418 760 404.5 743 Q391 726 370 726 Z M346 327 L291 574 L227 327 Q225 319 225 316 Q225 303 244 303 L331 303 Q348 303 348 315 Q348 318 346 327 Z " />
<glyph glyph-name="Aring" unicode="&#xc5;" horiz-adv-x="564" d="M123 202 L239 625 Q248 655 254 663 Q265 680 288 680 Q316 680 326 666.5 Q336 653 351 592 L466 135 Q478 92 486 78.5 Q494 65 508 65 Q512 65 526 67 Q529 67 533 68 Q537 68 538 68 Q570 68 570 34 Q570 -5 536 -5 Q532 -5 490 3 Q469 7 446 7 Q428 7 396.5 1 Q365 -5 354 -5 Q340 -5 329 6 Q318 17 318 33 Q318 68 351 68 Q357 68 360 67 Q363 67 367 67 Q371 66 372 66 Q395 66 395 98 Q395 115 389 140 L371 214 Q367 230 363 233.5 Q359 237 346 237 L225 237 Q204 237 195 202 L177 131 Q170 103 170 86 Q170 67 188 67 Q195 67 198 67.5 Q201 68 205 69 Q210 69 211 69 Q243 69 243 33 Q243 -5 210 -5 Q197 -5 169 1 Q141 7 125 7 Q103 7 73 1 Q43 -5 31 -5 Q-5 -5 -5 32 Q-5 68 26 68 Q32 68 42 66 Q52 64 57 64 Q73 64 87.5 94 Q102 124 123 202 Z M289 711 Q261 711 242 732 Q223 753 223 785 Q223 817 242 837.5 Q261 858 289 858 Q317 858 336 837.5 Q355 817 355 785 Q355 753 336 732 Q317 711 289 711 Z M346 327 L291 574 L227 327 Q225 319 225 316 Q225 303 244 303 L331 303 Q348 303 348 315 Q348 318 346 327 Z M289 824 Q277 824 268 812.5 Q259 801 259 785 Q259 746 289 746 Q318 746 318 785 Q318 801 309.5 812.5 Q301 824 289 824 Z " />
<glyph glyph-name="Ccedilla" unicode="&#xc7;" horiz-adv-x="514" d="M420 65 Q370 -2 276 -11 L265 -50 Q269 -50 275 -50 Q281 -49 284 -49 Q322 -49 346 -71.5 Q370 -94 370 -130 Q370 -171 341 -197 Q312 -223 267 -223 Q229 -223 200 -205 Q171 -187 171 -164 Q171 -140 191 -140 Q198 -140 201 -144 L219 -158 Q241 -175 268 -175 Q286 -175 297.5 -163 Q309 -151 309 -134 Q309 -117 297 -105 Q285 -93 268 -93 Q254 -93 235 -100 Q225 -102 224 -102 Q210 -102 210 -86 Q210 -81 213 -75 L235 -11 Q142 10 97 88 Q40 186 40 331 Q40 487 102 583.5 Q164 680 265 680 Q340 680 392 615 Q390 633 390 633 Q390 680 422 680 Q451 680 451 642 Q451 641 446 577 Q444 556 444 529 Q444 508 447 469 Q451 417 451 415 Q451 372 418 372 Q383 372 383 411 Q383 418 384.5 432 Q386 446 386 453 Q386 526 354.5 567.5 Q323 609 268 609 Q198 609 156.5 535 Q115 461 115 337 Q115 213 158 136.5 Q201 60 272 60 Q327 60 361.5 100 Q396 140 402 210 Q405 243 413 255 Q421 267 441 267 Q474 267 474 233 Q474 137 420 65 Z " />
<glyph glyph-name="Eacute" unicode="&#xc9;" horiz-adv-x="539" d="M191 497 L191 435 L192 414 Q193 386 211 386 L250 386 Q291 386 291 433 Q291 448 290 458 Q287 487 287 491 Q287 529 317 529 Q346 529 346 482 Q346 461 346 461 L342 407 Q340 380 340 352 Q340 303 345 254 Q347 234 347 228 Q347 188 317 188 Q288 188 288 229 Q288 238 289.5 257 Q291 276 291 285 Q291 327 253 327 L211 327 Q197 327 194 321 Q191 315 191 287 L191 217 Q191 206 192 166 Q192 166 192 118 Q192 84 209 75 Q221 69 258 69 L312 69 Q378 69 399 87 Q420 105 420 162 Q420 175 418 200.5 Q416 226 416 239 Q416 284 449 284 Q482 284 482 244 Q482 237 480 211 Q474 177 474 133 Q474 119 475 90 Q476 61 476 47 Q476 20 465 9.5 Q454 -1 425 -1 Q408 -1 382 2 Q339 7 256 7 Q249 7 175 4 Q134 2 117 0 Q81 -5 65 -5 Q26 -5 26 35 Q26 68 58 68 Q68 68 73 66 Q89 64 91 64 Q110 64 115 93.5 Q120 123 120 238 L120 428 Q120 544 115 573.5 Q110 603 91 603 Q86 603 75 600.5 Q64 598 58 598 Q26 598 26 632 Q26 671 64 671 Q73 671 130 663 Q151 660 182 660 Q261 660 350 667 Q375 669 415 669 Q459 669 464 646 Q466 636 466 618 Q466 604 465 581 Q462 517 465 477 L468 429 Q468 388 437 388 Q403 388 403 433 Q403 446 404 470.5 Q405 495 405 508 Q405 563 389 582 Q373 601 327 601 L250 601 Q210 601 200.5 584 Q191 567 191 497 Z M220 791 L291 857 Q317 881 340 881 Q355 881 366.5 868.5 Q378 856 378 839 Q378 822 366.5 810 Q355 798 319 779 L220 726 Q199 715 194 715 Q171 715 171 735 Q171 749 192 767 Q201 775 220 791 Z " />
<glyph glyph-name="Ntilde" unicode="&#xd1;" horiz-adv-x="584" d="M230 640 L413 97 L413 428 Q413 528 413 527 Q408 603 384 603 Q378 603 367.5 600.5 Q357 598 351 598 Q337 598 327.5 608 Q318 618 318 632 Q318 648 329 659.5 Q340 671 356 671 Q369 671 401 664 Q419 660 446 660 Q476 660 492 664 Q521 671 532 671 Q545 671 554.5 660 Q564 649 564 633 Q564 598 534 598 Q530 598 521 599.5 Q512 601 507 601 Q485 601 482 555 L479 506 L478 431 L478 64 Q478 -6 427 -6 Q382 -6 361 57 L186 579 L186 238 Q186 123 191 93.5 Q196 64 215 64 Q218 64 232 66 Q238 68 248 68 Q280 68 280 35 Q280 19 269 7 Q258 -5 243 -5 Q239 -5 201 4 Q188 7 158 7 Q133 7 107 2 Q70 -5 63 -5 Q47 -5 36.5 6.5 Q26 18 26 35 Q26 68 58 68 Q68 68 73 66 Q89 64 91 64 Q110 64 115 93.5 Q120 123 120 238 L120 428 Q120 544 115 573.5 Q110 603 91 603 Q86 603 75 600.5 Q64 598 58 598 Q26 598 26 632 Q26 649 36.5 660 Q47 671 63 671 Q74 671 101 665 Q123 660 148 660 Q152 660 190 666 Q199 667 205 667 Q221 667 230 640 Z M377 819 Q391 819 401 826 L418 843 Q425 848 432 848 Q445 848 445 836 Q445 816 420.5 778 Q396 740 358 740 Q323 740 282 758 L248 773 Q230 781 213 781 Q195 781 176 762 Q165 753 160 753 Q145 753 145 770 Q145 787 168.5 822 Q192 857 229 857 Q261 857 307 839 L340 826 Q358 819 377 819 Z " />
<glyph glyph-name="Odieresis" unicode="&#xd6;" horiz-adv-x="509" d="M255 -13 Q157 -13 98.5 81 Q40 175 40 333 Q40 491 98.5 585.5 Q157 680 255 680 Q353 680 411 586 Q469 492 469 333 Q469 175 411 81 Q353 -13 255 -13 Z M177 726 Q156 726 142.5 742.5 Q129 759 129 785 Q129 811 142.5 828 Q156 845 177 845 Q197 845 211 828 Q225 811 225 786 Q225 760 211 743 Q197 726 177 726 Z M333 726 Q312 726 298.5 742.5 Q285 759 285 785 Q285 811 298.5 828 Q312 845 333 845 Q353 845 367 828 Q381 811 381 786 Q381 760 367 743 Q353 726 333 726 Z M256 610 Q189 610 152.5 537 Q116 464 116 333 Q116 204 152.5 130.5 Q189 57 253 57 Q319 57 356 130 Q393 203 393 333 Q393 462 356.5 536 Q320 610 256 610 Z " />
<glyph glyph-name="Udieresis" unicode="&#xdc;" horiz-adv-x="575" d="M102 379 L102 535 Q102 603 73 603 Q69 603 61 601.5 Q53 600 49 600 Q36 600 27 609.5 Q18 619 18 633 Q18 672 55 672 Q69 672 90 667 Q120 660 140 660 Q156 660 185 665.5 Q214 671 227 671 Q243 671 254 659.5 Q265 648 265 632 Q265 618 255.5 608 Q246 598 232 598 Q226 598 215.5 600.5 Q205 603 199 603 Q175 603 170 527 Q170 528 170 428 L170 283 Q170 176 181 132 Q189 98 219 76.5 Q249 55 287 55 Q325 55 354 76.5 Q383 98 393 135 Q404 176 404 283 L404 428 Q404 528 404 527 Q399 603 375 603 Q369 603 358.5 600.5 Q348 598 342 598 Q328 598 318.5 608 Q309 618 309 632 Q309 649 320.5 660 Q332 671 348 671 Q362 671 390 665.5 Q418 660 432 660 Q447 660 476 666.5 Q505 673 520 673 Q555 673 555 635 Q555 602 523 602 L505 602 Q484 602 478.5 584 Q473 566 473 494 L473 401 Q473 375 474 322.5 Q475 270 475 244 Q475 130 449 77 Q428 35 382.5 11 Q337 -13 280 -13 Q228 -13 186 8.5 Q144 30 126 65 Q100 117 100 243 Q100 288 100 288 Q102 357 102 379 Z M209 726 Q189 726 175 743 Q161 760 161 785 Q161 811 174.5 828 Q188 845 209 845 Q230 845 243.5 828.5 Q257 812 257 786 Q257 760 243.5 743 Q230 726 209 726 Z M365 726 Q345 726 331 743 Q317 760 317 785 Q317 811 330.5 828 Q344 845 365 845 Q386 845 399.5 828.5 Q413 812 413 786 Q413 760 399.5 743 Q386 726 365 726 Z " />
<glyph glyph-name="aacute" unicode="&#xe1;" horiz-adv-x="443" d="M354 -13 Q297 -13 281 47 Q238 -13 166 -13 Q108 -13 70.5 28 Q33 69 33 133 Q33 215 84 249 Q120 273 195 283 Q238 289 254 305.5 Q270 322 270 361 Q270 442 201 442 Q183 442 160 432 Q134 420 134 403 Q134 398 140 388 Q152 369 152 352 Q152 309 107 309 Q55 309 55 374 Q55 429 96.5 465.5 Q138 502 201 502 Q243 502 277 485 Q315 465 329 429 Q340 399 340 328 L341 83 Q342 54 358 54 Q380 54 380 125 Q380 138 379 144 L379 154 Q379 197 408 197 Q441 197 441 140 Q441 53 422 20 Q403 -13 354 -13 Z M130 583 Q130 597 144 611 L210 678 Q236 704 254 704 Q270 704 280.5 691 Q291 678 291 659 Q291 628 253 611 L166 571 Q153 565 147 565 Q130 565 130 583 Z M269 149 Q273 172 274 239 Q246 227 219 222 L174 214 Q101 201 101 131 Q101 95 121.5 73 Q142 51 175 51 Q210 51 236 78 Q262 105 269 149 Z " />
<glyph glyph-name="agrave" unicode="&#xe0;" horiz-adv-x="443" d="M354 -13 Q297 -13 281 47 Q238 -13 166 -13 Q108 -13 70.5 28 Q33 69 33 133 Q33 215 84 249 Q120 273 195 283 Q238 289 254 305.5 Q270 322 270 361 Q270 442 201 442 Q183 442 160 432 Q134 420 134 403 Q134 398 140 388 Q152 369 152 352 Q152 309 107 309 Q55 309 55 374 Q55 429 96.5 465.5 Q138 502 201 502 Q243 502 277 485 Q315 465 329 429 Q340 399 340 328 L341 83 Q342 54 358 54 Q380 54 380 125 Q380 138 379 144 L379 154 Q379 197 408 197 Q441 197 441 140 Q441 53 422 20 Q403 -13 354 -13 Z M273 565 Q268 565 255 571 L167 611 Q130 628 130 659 Q130 678 140.5 691 Q151 704 167 704 Q184 704 210 678 L276 611 Q290 597 290 583 Q290 565 273 565 Z M269 149 Q273 172 274 239 Q246 227 219 222 L174 214 Q101 201 101 131 Q101 95 121.5 73 Q142 51 175 51 Q210 51 236 78 Q262 105 269 149 Z " />
<glyph glyph-name="acircumflex" unicode="&#xe2;" horiz-adv-x="443" d="M354 -13 Q297 -13 281 47 Q238 -13 166 -13 Q108 -13 70.5 28 Q33 69 33 133 Q33 215 84 249 Q120 273 195 283 Q238 289 254 305.5 Q270 322 270 361 Q270 442 201 442 Q183 442 160 432 Q134 420 134 403 Q134 398 140 388 Q152 369 152 352 Q152 309 107 309 Q55 309 55 374 Q55 429 96.5 465.5 Q138 502 201 502 Q243 502 277 485 Q315 465 329 429 Q340 399 340 328 L341 83 Q342 54 358 54 Q380 54 380 125 Q380 138 379 144 L379 154 Q379 197 408 197 Q441 197 441 140 Q441 53 422 20 Q403 -13 354 -13 Z M307 570 L211 613 L117 570 Q108 566 99 566 Q79 566 79 580 Q79 591 91 601 L193 688 Q204 697 212 697 Q218 697 229 688 L330 601 Q341 592 341 583 Q341 566 323 566 Q316 566 307 570 Z M269 149 Q273 172 274 239 Q246 227 219 222 L174 214 Q101 201 101 131 Q101 95 121.5 73 Q142 51 175 51 Q210 51 236 78 Q262 105 269 149 Z " />
<glyph glyph-name="adieresis" unicode="&#xe4;" horiz-adv-x="443" d="M354 -13 Q297 -13 281 47 Q238 -13 166 -13 Q108 -13 70.5 28 Q33 69 33 133 Q33 215 84 249 Q120 273 195 283 Q238 289 254 305.5 Q270 322 270 361 Q270 442 201 442 Q183 442 160 432 Q134 420 134 403 Q134 398 140 388 Q152 369 152 352 Q152 309 107 309 Q55 309 55 374 Q55 429 96.5 465.5 Q138 502 201 502 Q243 502 277 485 Q315 465 329 429 Q340 399 340 328 L341 83 Q342 54 358 54 Q380 54 380 125 Q380 138 379 144 L379 154 Q379 197 408 197 Q441 197 441 140 Q441 53 422 20 Q403 -13 354 -13 Z M128 562 Q80 562 80 622 Q80 681 128 681 Q177 681 177 622 Q177 562 128 562 Z M284 562 Q235 562 235 622 Q235 681 284 681 Q332 681 332 622 Q332 562 284 562 Z M269 149 Q273 172 274 239 Q246 227 219 222 L174 214 Q101 201 101 131 Q101 95 121.5 73 Q142 51 175 51 Q210 51 236 78 Q262 105 269 149 Z " />
<glyph glyph-name="atilde" unicode="&#xe3;" horiz-adv-x="443" d="M354 -13 Q297 -13 281 47 Q238 -13 166 -13 Q108 -13 70.5 28 Q33 69 33 133 Q33 215 84 249 Q120 273 195 283 Q238 289 254 305.5 Q270 322 270 361 Q270 442 201 442 Q183 442 160 432 Q134 420 134 403 Q134 398 140 388 Q152 369 152 352 Q152 309 107 309 Q55 309 55 374 Q55 429 96.5 465.5 Q138 502 201 502 Q243 502 277 485 Q315 465 329 429 Q340 399 340 328 L341 83 Q342 54 358 54 Q380 54 380 125 Q380 138 379 144 L379 154 Q379 197 408 197 Q441 197 441 140 Q441 53 422 20 Q403 -13 354 -13 Z M300 648 Q317 648 326 658 L344 679 Q350 686 359 686 Q374 686 374 671 Q374 647 347.5 609 Q321 571 280 571 Q252 571 207 591 L168 608 Q154 614 140 614 Q116 614 90 589 Q80 579 74 579 Q60 579 60 595 Q60 610 79 645 Q104 690 147 690 Q169 690 226 669 Q241 663 266 654 Q284 648 300 648 Z M269 149 Q273 172 274 239 Q246 227 219 222 L174 214 Q101 201 101 131 Q101 95 121.5 73 Q142 51 175 51 Q210 51 236 78 Q262 105 269 149 Z " />
<glyph glyph-name="aring" unicode="&#xe5;" horiz-adv-x="443" d="M354 -13 Q297 -13 281 47 Q238 -13 166 -13 Q108 -13 70.5 28 Q33 69 33 133 Q33 215 84 249 Q120 273 195 283 Q238 289 254 305.5 Q270 322 270 361 Q270 442 201 442 Q183 442 160 432 Q134 420 134 403 Q134 398 140 388 Q152 369 152 352 Q152 309 107 309 Q55 309 55 374 Q55 429 96.5 465.5 Q138 502 201 502 Q243 502 277 485 Q315 465 329 429 Q340 399 340 328 L341 83 Q342 54 358 54 Q380 54 380 125 Q380 138 379 144 L379 154 Q379 197 408 197 Q441 197 441 140 Q441 53 422 20 Q403 -13 354 -13 Z M204 556 Q172 556 151 579 Q130 602 130 637 Q130 672 151 694.5 Q172 717 204 717 Q236 717 256.5 694 Q277 671 277 636 Q277 601 256 578.5 Q235 556 204 556 Z M269 149 Q273 172 274 239 Q246 227 219 222 L174 214 Q101 201 101 131 Q101 95 121.5 73 Q142 51 175 51 Q210 51 236 78 Q262 105 269 149 Z M203 677 Q190 677 181 665 Q172 653 172 637 Q172 620 181 608 Q190 596 203 596 Q235 596 235 637 Q235 654 225.5 665.5 Q216 677 203 677 Z " />
<glyph glyph-name="ccedilla" unicode="&#xe7;" horiz-adv-x="405" d="M333.5 51.5 Q298 2 232 -12 L224 -37 Q226 -37 229 -37 Q232 -36 233 -36 Q295 -36 295 -101 Q295 -133 273.5 -153.5 Q252 -174 218 -174 Q190 -174 169.5 -160.5 Q149 -147 149 -129 Q149 -108 170 -108 Q177 -108 184 -114 L198 -126 Q205 -132 214 -132 Q225 -132 233.5 -122.5 Q242 -113 242 -101 Q242 -78 217 -78 Q207 -78 204 -80 L193 -87 Q191 -89 186 -89 Q168 -89 168 -74 Q168 -70 172 -59 L189 -12 Q116 0 76.5 66 Q37 132 37 242 Q37 362 84.5 432 Q132 502 214 502 Q278 502 318.5 459 Q359 416 359 350 Q359 313 342.5 289 Q326 265 300 265 Q280 265 265.5 280.5 Q251 296 251 318 Q251 358 286 370 Q269 437 215 437 Q166 437 137 383 Q108 329 108 238 Q108 159 138 107.5 Q168 56 214 56 Q245 56 270 85 Q295 114 299 156 Q302 184 305 192 Q313 207 334 207 Q369 207 369 161 Q369 101 333.5 51.5 Z " />
<glyph glyph-name="eacute" unicode="&#xe9;" horiz-adv-x="414" d="M377 286 Q377 249 372 240.5 Q367 232 345 232 L146 232 Q122 232 116 227.5 Q110 223 110 204 Q110 138 138 97 Q166 56 212 56 Q241 56 264 75 Q287 94 295 124 L304 158 Q311 186 339 186 Q371 186 371 150 Q371 85 322.5 36 Q274 -13 210 -13 Q131 -13 84 55.5 Q37 124 37 240 Q37 356 87 429 Q137 502 217 502 Q288 502 332.5 441.5 Q377 381 377 286 Z M127 583 Q127 597 141 611 L207 678 Q233 704 250 704 Q266 704 276.5 691 Q287 678 287 659 Q287 628 250 611 L163 571 Q150 565 144 565 Q127 565 127 583 Z M115 316 Q115 298 141 298 L267 298 Q291 298 297 302 Q303 306 303 322 Q303 370 277 402 Q251 434 213 434 Q154 434 128 368 Q118 343 116 325 Q115 321 115 316 Z " />
<glyph glyph-name="egrave" unicode="&#xe8;" horiz-adv-x="414" d="M377 286 Q377 249 372 240.5 Q367 232 345 232 L146 232 Q122 232 116 227.5 Q110 223 110 204 Q110 138 138 97 Q166 56 212 56 Q241 56 264 75 Q287 94 295 124 L304 158 Q311 186 339 186 Q371 186 371 150 Q371 85 322.5 36 Q274 -13 210 -13 Q131 -13 84 55.5 Q37 124 37 240 Q37 356 87 429 Q137 502 217 502 Q288 502 332.5 441.5 Q377 381 377 286 Z M270 565 Q264 565 251 571 L164 611 Q126 628 126 659 Q126 678 136.5 691 Q147 704 163 704 Q181 704 207 678 L273 611 Q287 597 287 583 Q287 565 270 565 Z M115 316 Q115 298 141 298 L267 298 Q291 298 297 302 Q303 306 303 322 Q303 370 277 402 Q251 434 213 434 Q154 434 128 368 Q118 343 116 325 Q115 321 115 316 Z " />
<glyph glyph-name="ecircumflex" unicode="&#xea;" horiz-adv-x="414" d="M377 286 Q377 249 372 240.5 Q367 232 345 232 L146 232 Q122 232 116 227.5 Q110 223 110 204 Q110 138 138 97 Q166 56 212 56 Q241 56 264 75 Q287 94 295 124 L304 158 Q311 186 339 186 Q371 186 371 150 Q371 85 322.5 36 Q274 -13 210 -13 Q131 -13 84 55.5 Q37 124 37 240 Q37 356 87 429 Q137 502 217 502 Q288 502 332.5 441.5 Q377 381 377 286 Z M317 570 L221 613 L127 570 Q118 566 109 566 Q89 566 89 580 Q89 591 101 601 L203 688 Q214 697 222 697 Q228 697 239 688 L340 601 Q351 592 351 583 Q351 566 333 566 Q326 566 317 570 Z M115 316 Q115 298 141 298 L267 298 Q291 298 297 302 Q303 306 303 322 Q303 370 277 402 Q251 434 213 434 Q154 434 128 368 Q118 343 116 325 Q115 321 115 316 Z " />
<glyph glyph-name="edieresis" unicode="&#xeb;" horiz-adv-x="414" d="M377 286 Q377 249 372 240.5 Q367 232 345 232 L146 232 Q122 232 116 227.5 Q110 223 110 204 Q110 138 138 97 Q166 56 212 56 Q241 56 264 75 Q287 94 295 124 L304 158 Q311 186 339 186 Q371 186 371 150 Q371 85 322.5 36 Q274 -13 210 -13 Q131 -13 84 55.5 Q37 124 37 240 Q37 356 87 429 Q137 502 217 502 Q288 502 332.5 441.5 Q377 381 377 286 Z M141 562 Q93 562 93 622 Q93 681 141 681 Q190 681 190 622 Q190 562 141 562 Z M297 562 Q248 562 248 622 Q248 681 297 681 Q345 681 345 622 Q345 562 297 562 Z M115 316 Q115 298 141 298 L267 298 Q291 298 297 302 Q303 306 303 322 Q303 370 277 402 Q251 434 213 434 Q154 434 128 368 Q118 343 116 325 Q115 321 115 316 Z " />
<glyph glyph-name="iacute" unicode="&#xed;" horiz-adv-x="248" d="M166 316 L166 252 L167 199 L167 156 Q167 91 170.5 76.5 Q174 62 190 62 L199 62 Q203 63 210 63 Q237 63 237 29 Q237 -5 205 -5 Q192 -5 166 -1 Q140 3 127 3 Q114 3 91.5 -1 Q69 -5 59 -5 Q27 -5 27 29 Q27 63 55 63 Q61 63 66 62 L75 62 Q91 62 94.5 76.5 Q98 91 98 156 L98 271 Q98 277 97 300.5 Q96 324 96 343 Q95 398 95 395 Q95 429 71 429 L65 429 Q64 429 60 429 Q57 428 55 428 Q26 428 26 460 Q26 474 35.5 485 Q45 496 58 496 Q61 496 81 491 Q93 488 102 488 Q111 488 128 491.5 Q145 495 153 495 Q169 495 169 471 L169 459 Q169 457 169 445 Q168 431 168 419 L166 316 Z M38 583 Q38 597 52 611 L118 678 Q144 704 161 704 Q177 704 187.5 691 Q198 678 198 659 Q198 628 161 611 L74 571 Q61 565 55 565 Q38 565 38 583 Z " />
<glyph glyph-name="igrave" unicode="&#xec;" horiz-adv-x="253" d="M169 316 L169 156 Q169 92 173 77 Q177 62 192 62 L201 62 Q206 63 213 63 Q224 63 232 53 Q240 43 240 29 Q240 -5 208 -5 Q196 -5 170 -1 Q144 3 130 3 Q117 3 93.5 -1 Q70 -5 61 -5 Q30 -5 30 29 Q30 63 57 63 Q64 63 68 62 L77 62 Q92 62 95 75.5 Q98 89 100 156 L101 199 L101 271 Q101 277 100 300.5 Q99 324 99 343 L98 395 Q97 429 74 429 L68 429 Q66 429 63 429 Q59 428 58 428 Q28 428 28 460 Q28 474 38 485 Q48 496 61 496 Q64 496 84 491 Q96 488 104 488 Q109 488 142 494 Q150 495 155 495 Q172 495 172 471 L172 459 Q172 457 171 419 L169 316 Z M173 565 Q168 565 155 571 L67 611 Q30 628 30 659 Q30 678 40.5 691 Q51 704 67 704 Q85 704 111 678 L177 611 Q191 597 191 583 Q191 565 173 565 Z " />
<glyph glyph-name="icircumflex" unicode="&#xee;" horiz-adv-x="253" d="M169 316 L169 156 Q169 92 173 77 Q177 62 192 62 L201 62 Q206 63 213 63 Q224 63 232 53 Q240 43 240 29 Q240 -5 208 -5 Q196 -5 170 -1 Q144 3 130 3 Q117 3 93.5 -1 Q70 -5 61 -5 Q30 -5 30 29 Q30 63 57 63 Q64 63 68 62 L77 62 Q92 62 95 75.5 Q98 89 100 156 L101 199 L101 271 Q101 277 100 300.5 Q99 324 99 343 L98 395 Q97 429 74 429 L68 429 Q66 429 63 429 Q59 428 58 428 Q28 428 28 460 Q28 474 38 485 Q48 496 61 496 Q64 496 84 491 Q96 488 104 488 Q109 488 142 494 Q150 495 155 495 Q172 495 172 471 L172 459 Q172 457 171 419 L169 316 Z M198 570 L121 613 L46 570 Q39 566 31 566 Q15 566 15 580 Q15 590 25 601 L107 688 Q115 697 122 697 Q128 697 136 688 L217 601 Q226 591 226 583 Q226 566 211 566 Q205 566 198 570 Z " />
<glyph glyph-name="idieresis" unicode="&#xef;" horiz-adv-x="248" d="M166 316 L166 252 L167 199 L167 156 Q167 91 170.5 76.5 Q174 62 190 62 L199 62 Q203 63 210 63 Q237 63 237 29 Q237 -5 205 -5 Q192 -5 166 -1 Q140 3 127 3 Q114 3 91.5 -1 Q69 -5 59 -5 Q27 -5 27 29 Q27 63 55 63 Q61 63 66 62 L75 62 Q91 62 94.5 76.5 Q98 91 98 156 L98 271 Q98 277 97 300.5 Q96 324 96 343 Q95 398 95 395 Q95 429 71 429 L65 429 Q64 429 60 429 Q57 428 55 428 Q26 428 26 460 Q26 474 35.5 485 Q45 496 58 496 Q61 496 81 491 Q93 488 102 488 Q111 488 128 491.5 Q145 495 153 495 Q169 495 169 471 L169 459 Q169 457 169 445 Q168 431 168 419 L166 316 Z M45 535 Q25 535 11.5 552 Q-2 569 -2 595 Q-2 618 13 636.5 Q28 655 47 655 Q67 655 81.5 637.5 Q96 620 96 596 Q96 571 81 553 Q66 535 45 535 Z M176 535 Q156 535 142.5 552.5 Q129 570 129 595 Q129 618 144.5 636.5 Q160 655 179 655 Q199 655 213 637.5 Q227 620 227 596 Q227 571 212 553 Q197 535 176 535 Z " />
<glyph glyph-name="ntilde" unicode="&#xf1;" horiz-adv-x="503" d="M165 450 Q208 502 282 502 Q365 502 400 445 Q425 404 425 299 L425 156 Q425 91 428.5 76.5 Q432 62 448 62 L457 62 Q462 63 468 63 Q495 63 495 29 Q495 -5 464 -5 Q453 -5 430.5 -1 Q408 3 396 3 Q383 3 357.5 -1 Q332 -5 319 -5 Q287 -5 287 29 Q287 43 295 53 Q303 63 314 63 Q321 63 326 62 L335 62 Q350 62 352.5 75.5 Q355 89 357 156 L358 199 L358 297 Q358 373 337 406 Q316 439 269 439 Q221 439 193 395.5 Q165 352 165 278 L165 156 Q165 91 168.5 76.5 Q172 62 188 62 L197 62 Q201 63 208 63 Q235 63 235 29 Q235 -5 204 -5 Q196 -5 166 1 Q146 3 129 3 Q108 3 91 0 Q63 -5 58 -5 Q27 -5 27 29 Q27 63 55 63 Q61 63 66 62 L75 62 Q91 62 94.5 76.5 Q98 91 98 156 L98 332 Q98 395 93.5 412 Q89 429 73 429 Q72 429 71 429 Q70 428 69 428 Q65 428 60 428 Q54 427 53 427 Q26 427 26 459 Q26 474 35 484.5 Q44 495 57 495 Q65 495 81.5 492 Q98 489 107 489 Q122 489 129 491 Q143 495 149 495 Q165 495 165 472 L165 450 Z M334 635 Q348 635 356 644 L371 661 Q379 667 384 667 Q396 667 396 654 Q396 635 374 603 Q352 571 317 571 Q295 571 257 588 Q244 594 224 602 Q211 607 200 607 Q181 607 160 586 Q152 578 146 578 Q135 578 135 591 Q135 606 150 633 Q171 670 207 670 Q227 670 273 652 Q286 648 306 640 Q323 635 334 635 Z " />
<glyph glyph-name="oacute" unicode="&#xf3;" horiz-adv-x="430" d="M215 -13 Q133 -13 85 56.5 Q37 126 37 244 Q37 362 85 432 Q133 502 215 502 Q297 502 345 432 Q393 362 393 244 Q393 126 345 56.5 Q297 -13 215 -13 Z M135 583 Q135 597 149 611 L215 678 Q241 704 258 704 Q274 704 284.5 691 Q295 678 295 659 Q295 628 258 611 L171 571 Q158 565 152 565 Q135 565 135 583 Z M215 435 Q166 435 137 382.5 Q108 330 108 244 Q108 158 137 106 Q166 54 215 54 Q264 54 293.5 106 Q323 158 323 244 Q323 330 293.5 382.5 Q264 435 215 435 Z " />
<glyph glyph-name="ograve" unicode="&#xf2;" horiz-adv-x="430" d="M215 -13 Q133 -13 85 56.5 Q37 126 37 244 Q37 362 85 432 Q133 502 215 502 Q297 502 345 432 Q393 362 393 244 Q393 126 345 56.5 Q297 -13 215 -13 Z M268 565 Q262 565 249 571 L162 611 Q124 628 124 659 Q124 704 162 704 Q179 704 205 678 L271 611 Q285 597 285 583 Q285 565 268 565 Z M215 435 Q166 435 137 382.5 Q108 330 108 244 Q108 158 137 106 Q166 54 215 54 Q264 54 293.5 106 Q323 158 323 244 Q323 330 293.5 382.5 Q264 435 215 435 Z " />
<glyph glyph-name="ocircumflex" unicode="&#xf4;" horiz-adv-x="430" d="M215 -13 Q133 -13 85 56.5 Q37 126 37 244 Q37 362 85 432 Q133 502 215 502 Q297 502 345 432 Q393 362 393 244 Q393 126 345 56.5 Q297 -13 215 -13 Z M312 570 L215 613 L122 570 Q113 566 104 566 Q83 566 83 580 Q83 590 96 601 L198 688 Q209 697 217 697 Q223 697 234 688 L335 601 Q346 592 346 583 Q346 566 328 566 Q321 566 312 570 Z M215 435 Q166 435 137 382.5 Q108 330 108 244 Q108 158 137 106 Q166 54 215 54 Q264 54 293.5 106 Q323 158 323 244 Q323 330 293.5 382.5 Q264 435 215 435 Z " />
<glyph glyph-name="odieresis" unicode="&#xf6;" horiz-adv-x="430" d="M215 -13 Q133 -13 85 56.5 Q37 126 37 244 Q37 362 85 432 Q133 502 215 502 Q297 502 345 432 Q393 362 393 244 Q393 126 345 56.5 Q297 -13 215 -13 Z M137 562 Q89 562 89 622 Q89 681 137 681 Q186 681 186 622 Q186 562 137 562 Z M293 562 Q244 562 244 622 Q244 681 293 681 Q341 681 341 622 Q341 562 293 562 Z M215 435 Q166 435 137 382.5 Q108 330 108 244 Q108 158 137 106 Q166 54 215 54 Q264 54 293.5 106 Q323 158 323 244 Q323 330 293.5 382.5 Q264 435 215 435 Z " />
<glyph glyph-name="otilde" unicode="&#xf5;" horiz-adv-x="430" d="M215 -13 Q133 -13 85 56.5 Q37 126 37 244 Q37 362 85 432 Q133 502 215 502 Q297 502 345 432 Q393 362 393 244 Q393 126 345 56.5 Q297 -13 215 -13 Z M298 648 Q315 648 324 658 L342 679 Q348 686 357 686 Q372 686 372 671 Q372 647 345.5 609 Q319 571 278 571 Q250 571 205 591 L166 608 Q152 614 138 614 Q114 614 88 589 Q78 579 72 579 Q58 579 58 595 Q58 610 77 645 Q102 690 145 690 Q167 690 224 669 Q239 663 264 654 Q282 648 298 648 Z M215 435 Q166 435 137 382.5 Q108 330 108 244 Q108 158 137 106 Q166 54 215 54 Q264 54 293.5 106 Q323 158 323 244 Q323 330 293.5 382.5 Q264 435 215 435 Z " />
<glyph glyph-name="uacute" unicode="&#xfa;" horiz-adv-x="480" d="M332 46 Q288 -13 220 -13 Q182 -13 146 8 Q110 29 94.5 61.5 Q79 94 78 133 Q78 133 78 199 L78 332 Q78 395 73.5 412 Q69 429 53 429 Q52 429 51 429 Q50 428 49 428 Q45 428 40 428 Q34 427 33 427 Q6 427 6 459 Q6 474 15 484.5 Q24 495 37 495 Q45 495 61.5 492 Q78 489 86 489 Q101 489 109 491 L126 495 Q128 495 130 496 Q132 496 133 496 Q149 496 149 478 L149 468 L148 425 L146 295 L146 209 Q146 126 166 91.5 Q186 57 234 57 Q332 57 332 243 L332 271 Q332 315 331 343 L329 395 Q328 429 305 429 L299 429 Q298 429 294 429 Q291 428 289 428 Q260 428 260 460 Q260 474 269.5 485 Q279 496 292 496 Q298 496 313.5 492 Q329 488 337 488 Q345 488 361 491.5 Q377 495 385 495 Q401 495 401 468 Q401 454 401 454 Q399 423 399 374 L399 159 Q399 96 403 79 Q407 62 423 62 L428 62 Q435 63 444 63 Q470 63 470 31 Q470 -4 440 -4 Q432 -4 415 -1 Q398 2 389 2 Q382 2 368.5 -1.5 Q355 -5 349 -5 Q332 -5 332 25 L332 46 Z M155 583 Q155 597 169 611 L235 678 Q261 704 278 704 Q316 704 316 659 Q316 628 278 611 L191 571 Q178 565 172 565 Q155 565 155 583 Z " />
<glyph glyph-name="ugrave" unicode="&#xf9;" horiz-adv-x="480" d="M332 46 Q288 -13 220 -13 Q182 -13 146 8 Q110 29 94.5 61.5 Q79 94 78 133 Q78 133 78 199 L78 332 Q78 395 73.5 412 Q69 429 53 429 Q52 429 51 429 Q50 428 49 428 Q45 428 40 428 Q34 427 33 427 Q6 427 6 459 Q6 474 15 484.5 Q24 495 37 495 Q45 495 61.5 492 Q78 489 86 489 Q101 489 109 491 L126 495 Q128 495 130 496 Q132 496 133 496 Q149 496 149 478 L149 468 L148 425 L146 295 L146 209 Q146 126 166 91.5 Q186 57 234 57 Q332 57 332 243 L332 271 Q332 315 331 343 L329 395 Q328 429 305 429 L299 429 Q298 429 294 429 Q291 428 289 428 Q260 428 260 460 Q260 474 269.5 485 Q279 496 292 496 Q298 496 313.5 492 Q329 488 337 488 Q345 488 361 491.5 Q377 495 385 495 Q401 495 401 468 Q401 454 401 454 Q399 423 399 374 L399 159 Q399 96 403 79 Q407 62 423 62 L428 62 Q435 63 444 63 Q470 63 470 31 Q470 -4 440 -4 Q432 -4 415 -1 Q398 2 389 2 Q382 2 368.5 -1.5 Q355 -5 349 -5 Q332 -5 332 25 L332 46 Z M278 565 Q272 565 259 571 L172 611 Q135 628 135 659 Q135 678 145.5 691 Q156 704 172 704 Q189 704 215 678 L281 611 Q295 597 295 583 Q295 565 278 565 Z " />
<glyph glyph-name="ucircumflex" unicode="&#xfb;" horiz-adv-x="480" d="M332 46 Q288 -13 220 -13 Q182 -13 146 8 Q110 29 94.5 61.5 Q79 94 78 133 Q78 133 78 199 L78 332 Q78 395 73.5 412 Q69 429 53 429 Q52 429 51 429 Q50 428 49 428 Q45 428 40 428 Q34 427 33 427 Q6 427 6 459 Q6 474 15 484.5 Q24 495 37 495 Q45 495 61.5 492 Q78 489 86 489 Q101 489 109 491 L126 495 Q128 495 130 496 Q132 496 133 496 Q149 496 149 478 L149 468 L148 425 L146 295 L146 209 Q146 126 166 91.5 Q186 57 234 57 Q332 57 332 243 L332 271 Q332 315 331 343 L329 395 Q328 429 305 429 L299 429 Q298 429 294 429 Q291 428 289 428 Q260 428 260 460 Q260 474 269.5 485 Q279 496 292 496 Q298 496 313.5 492 Q329 488 337 488 Q345 488 361 491.5 Q377 495 385 495 Q401 495 401 468 Q401 454 401 454 Q399 423 399 374 L399 159 Q399 96 403 79 Q407 62 423 62 L428 62 Q435 63 444 63 Q470 63 470 31 Q470 -4 440 -4 Q432 -4 415 -1 Q398 2 389 2 Q382 2 368.5 -1.5 Q355 -5 349 -5 Q332 -5 332 25 L332 46 Z M322 570 L226 613 L132 570 Q123 566 114 566 Q94 566 94 580 Q94 591 106 601 L208 688 Q219 697 227 697 Q233 697 244 688 L345 601 Q356 592 356 583 Q356 566 338 566 Q331 566 322 570 Z " />
<glyph glyph-name="udieresis" unicode="&#xfc;" horiz-adv-x="480" d="M332 46 Q288 -13 220 -13 Q182 -13 146 8 Q110 29 94.5 61.5 Q79 94 78 133 Q78 133 78 199 L78 332 Q78 395 73.5 412 Q69 429 53 429 Q52 429 51 429 Q50 428 49 428 Q45 428 40 428 Q34 427 33 427 Q6 427 6 459 Q6 474 15 484.5 Q24 495 37 495 Q45 495 61.5 492 Q78 489 86 489 Q101 489 109 491 L126 495 Q128 495 130 496 Q132 496 133 496 Q149 496 149 478 L149 468 L148 425 L146 295 L146 209 Q146 126 166 91.5 Q186 57 234 57 Q332 57 332 243 L332 271 Q332 315 331 343 L329 395 Q328 429 305 429 L299 429 Q298 429 294 429 Q291 428 289 428 Q260 428 260 460 Q260 474 269.5 485 Q279 496 292 496 Q298 496 313.5 492 Q329 488 337 488 Q345 488 361 491.5 Q377 495 385 495 Q401 495 401 468 Q401 454 401 454 Q399 423 399 374 L399 159 Q399 96 403 79 Q407 62 423 62 L428 62 Q435 63 444 63 Q470 63 470 31 Q470 -4 440 -4 Q432 -4 415 -1 Q398 2 389 2 Q382 2 368.5 -1.5 Q355 -5 349 -5 Q332 -5 332 25 L332 46 Z M144 562 Q96 562 96 622 Q96 681 144 681 Q193 681 193 622 Q193 562 144 562 Z M299 562 Q251 562 251 622 Q251 681 300 681 Q348 681 348 622 Q348 562 299 562 Z " />
<glyph glyph-name="dagger" unicode="&#x2020;" horiz-adv-x="500" d="M226 442 L232 461 Q222 459 217 456 Q217 456 135 437 Q122 434 106 434 Q46 434 46 476 Q46 519 98 519 Q112 519 137 515 Q168 510 176 508 L216 498 L232 496 Q230 506 230 508 Q227 517 218 550 Q205 598 205 624 Q205 680 250 680 Q295 680 295 625 Q295 596 282 550 L270 508 Q270 506 268 496 L284 498 L324 508 Q336 511 363 515 Q390 519 399 519 L402 519 Q454 519 454 476 Q454 434 396 434 Q351 434 268 461 L274 442 L290 399 Q298 377 298 350 Q298 340 297 336 L295 315 L260 -113 Q258 -133 250 -133 Q242 -133 240 -113 L203 336 Q202 340 202 350 Q202 378 210 399 L226 442 Z " />
<glyph glyph-name="degree" unicode="&#xb0;" horiz-adv-x="500" d="M250 396 Q192 396 151 436.5 Q110 477 110 533 Q110 590 151 630 Q192 670 250 670 Q308 670 349 630 Q390 590 390 533 Q390 477 349 436.5 Q308 396 250 396 Z M250 627 Q210 627 182 599.5 Q154 572 154 533 Q154 494 182 466.5 Q210 439 250 439 Q290 439 318 466.5 Q346 494 346 533 Q346 572 318 599.5 Q290 627 250 627 Z " />
<glyph glyph-name="cent" unicode="&#xa2;" horiz-adv-x="500" d="M346 459 Q329 518 277 525 L277 147 Q342 157 352 222 L358 262 Q363 294 392 294 Q426 294 426 249 Q426 199 400 155 Q362 91 280 75 L282 -13 Q282 -40 253 -40 Q226 -40 226 -13 L226 -9 L228 75 Q74 100 74 322 Q74 465 138 541 Q168 577 229 592 L224 688 Q224 716 252 716 Q283 716 283 684 L283 682 L280 593 Q333 583 360 564 Q418 522 418 438 Q418 400 401.5 376.5 Q385 353 357 353 Q337 353 323.5 368 Q310 383 310 406 Q310 446 346 459 Z M230 148 L230 522 Q191 502 173 464 Q145 403 145 324 Q145 178 230 148 Z " />
<glyph glyph-name="sterling" unicode="&#xa3;" horiz-adv-x="500" d="M211 498 Q211 459 231 400 L362 400 Q399 400 405 388 Q408 382 408 370 Q408 342 366 342 L249 342 Q284 267 284 203 Q284 168 272 127 Q277 122 285 113 Q342 52 365 52 Q405 52 428 119 Q436 143 436 163 Q436 204 406 204 Q391 204 378 184.5 Q365 165 353 165 Q342 165 333 173.5 Q324 182 324 192 Q324 215 353 240 Q382 265 411 265 Q448 265 472 236 Q496 207 496 163 Q496 95 455 41 Q414 -13 363 -13 Q315 -13 249 65 Q198 -13 120 -13 Q74 -13 40 18 Q6 49 6 90 Q6 131 40.5 160.5 Q75 190 124 190 Q167 190 219 162 Q221 179 221 196 Q221 251 183 342 L88 342 Q63 342 56.5 348 Q50 354 50 369 Q50 388 59 394 Q65 397 87 399 L100 400 L160 400 Q142 445 142 488 Q142 573 187 626.5 Q232 680 304 680 Q366 680 406.5 639.5 Q447 599 447 537 Q447 458 397 458 Q354 458 354 505 Q354 538 383 549 Q356 615 302 615 Q263 615 237 582 Q211 549 211 498 Z M121 45 Q175 45 205 105 Q168 134 129 134 Q102 134 84 122 Q66 110 66 91 Q66 72 82.5 58.5 Q99 45 121 45 Z " />
<glyph glyph-name="section" unicode="&#xa7;" horiz-adv-x="500" d="M62 323 Q62 404 140 446 Q100 495 100 541 Q100 600 145.5 641 Q191 682 256 682 Q315 682 359.5 646.5 Q404 611 404 563 Q404 537 388 519 Q372 501 347 501 Q327 501 314 514 Q301 527 301 546 Q301 569 327 591 Q298 616 253 616 Q220 616 198.5 595.5 Q177 575 177 544 Q177 515 192.5 497.5 Q208 480 268 443 Q281 435 313 414 Q331 402 367 376 Q438 324 438 254 Q438 217 420 189.5 Q402 162 355 130 Q409 72 409 10 Q409 -55 361.5 -97 Q314 -139 240 -139 Q169 -139 121 -101 Q73 -63 73 -7 Q73 28 90 50 Q107 72 134 72 Q156 72 170.5 57 Q185 42 185 19 Q185 -16 145 -27 Q179 -77 240 -77 Q280 -77 306.5 -53 Q333 -29 333 8 Q333 63 269 106 L161 179 Q99 221 80.5 248 Q62 275 62 323 Z M131 325 Q131 270 255 203 L279 190 Q294 182 298 182 Q311 182 328 195 Q362 221 362 255 Q362 281 346 299.5 Q330 318 282 348 L236 376 Q199 399 190 399 Q181 399 160 382 Q131 359 131 325 Z " />
<glyph glyph-name="bullet" unicode="&#x2022;" horiz-adv-x="667" d="M196 340 Q196 398 236.5 439 Q277 480 334 480 Q390 480 430.5 439 Q471 398 471 340 Q471 282 430.5 241 Q390 200 334 200 Q277 200 236.5 241 Q196 282 196 340 Z " />
<glyph glyph-name="paragraph" unicode="&#xb6;" horiz-adv-x="571" d="M278 -99 L219 -99 L219 314 L204 314 Q123 314 71.5 362.5 Q20 411 20 488 Q20 545 49.5 589 Q79 633 128 650 Q177 667 240 667 L501 667 L501 614 L443 614 L443 -99 L385 -99 L385 614 L278 614 L278 -99 Z " />
<glyph glyph-name="germandbls" unicode="&#xdf;" horiz-adv-x="508" d="M346 -8 Q311 -8 265 28 Q262 -8 236 -8 Q203 -8 203 41 Q203 52 205 77 Q208 114 208 124 Q208 136 205.5 159 Q203 182 203 194 Q203 233 236 233 Q268 233 268 191 Q268 184 267 181 Q266 168 266 153 Q266 116 286 88 Q306 60 333 60 Q361 60 380.5 87 Q400 114 400 153 Q400 222 311 292 Q269 325 255.5 343.5 Q242 362 242 386 Q242 420 287.5 466.5 Q333 513 333 545 Q333 572 312 590.5 Q291 609 262 609 Q181 609 167 514 Q163 484 161 451 Q158 392 158 375 L159 96 Q159 65 163 23 L163 16 Q163 -5 144 -5 Q137 -5 125 -1 Q110 2 96 2 Q88 2 73 -1.5 Q58 -5 51 -5 Q38 -5 28.5 5.5 Q19 16 19 30 Q19 62 49 62 Q55 62 59 61 L65 61 Q88 61 89 95 Q89 111 90 147 Q91 174 91 220 L91 365 Q91 418 70 418 L63 418 Q54 416 50 416 Q19 416 19 448 Q19 483 52 483 Q63 483 68 481.5 Q73 480 81 480 Q97 480 98 507 Q102 584 147.5 630.5 Q193 677 264 677 Q326 677 366 641 Q406 605 406 548 Q406 486 350 430 Q323 403 323 393 Q323 377 355 355 Q424 307 451 256 Q471 219 471 160 Q471 90 434.5 41 Q398 -8 346 -8 Z " />
<glyph glyph-name="registered" unicode="&#xae;" horiz-adv-x="500" d="M247 754 Q331 754 390.5 696 Q450 638 450 556 Q450 473 390.5 413.5 Q331 354 247 354 Q165 354 107.5 414 Q50 474 50 559 Q50 640 107.5 697 Q165 754 247 754 Z M249 390 Q317 390 365.5 437.5 Q414 485 414 553 Q414 621 366 669.5 Q318 718 250 718 Q182 718 134 671 Q86 624 86 558 Q86 488 133.5 439 Q181 390 249 390 Z M315 609 Q315 570 286 559 Q305 548 305 520 L305 505 L306 492 Q307 473 313 473 L318 473 Q320 474 323 474 Q337 474 337 460 Q337 446 320 446 L316 446 L308 447 L300 447 Q276 447 276 503 L276 518 Q276 536 268.5 540.5 Q261 545 242 545 L234 545 Q231 544 226 544 Q221 544 221 534 L221 526 Q221 473 228 473 L233 473 Q235 474 239 474 Q252 474 252 461 Q252 445 237 445 Q232 445 221 447 Q210 449 205 449 Q200 449 190 447 Q180 445 175 445 Q160 445 160 460 Q160 474 173 474 Q177 474 179 473 L184 473 Q191 473 191 526 L191 587 Q191 641 184 641 Q182 641 178.5 640 Q175 639 173 639 Q160 639 160 653 Q160 668 175 668 Q181 668 192 666 Q203 664 208 664 Q211 664 219 665 Q227 666 233 666 Q246 667 259 667 Q315 667 315 609 Z M222 572.5 Q223 572 225 572 L235 572 Q285 572 285 607 Q285 641 249 641 Q221 641 221 628 L221 577 Q221 573 222 572.5 Z " />
<glyph glyph-name="copyright" unicode="&#xa9;" horiz-adv-x="773" d="M387 680 Q530 680 631.5 578.5 Q733 477 733 333 Q733 190 631.5 88.5 Q530 -13 387 -13 Q243 -13 141.5 88.5 Q40 190 40 333 Q40 477 141.5 578.5 Q243 680 387 680 Z M387 31 Q511 31 598.5 119.5 Q686 208 686 333 Q686 458 598.5 547 Q511 636 387 636 Q263 636 175.5 547 Q88 458 88 333 Q88 208 175.5 119.5 Q263 31 387 31 Z M392 540 Q441 540 467 508 Q467 541 489 541 Q511 541 511 515 Q511 504 509 481.5 Q507 459 507 447 Q507 422 508 413 Q510 394 510 381 Q510 353 486 353 Q462 353 462 380 Q463 390 463 396 Q464 399 464 407 Q464 446 445 469 Q426 492 395 492 Q352 492 327 450 Q302 408 302 335 Q302 264 328 219.5 Q354 175 396 175 Q465 175 474 261 Q478 298 502 298 Q525 298 525 271 Q525 210 486.5 168 Q448 126 393 126 Q327 126 288 182.5 Q249 239 249 335 Q249 426 288.5 483 Q328 540 392 540 Z " />
<glyph glyph-name="trademark" unicode="&#x2122;" horiz-adv-x="690" d="M170 581 L170 424 Q170 362 172.5 345.5 Q175 329 183 329 Q192 330 192 330 Q200 332 202 332 Q223 332 223 309 Q223 284 198 284 Q189 284 171 288 Q162 290 146 290 Q137 290 119.5 287 Q102 284 94 284 Q70 284 70 309 Q70 332 91 332 Q93 332 101 330 Q100 330 110 329 Q118 329 120.5 346 Q123 363 123 424 L123 555 Q123 600 118.5 611 Q114 622 97 622 Q79 622 73 616.5 Q67 611 67 596 Q67 583 68 568 Q69 553 70 540 L70 538 Q70 504 46 504 Q24 504 24 532 Q24 538 25 550.5 Q26 563 26 590 Q26 599 25 617 Q24 635 24 644 Q24 668 45 668 Q52 668 70 665 Q100 663 128 663 Q145 663 145 663 L178 664 Q191 664 213.5 666 Q236 668 248 668 Q268 668 268 645 Q268 635 266.5 615 Q265 595 265 585 Q265 580 266 570 Q267 560 267 551 Q267 551 267 535 Q267 505 244 505 Q222 505 222 537 Q222 536 223 562 Q224 588 224 595 Q224 613 218 617.5 Q212 622 199 622 Q179 622 174.5 615.5 Q170 609 170 581 Z M423 633 L483 366 L543 640 Q549 667 563 667 Q572 667 579 665 Q593 663 598 663 Q609 663 625 666 Q641 669 646 669 Q671 669 671 644 Q671 622 650 622 Q643 622 640 623 Q637 624 631 624 Q623 624 620.5 607 Q618 590 618 530 L618 424 Q618 362 620.5 345.5 Q623 329 631 329 Q640 330 640 330 Q648 332 650 332 Q671 332 671 309 Q671 284 646 284 Q637 284 620.5 287 Q604 290 595 290 Q587 290 571.5 287 Q556 284 548 284 Q527 284 527 308 Q527 331 550 331 Q551 331 554 331 Q556 330 557 330 L561 330 Q572 330 573 351 L576 423 L576 602 L509 297 Q505 279 483 279 Q461 279 457 297 L389 598 L389 427 Q389 364 391.5 347 Q394 330 403 330 Q408 330 412 331 L420 331 Q441 331 441 309 Q441 284 418 284 Q411 284 398 287 Q385 290 372 290 Q365 290 345 287 Q325 284 319 284 Q294 284 294 309 Q294 332 315 332 Q317 332 325 330 Q327 330 330 330 Q334 329 335 329 Q347 329 347 424 L347 526 Q347 587 344.5 603.5 Q342 620 334 620 Q331 620 326.5 619 Q322 618 315 618 Q294 618 294 640 Q294 666 319 666 Q312 666 338 664 Q343 663 356 663 Q376 663 384 665 Q400 667 401 667 Q415 667 423 633 Z " />
<glyph glyph-name="acute" unicode="&#xb4;" horiz-adv-x="500" d="M180 583 Q180 597 194 611 L260 678 Q286 704 303 704 Q319 704 330 691 Q341 678 341 659 Q341 628 303 611 L216 571 Q203 565 197 565 Q180 565 180 583 Z " />
<glyph glyph-name="dieresis" unicode="&#xa8;" horiz-adv-x="500" d="M172 562 Q124 562 124 622 Q124 681 172 681 Q221 681 221 622 Q221 562 172 562 Z M328 562 Q279 562 279 622 Q279 681 328 681 Q376 681 376 622 Q376 562 328 562 Z " />
<glyph glyph-name="AE" unicode="&#xc6;" horiz-adv-x="807" d="M89 160 L331 635 Q348 668 386 668 L393 668 Q397 667 440 664 Q478 661 526 661 Q560 661 572 662 L632 667 Q644 668 685 668 Q714 668 724 658 Q734 648 734 621 L734 576 L733 526 Q733 509 734.5 479 Q736 449 736 435 Q736 386 702 386 Q671 386 671 428 Q671 452 672 470 Q674 506 674 510 Q674 564 655.5 581.5 Q637 599 579 599 L506 599 Q475 599 463 583 Q451 567 451 526 L451 416 Q451 385 473 385 L512 385 Q559 385 559 430 Q559 437 559 437 L557 466 Q556 472 556 483 Q556 528 586 528 Q616 528 616 488 Q616 487 614 445 Q610 361 610 335 Q610 311 612 287 L616 239 Q616 239 616 231 Q616 187 586 187 Q556 187 556 232 Q556 238 557 250 Q558 259 559 272 Q560 282 560 285 Q560 323 516 323 L478 323 Q461 323 456 317.5 Q451 312 451 296 L451 133 Q451 95 460 83 Q471 67 507 67 L556 67 L611 70 Q659 73 673.5 90.5 Q688 108 688 166 Q688 179 687 197 L685 233 Q684 236 684 240 Q684 284 717 284 Q750 284 750 247 Q750 239 748 220 Q743 174 743 129 Q743 115 744 88.5 Q745 62 745 48 Q745 -1 699 -1 Q678 -1 643 1 Q600 4 587 5 Q536 7 494 7 Q406 7 352 -1 Q325 -5 311 -5 Q275 -5 275 35 Q275 67 306 67 Q313 67 327 64.5 Q341 62 348 62 Q376 62 376 113 Q376 113 377 128 Q378 147 379 168 Q380 193 380 236 L380 279 Q380 295 376 300 Q372 305 355 305 L269 305 Q249 305 240.5 297.5 Q232 290 217 261 L162 151 Q158 141 146.5 113 Q135 85 135 78 Q135 65 151 65 Q156 65 165 66.5 Q174 68 179 68 Q211 68 211 32 Q211 -5 176 -5 Q164 -5 143 0 Q114 7 88 7 Q68 7 40 1 Q12 -5 -1 -5 Q-38 -5 -38 32 Q-38 67 -5 67 Q2 67 8 66 L11 66 Q30 66 45 84.5 Q60 103 89 160 Z M380 393 L380 592 L281 393 Q276 383 276 378 Q276 369 294 369 L362 369 Q380 369 380 393 Z " />
<glyph glyph-name="Oslash" unicode="&#xd8;" horiz-adv-x="524" d="M478 705 L419 605 Q484 499 484 356 Q484 196 420.5 92 Q357 -12 260 -12 Q192 -12 135 42 L100 -29 Q92 -45 70 -45 Q40 -45 40 -27 Q40 -21 44 -14 L100 88 Q81 132 72 167 Q54 234 54 308 Q54 478 114 580 Q174 682 274 682 Q328 682 384 645 L419 715 Q430 738 455 738 Q482 738 482 719 Q482 712 478 705 Z M144 165 L353 580 Q323 617 272 617 Q177 617 140 444 Q124 368 124 306 Q124 224 144 165 Z M384 528 L167 110 Q206 57 257 57 Q324 57 368 139.5 Q412 222 412 348 Q412 468 384 528 Z " />
<glyph glyph-name="infinity" unicode="&#x221e;" horiz-adv-x="667" d="M499 187 Q407 187 335 295 Q260 188 169 188 Q103 188 61 230.5 Q19 273 19 340 Q19 407 61 449.5 Q103 492 169 492 Q262 492 332 385 Q404 492 499 492 Q564 492 606 449.5 Q648 407 648 340 Q648 272 606.5 229.5 Q565 187 499 187 Z M490 432 Q429 432 367 340 Q427 248 491 248 Q529 248 554.5 274 Q580 300 580 340 Q580 380 554.5 406 Q529 432 490 432 Z M176 247 Q238 247 300 340 Q239 432 176 432 Q137 432 112 406 Q87 380 87 340 Q87 299 112 273 Q137 247 176 247 Z " />
<glyph glyph-name="plusminus" unicode="&#xb1;" horiz-adv-x="500" d="M22 345 L22 407 L217 407 L217 588 L283 588 L283 407 L478 407 L478 345 L280 345 L280 163 L217 163 L217 345 L22 345 Z M22 57 L22 119 L478 119 L478 57 L22 57 Z " />
<glyph glyph-name="lessequal" unicode="&#x2264;" horiz-adv-x="500" d="M33 404 L467 599 L467 535 L105 374 L466 214 L467 150 L33 345 L33 404 Z M33 120 L467 120 L467 60 L33 60 L33 120 Z " />
<glyph glyph-name="greaterequal" unicode="&#x2265;" horiz-adv-x="500" d="M467 345 L33 150 L33 214 L395 375 L34 535 L33 599 L467 404 L467 345 Z M467 60 L33 60 L33 120 L467 120 L467 60 Z " />
<glyph glyph-name="yen" unicode="&#xa5;" horiz-adv-x="567" d="M197 532 L282 332 L378 532 Q384 544 388 560 Q391 570 393 579 Q393 580 394 581 Q394 582 394 583 Q394 597 380 597 Q375 597 366.5 595 Q358 593 353 593 Q326 593 326 631 Q326 671 361 671 Q376 671 395 666 Q418 660 441 660 Q456 660 484.5 665.5 Q513 671 528 671 Q563 671 563 634 Q563 595 531 595 Q530 595 514 597 Q510 598 502 598 Q482 598 464 558 L452 532 L407 442 L529 442 Q561 442 561 415 Q561 389 529 389 L378 389 L337 297 L529 297 Q561 297 561 270 Q561 244 529 244 L320 244 L319 202 Q318 160 318 160 L318 112 Q318 61 349 61 Q353 61 366 63.5 Q379 66 387 66 Q417 66 417 34 Q417 -5 378 -5 Q366 -5 337 0 Q296 7 277 7 Q260 7 226 1 Q192 -5 175 -5 Q138 -5 138 30 Q138 65 173 65 Q176 65 181 65 Q187 64 189 64 Q200 62 212 62 Q238 62 241 113 Q246 190 245 202 L243 244 L35 244 Q3 244 3 270 Q3 297 35 297 L228 297 L186 389 L35 389 Q3 389 3 415 Q3 442 35 442 L158 442 L110 546 L94 575 Q81 599 67 599 Q62 599 51.5 597 Q41 595 36 595 Q6 595 6 633 Q6 671 42 671 Q57 671 87 665.5 Q117 660 133 660 Q146 660 171.5 665.5 Q197 671 209 671 Q224 671 235 659 Q246 647 246 630 Q246 593 212 593 Q210 593 206 594 Q202 594 201 594 Q192 597 187 597 Q177 597 177 587 Q177 580 187 556 L197 532 Z " />
<glyph glyph-name="mu" unicode="&#xb5;" horiz-adv-x="500" d="M115 -167 L48 -167 L48 479 L115 479 L115 206 Q115 145 127.5 113.5 Q140 82 171.5 61.5 Q203 41 245 41 Q319 41 360 110 Q383 149 383 216 L383 479 L449 479 L449 0 L383 0 L383 89 Q336 -13 243 -13 Q162 -13 115 62 L115 -167 Z " />
<glyph glyph-name="product" unicode="&#x220f;" horiz-adv-x="695" d="M36 690 L36 750 L659 750 L659 690 L581 690 L581 -190 L659 -190 L659 -250 L430 -250 L430 -190 L513 -190 L513 690 L182 690 L182 -190 L264 -190 L264 -250 L36 -250 L36 -190 L115 -190 L115 690 L36 690 Z " />
<glyph glyph-name="pi" unicode="&#x3c0;" horiz-adv-x="571" d="M168 0 L101 0 L101 450 L27 450 L27 511 L545 511 L545 450 L472 450 L472 0 L405 0 L405 450 L168 450 L168 0 Z " />
<glyph glyph-name="ordfeminine" unicode="&#xaa;" horiz-adv-x="333" d="M241 393 Q208 393 199 421 Q174 393 136 393 Q102 393 80 415.5 Q58 438 58 473 Q58 512 79 531 Q100 550 151 557 Q173 560 181.5 567 Q190 574 190 595 Q190 634 155 634 Q136 634 125 623 Q121 619 121 617 Q122 613 124 611 Q131 598 131 590 Q131 564 102 564 Q70 564 70 602 Q70 632 94 652.5 Q118 673 154 673 Q198 673 217 651 Q236 629 236 577 L236 461 Q236 435 243 435 Q252 435 252 468 L252 480 L251 484 Q251 511 271 511 Q293 511 293 475 Q293 393 241 393 Z M57 330 L294 330 L294 297 L57 297 L57 330 Z M141 434 Q192 434 193 525 Q185 522 166 517 L141 513 Q102 507 102 472 Q102 434 141 434 Z " />
<glyph glyph-name="ordmasculine" unicode="&#xba;" horiz-adv-x="333" d="M167 393 Q120 393 92 431 Q64 469 64 533 Q64 597 92 635 Q120 673 167 673 Q214 673 242 635 Q270 597 270 533 Q270 469 242 431 Q214 393 167 393 Z M65 330 L268 330 L268 297 L65 297 L65 330 Z M167 630 Q141 630 125.5 603.5 Q110 577 110 533 Q110 489 125.5 462 Q141 435 167 435 Q224 435 224 533 Q224 577 208.5 603.5 Q193 630 167 630 Z " />
<glyph glyph-name="Omega" unicode="&#x2126;" horiz-adv-x="667" d="M289 0 L28 0 L28 60 L212 60 Q28 167 28 362 Q28 498 116 590.5 Q204 683 333 683 Q462 683 550 590.5 Q638 498 638 362 Q638 167 455 60 L638 60 L638 0 L378 0 L378 55 Q465 104 508 163 Q569 247 569 355 Q569 467 500.5 545 Q432 623 334 623 Q233 623 165 546 Q97 469 97 355 Q97 161 289 55 L289 0 Z " />
<glyph glyph-name="ae" unicode="&#xe6;" horiz-adv-x="646" d="M445 -13 Q349 -13 313 75 Q296 35 259.5 11 Q223 -13 179 -13 Q115 -13 74 29.5 Q33 72 33 138 Q33 301 223 301 L256 301 Q270 301 274.5 306.5 Q279 312 279 327 Q279 379 256 409 Q233 439 193 439 Q169 439 152 426 Q132 411 132 403 Q132 400 137 393 Q148 377 148 362 Q148 343 133.5 329 Q119 315 99 315 Q54 315 54 377 Q54 429 95.5 465.5 Q137 502 196 502 Q284 502 324 421 Q366 502 451 502 Q521 502 565 441.5 Q609 381 609 286 Q609 257 605 248 Q599 231 575 231 L374 231 Q348 231 348 210 Q348 139 374.5 97.5 Q401 56 446 56 Q475 56 499 78 Q523 100 531 134 Q537 160 539 164 Q546 184 572 184 Q602 184 602 145 Q602 82 554.5 34.5 Q507 -13 445 -13 Z M369 296 L506 296 Q528 296 533 303 Q536 307 536 317 Q536 365 511 399 Q486 433 450 433 Q413 433 383.5 395.5 Q354 358 354 312 Q354 296 369 296 Z M182 53 Q224 53 251 91.5 Q278 130 278 189 L278 214 Q278 229 274 233 Q270 237 255 237 L217 237 Q154 237 127 216.5 Q100 196 100 147 Q100 104 122.5 78.5 Q145 53 182 53 Z " />
<glyph glyph-name="oslash" unicode="&#xf8;" horiz-adv-x="431" d="M372 529 L335 455 Q395 382 395 254 Q395 133 345 60 Q295 -13 213 -13 Q162 -13 128 12 L99 -52 Q91 -69 70 -69 Q43 -69 43 -55 Q43 -53 47 -43 L92 42 Q60 89 48 128.5 Q36 168 36 231 Q36 353 88 427.5 Q140 502 225 502 Q258 502 296 485 L315 529 Q324 551 347 551 Q374 551 374 536 Q374 533 372 529 Z M128 116 L267 422 Q246 435 225 435 Q172 435 140 380 Q108 325 108 233 Q108 166 128 116 Z M299 383 L158 77 Q187 56 211 56 Q262 56 292.5 108.5 Q323 161 323 249 Q323 327 299 383 Z " />
<glyph glyph-name="questiondown" unicode="&#xbf;" horiz-adv-x="472" d="M249 495 Q271 495 285.5 477.5 Q300 460 300 433 Q300 405 285.5 387.5 Q271 370 249 370 Q227 370 212.5 387.5 Q198 405 198 433 Q198 460 212.5 477.5 Q227 495 249 495 Z M137 170 Q185 200 201.5 222 Q218 244 219 281 L220 307 Q221 338 255 338 Q288 338 288 290 Q288 230 261 187 Q239 152 180 113 Q137 84 121 60.5 Q105 37 105 0 Q105 -54 137.5 -88.5 Q170 -123 222 -123 Q272 -123 310 -88.5 Q348 -54 348 -9 Q348 8 339 8 Q336 8 331 3 Q319 -7 307 -7 Q268 -7 268 41 Q268 68 286 87.5 Q304 107 329 107 Q366 107 389 77 Q412 47 412 -1 Q412 -83 357.5 -136 Q303 -189 219 -189 Q135 -189 84 -137.5 Q33 -86 33 -1 Q33 104 137 170 Z " />
<glyph glyph-name="exclamdown" unicode="&#xa1;" horiz-adv-x="236" d="M118 495 Q140 495 154.5 477.5 Q169 460 169 433 Q169 405 154.5 387.5 Q140 370 118 370 Q96 370 81.5 387.5 Q67 405 67 433 Q67 460 81.5 477.5 Q96 495 118 495 Z M118 332 Q150 332 151 283 L157 -152 Q158 -198 120 -198 Q77 -198 78 -152 L84 283 Q85 332 118 332 Z " />
<glyph glyph-name="logicalnot" unicode="&#xac;" horiz-adv-x="500" d="M467 0 L400 0 L400 206 L33 206 L33 267 L467 267 L467 0 Z " />
<glyph glyph-name="florin" unicode="&#x192;" horiz-adv-x="500" d="M57 -41 Q57 -72 23 -90 Q37 -108 60 -108 Q106 -108 131 -53 Q153 -5 170 94 L231 448 Q231 466 215 466 Q211 466 203.5 464 Q196 462 192 462 Q181 462 173 472.5 Q165 483 165 497 Q165 536 201 536 Q209 536 217.5 533.5 Q226 531 231 531 Q246 531 249 552 L255 589 Q266 657 300.5 696.5 Q335 736 384 736 Q431 736 464 707 Q497 678 497 637 Q497 579 451 579 Q435 579 423 591 Q411 603 411 619 Q411 633 425 655 Q406 671 392 671 Q367 671 348 645.5 Q329 620 323 579 L320 557 Q319 554 319 547 Q319 534 335 534 Q344 534 350 535 Q361 538 370 538 Q400 538 400 500 Q400 463 362 463 Q356 463 345 465.5 Q334 468 329 468 Q328 469 326 469 Q308 469 301 448 Q299 444 294 412 L227 21 Q212 -67 165.5 -120 Q119 -173 58 -173 Q12 -173 -18 -146 Q-48 -119 -48 -78 Q-48 -44 -29 -19.5 Q-10 5 16 5 Q57 5 57 -41 Z " />
<glyph glyph-name="increment" unicode="&#x2206;" horiz-adv-x="667" d="M638 0 L29 0 L297 667 L368 667 L638 0 Z M333 586 L124 61 L541 61 L333 586 Z " />
<glyph glyph-name="guillemotleft" unicode="&#xab;" horiz-adv-x="335" d="M157 438 L105 288 L154 150 Q157 142 157 134 Q157 118 143 118 Q134 118 125 132 L36 278 Q30 288 30 289 Q30 292 36 302 L132 455 Q134 459 137 463 Q140 467 146 467 Q159 467 159 451 Q159 442 157 438 Z M276 438 L223 288 L273 150 Q276 142 276 134 Q276 118 262 118 Q253 118 244 132 L155 278 Q149 288 149 289 Q149 292 154 302 L251 455 Q253 459 256 463 Q259 467 265 467 Q278 467 278 451 Q278 446 276 438 Z " />
<glyph glyph-name="guillemotright" unicode="&#xbb;" horiz-adv-x="335" d="M178 147 L230 297 L181 435 Q178 443 178 451 Q178 467 192 467 Q201 467 210 453 L299 307 Q305 297 305 296 Q305 293 299 283 L198 122 Q196 118 188 118 Q176 118 176 134 Q176 143 178 147 Z M59 147 L111 297 L62 435 Q59 443 59 451 Q59 467 73 467 Q82 467 91 453 L180 307 Q186 297 186 296 Q186 293 180 283 L84 130 Q82 126 79 122 Q76 118 69 118 Q57 118 57 134 Q57 143 59 147 Z " />
<glyph glyph-name="ellipsis" unicode="&#x2026;" horiz-adv-x="646" d="M108 -11 Q85 -11 70.5 6.5 Q56 24 56 52 Q56 79 70.5 96.5 Q85 114 108 114 Q130 114 144.5 96.5 Q159 79 159 52 Q159 24 144.5 6.5 Q130 -11 108 -11 Z M323 -11 Q301 -11 286.5 6.5 Q272 24 272 52 Q272 79 286.5 96.5 Q301 114 323 114 Q345 114 359.5 96.5 Q374 79 374 52 Q374 24 359.5 6.5 Q345 -11 323 -11 Z M538 -11 Q516 -11 501.5 6.5 Q487 24 487 52 Q487 79 501.5 96.5 Q516 114 538 114 Q561 114 575.5 96.5 Q590 79 590 52 Q590 24 575.5 6.5 Q561 -11 538 -11 Z " />
<glyph glyph-name="nbspace" unicode="&#xa0;" horiz-adv-x="250" d="" />
<glyph glyph-name="Agrave" unicode="&#xc0;" horiz-adv-x="564" d="M123 202 L239 625 Q248 655 254 663 Q265 680 288 680 Q316 680 326 666.5 Q336 653 351 592 L466 135 Q478 92 486 78.5 Q494 65 508 65 Q512 65 526 67 Q529 67 533 68 Q537 68 538 68 Q570 68 570 34 Q570 -5 536 -5 Q532 -5 490 3 Q469 7 446 7 Q428 7 396.5 1 Q365 -5 354 -5 Q340 -5 329 6 Q318 17 318 33 Q318 68 351 68 Q357 68 360 67 Q363 67 367 67 Q371 66 372 66 Q395 66 395 98 Q395 115 389 140 L371 214 Q367 230 363 233.5 Q359 237 346 237 L225 237 Q204 237 195 202 L177 131 Q170 103 170 86 Q170 67 188 67 Q195 67 198 67.5 Q201 68 205 69 Q210 69 211 69 Q243 69 243 33 Q243 -5 210 -5 Q197 -5 169 1 Q141 7 125 7 Q103 7 73 1 Q43 -5 31 -5 Q-5 -5 -5 32 Q-5 68 26 68 Q32 68 42 66 Q52 64 57 64 Q73 64 87.5 94 Q102 124 123 202 Z M369 715 Q365 715 344 726 L244 779 Q208 798 196.5 810 Q185 822 185 839 Q185 856 196.5 868.5 Q208 881 223 881 Q246 881 272 857 L344 791 Q347 788 371 767 Q392 749 392 736 Q392 715 369 715 Z M346 327 L291 574 L227 327 Q225 319 225 316 Q225 303 244 303 L331 303 Q348 303 348 315 Q348 318 346 327 Z " />
<glyph glyph-name="Atilde" unicode="&#xc3;" horiz-adv-x="564" d="M123 202 L239 625 Q248 655 254 663 Q265 680 288 680 Q316 680 326 666.5 Q336 653 351 592 L466 135 Q478 92 486 78.5 Q494 65 508 65 Q512 65 526 67 Q529 67 533 68 Q537 68 538 68 Q570 68 570 34 Q570 -5 536 -5 Q532 -5 490 3 Q469 7 446 7 Q428 7 396.5 1 Q365 -5 354 -5 Q340 -5 329 6 Q318 17 318 33 Q318 68 351 68 Q357 68 360 67 Q363 67 367 67 Q371 66 372 66 Q395 66 395 98 Q395 115 389 140 L371 214 Q367 230 363 233.5 Q359 237 346 237 L225 237 Q204 237 195 202 L177 131 Q170 103 170 86 Q170 67 188 67 Q195 67 198 67.5 Q201 68 205 69 Q210 69 211 69 Q243 69 243 33 Q243 -5 210 -5 Q197 -5 169 1 Q141 7 125 7 Q103 7 73 1 Q43 -5 31 -5 Q-5 -5 -5 32 Q-5 68 26 68 Q32 68 42 66 Q52 64 57 64 Q73 64 87.5 94 Q102 124 123 202 Z M370 819 Q387 819 394 826 L412 843 Q419 848 425 848 Q439 848 439 836 Q439 819 414 779.5 Q389 740 352 740 Q318 740 276 758 L241 773 Q222 781 206 781 Q190 781 169 762 Q159 753 153 753 Q139 753 139 770 Q139 788 163 822.5 Q187 857 223 857 Q257 857 301 839 L333 826 Q350 819 370 819 Z M346 327 L291 574 L227 327 Q225 319 225 316 Q225 303 244 303 L331 303 Q348 303 348 315 Q348 318 346 327 Z " />
<glyph glyph-name="Otilde" unicode="&#xd5;" horiz-adv-x="509" d="M255 -13 Q157 -13 98.5 81 Q40 175 40 333 Q40 491 98.5 585.5 Q157 680 255 680 Q353 680 411 586 Q469 492 469 333 Q469 175 411 81 Q353 -13 255 -13 Z M337 819 Q351 819 361 826 L378 843 Q385 848 392 848 Q405 848 405 836 Q405 819 380 779.5 Q355 740 318 740 Q283 740 242 758 L208 773 Q190 781 172 781 Q155 781 136 762 Q125 753 119 753 Q105 753 105 770 Q105 787 128.5 822 Q152 857 189 857 Q221 857 267 839 L300 826 Q318 819 337 819 Z M256 610 Q189 610 152.5 537 Q116 464 116 333 Q116 204 152.5 130.5 Q189 57 253 57 Q319 57 356 130 Q393 203 393 333 Q393 462 356.5 536 Q320 610 256 610 Z " />
<glyph glyph-name="OE" unicode="&#x152;" horiz-adv-x="811" d="M255 679 Q331 679 396 600 Q396 609 394 621 Q392 641 392 645 Q392 670 418 670 Q423 670 452 666 Q481 662 544 662 Q595 662 644 665 Q677 667 696 667 Q721 667 729.5 656.5 Q738 646 738 613 L738 570 L737 526 Q736 487 737 475 Q739 448 739 427 Q739 387 707 387 Q675 387 675 432 Q675 440 675 440 L677 478 Q679 516 679 516 Q679 569 659.5 584.5 Q640 600 576 600 L518 600 Q484 600 469.5 585 Q455 570 455 534 L455 419 Q455 391 466 387 Q471 385 481 385 L517 385 Q564 385 564 427 Q564 443 562 458 Q560 473 560 486 Q560 528 591 528 Q620 528 620 484 Q620 489 619 474 L615 416 Q613 387 613 361 Q613 330 615 294 Q616 276 618 256 Q619 241 619 239 L619 232 Q619 188 589 188 Q560 188 560 227 L560 234 L563 259 Q564 267 564 280 Q564 313 551 320 Q543 326 520 326 L480 326 Q463 326 459 318.5 Q455 311 455 292 L456 132 Q457 89 474 77 Q487 68 530 68 L589 68 Q653 68 672 87.5 Q691 107 691 172 Q691 195 691 195 L689 237 Q689 284 722 284 Q755 284 755 248 Q755 246 753 231 Q745 172 745 133 Q745 119 746.5 90.5 Q748 62 748 48 Q748 0 710 0 Q697 0 668 3 Q620 8 547 8 Q498 8 450 2 Q418 -2 414 -2 Q386 -2 386 22 Q386 24 388 46 Q389 51 391 68 Q359 23 328 5 Q297 -13 253 -13 Q153 -13 96.5 79.5 Q40 172 40 335 Q40 490 99 584.5 Q158 679 255 679 Z M257 607 Q191 607 153 535 Q115 463 115 336 L115 326 Q115 204 151.5 130.5 Q188 57 249 57 Q314 57 352 134.5 Q390 212 390 343 Q390 462 353 534.5 Q316 607 257 607 Z " />
<glyph glyph-name="oe" unicode="&#x153;" horiz-adv-x="690" d="M489 -13 Q400 -13 353 74 Q301 -13 212 -13 Q133 -13 85 58.5 Q37 130 37 247 Q37 363 86 432.5 Q135 502 217 502 Q305 502 353 412 Q403 502 490 502 Q566 502 609.5 442.5 Q653 383 653 278 Q653 242 645.5 236 Q638 230 625 230 L416 230 Q394 230 390 223.5 Q386 217 386 206 Q386 138 414.5 96 Q443 54 489 54 Q516 54 540.5 73 Q565 92 572 120 L581 155 Q588 184 614 184 Q647 184 647 147 Q647 85 598.5 36 Q550 -13 489 -13 Z M392 312 Q392 296 418 296 L554 296 Q580 296 580 314 Q580 365 554.5 399 Q529 433 490 433 Q452 433 422 395.5 Q392 358 392 312 Z M322 240 Q322 255 322 255 Q320 339 291.5 387 Q263 435 216 435 Q167 435 137.5 382 Q108 329 108 243 Q108 158 137 107 Q166 56 214 56 Q263 56 292.5 106 Q322 156 322 240 Z " />
<glyph glyph-name="endash" unicode="&#x2013;" horiz-adv-x="500" d="M33 301 L33 363 L467 363 L467 301 L33 301 Z " />
<glyph glyph-name="emdash" unicode="&#x2014;" horiz-adv-x="601" d="M69 324 L78 324 L138 322 Q228 319 300 319 Q372 319 462 322 L532 324 Q601 324 601 287 Q601 266 585.5 258 Q570 250 530 250 Q525 250 462 252 Q367 255 300 255 Q227 255 138 252 L69 250 Q30 250 15 258 Q0 266 0 287 Q0 308 15 316 Q30 324 69 324 Z " />
<glyph glyph-name="quotedblleft" unicode="&#x201c;" horiz-adv-x="367" d="M250 539 Q250 531 254 519 Q260 521 270 521 Q314 521 314 461 Q314 397 262 397 Q200 397 200 495 Q200 562 233 628 L245 652 Q257 677 273 677 Q292 677 292 658 Q292 651 288 643 L276 624 Q269 612 259.5 582.5 Q250 553 250 539 Z M104 539 Q104 528 107 519 Q114 521 123 521 Q167 521 167 461 Q167 397 115 397 Q53 397 53 495 Q53 567 86 628 L99 652 Q113 677 126 677 Q146 677 146 658 Q146 652 141 643 L130 624 Q104 579 104 539 Z " />
<glyph glyph-name="quotedblright" unicode="&#x201d;" horiz-adv-x="367" d="M117 536 Q117 543 113 555 Q101 553 97 553 Q78 553 65.5 570 Q53 587 53 613 Q53 677 105 677 Q167 677 167 579 Q167 513 134 447 L122 423 Q109 397 94 397 Q74 397 74 416 Q74 423 79 431 L91 451 Q104 472 114 516 Q117 529 117 536 Z M263 536 Q263 546 260 555 Q246 553 244 553 Q225 553 212.5 570 Q200 587 200 613 Q200 677 252 677 Q314 677 314 579 Q314 508 281 447 L268 423 Q254 397 241 397 Q221 397 221 416 Q221 422 226 431 L237 451 Q252 479 261 516 Q263 525 263 536 Z " />
<glyph glyph-name="quoteleft" unicode="&#x2018;" horiz-adv-x="220" d="M104 539 Q104 528 107 519 Q114 521 123 521 Q167 521 167 461 Q167 397 115 397 Q53 397 53 495 Q53 567 86 628 L99 652 Q113 677 126 677 Q146 677 146 658 Q146 652 141 643 L130 624 Q104 579 104 539 Z " />
<glyph glyph-name="quoteright" unicode="&#x2019;" horiz-adv-x="220" d="M117 536 Q117 543 113 555 Q101 553 97 553 Q78 553 65.5 570 Q53 587 53 613 Q53 677 105 677 Q167 677 167 579 Q167 513 134 447 L122 423 Q109 397 94 397 Q74 397 74 416 Q74 423 79 431 L91 451 Q104 472 114 516 Q117 529 117 536 Z " />
<glyph glyph-name="divide" unicode="&#xf7;" horiz-adv-x="500" d="M203 516 Q203 535 217 548.5 Q231 562 250 562 Q269 562 283 548.5 Q297 535 297 516 Q297 497 283 483 Q269 469 250 469 Q231 469 217 483 Q203 497 203 516 Z M203 149 Q203 169 217 182.5 Q231 196 250 196 Q270 196 283.5 182 Q297 168 297 149 Q297 130 283 116 Q269 102 250 102 Q231 102 217 116 Q203 130 203 149 Z M33 301 L33 363 L467 363 L467 301 L33 301 Z " />
<glyph glyph-name="lozenge" unicode="&#x25ca;" horiz-adv-x="667" d="M74 334 L333 693 L593 334 L333 -26 L74 334 Z M515 334 L333 584 L151 334 L333 83 L515 334 Z " />
<glyph glyph-name="ydieresis" unicode="&#xff;" horiz-adv-x="470" d="M166 378 L243 81 L320 401 Q323 414 323 418 Q323 431 305 431 Q301 431 299 430 Q293 429 285 429 Q273 429 264 439 Q255 449 255 462 Q255 495 289 495 Q302 495 328.5 492 Q355 489 369 489 Q382 489 406.5 492 Q431 495 443 495 Q475 495 475 462 Q475 430 442 430 Q441 430 437 431 Q433 431 431 431 Q421 433 419 433 Q404 433 395 402 L383 361 L299 71 Q256 -76 212.5 -136 Q169 -196 103 -196 Q56 -196 24.5 -165 Q-7 -134 -7 -87 Q-7 -58 8 -38.5 Q23 -19 46 -19 Q66 -19 78.5 -33 Q91 -47 91 -69 Q91 -96 72 -110 Q84 -126 105 -126 Q140 -126 168.5 -85.5 Q197 -45 197 6 Q197 18 193 31 L183 63 L86 389 Q73 431 48 431 L42 431 Q33 429 27 429 Q16 429 7.5 439 Q-1 449 -1 463 Q-1 495 31 495 Q44 495 70 490 Q96 485 110 485 Q124 485 151.5 490 Q179 495 192 495 Q223 495 223 463 Q223 428 194 428 Q187 428 181 429 Q179 430 174 430 Q159 430 159 416 Q159 409 160 405 L166 378 Z M162 562 Q114 562 114 622 Q114 681 162 681 Q211 681 211 622 Q211 562 162 562 Z M318 562 Q269 562 269 622 Q269 681 318 681 Q366 681 366 622 Q366 562 318 562 Z " />
<glyph glyph-name="Ydieresis" unicode="&#x178;" horiz-adv-x="542" d="M183 537 L272 332 L374 564 Q381 581 381 585 Q381 598 369 598 Q364 598 355 596 Q346 594 341 594 Q312 594 312 632 Q312 671 346 671 Q356 671 382.5 665.5 Q409 660 425 660 Q450 660 478 666 Q502 671 513 671 Q548 671 548 632 Q548 595 516 595 Q509 595 500 598 Q488 600 486 600 Q472 600 460 579 L450 561 L439 537 L313 271 Q308 261 307 245 Q305 236 305 222 L305 118 Q305 62 336 62 Q347 62 355 64 Q369 66 374 66 Q405 66 405 33 Q405 17 395 6 Q385 -5 370 -5 Q353 -5 320.5 1 Q288 7 271 7 Q252 7 216.5 1 Q181 -5 164 -5 Q127 -5 127 33 Q127 66 160 66 Q167 66 180.5 64 Q194 62 200 62 Q226 62 232 125 Q234 140 234 202 L234 225 Q234 250 227 267 Q224 274 214 297 L82 575 Q69 599 54 599 Q49 599 39.5 597.5 Q30 596 25 596 Q-6 596 -6 633 Q-6 672 30 672 Q41 672 71 666 Q101 660 119 660 Q135 660 161 665.5 Q187 671 197 671 Q212 671 222.5 659.5 Q233 648 233 631 Q233 594 200 594 Q195 594 186.5 596 Q178 598 174 598 Q164 598 164 586 Q164 585 165 581.5 Q166 578 173 561 L183 537 Z M196 726 Q176 726 162 743 Q148 760 148 785 Q148 811 162 828 Q176 845 196 845 Q217 845 230.5 828.5 Q244 812 244 786 Q244 760 230.5 743 Q217 726 196 726 Z M352 726 Q332 726 318 743 Q304 760 304 785 Q304 811 318 828 Q332 845 352 845 Q373 845 386.5 828.5 Q400 812 400 786 Q400 760 386.5 743 Q373 726 352 726 Z " />
<glyph glyph-name="fraction" unicode="&#x2044;" horiz-adv-x="99" d="M225 661 Q225 655 223 652 L-69 11 Q-78 -8 -105 -8 Q-127 -8 -127 4 Q-127 5 -123 17 L166 654 Q176 675 202 675 Q225 675 225 661 Z " />
<glyph glyph-name="Euro" unicode="&#x20ac;" horiz-adv-x="500" d="M143 248 Q167 60 281 60 Q331 60 359.5 94.5 Q388 129 395 210 Q398 245 435 245 Q466 245 466 201 Q466 117 414 52.5 Q362 -12 276 -12 Q98 -12 68 248 L35 247 Q3 247 3 276 Q3 307 33 307 L64 307 Q63 316 63 337 Q63 357 64 368 L35 367 Q3 367 3 396 Q3 427 33 427 L68 427 Q83 549 135.5 614 Q188 679 273 679 Q311 679 342.5 661 Q374 643 384 614 L384 624 Q384 662 392 671 Q400 680 414 680 Q444 680 444 642 Q444 623 441 585 Q437 550 437 526 L437 514 Q438 508 438 501 L440 470 Q440 463 441 459 L441 456 L442 455 L442 456 L442 456 L442 454 Q442 419 412 419 Q379 419 379 450 L379 458 Q379 609 277 609 Q163 609 142 425 L238 426 Q273 426 273 397 Q273 365 240 365 L237 365 L138 368 L138 337 Q138 315 139 305 L238 306 Q273 306 273 277 Q273 245 240 245 L237 245 L143 248 Z " />
<glyph glyph-name="guilsinglleft" unicode="&#x2039;" horiz-adv-x="216" d="M157 438 L105 288 L154 150 Q157 142 157 134 Q157 118 143 118 Q134 118 125 132 L36 278 Q30 288 30 289 Q30 292 36 302 L132 455 Q134 459 137 463 Q140 467 146 467 Q159 467 159 451 Q159 442 157 438 Z " />
<glyph glyph-name="guilsinglright" unicode="&#x203a;" horiz-adv-x="216" d="M59 147 L111 297 L62 435 Q59 443 59 451 Q59 467 73 467 Q82 467 91 453 L180 307 Q186 297 186 296 Q186 293 180 283 L84 130 Q82 126 79 122 Q76 118 69 118 Q57 118 57 134 Q57 143 59 147 Z " />
<glyph glyph-name="fi" unicode="&#xfb01;" horiz-adv-x="476" d="M294 571 Q294 588 309 611 Q289 626 261 626 Q171 626 171 519 Q171 492 213 488 Q208 488 275 490 L317 491 Q350 492 356.5 493 Q363 494 375 494 Q395 494 395 474 Q395 471 395 465 Q394 457 394 453 L393 422 L393 368 L392 315 L392 254 L391 199 Q391 191 392 146 Q392 132 393 109 Q393 69 401 63 Q405 61 413 61 Q409 61 421 62 Q429 63 433 63 Q461 63 461 30 Q461 16 451 5.5 Q441 -5 427 -5 Q420 -5 398 -1 Q376 3 359 3 Q347 3 325 -1 Q303 -5 295 -5 Q282 -5 272 6 Q262 17 262 32 Q262 62 284 62 Q292 61 297 61 L299 61 Q318 61 320 96 L322 130 L323 192 L321 375 Q320 413 313.5 421 Q307 429 277 429 L243 429 Q186 429 177.5 422.5 Q169 416 169 381 L169 142 Q169 61 183 61 Q185 61 188 62 Q192 62 193 62 Q196 63 202 63 Q227 63 227 35 Q227 19 218 7 Q209 -5 196 -5 Q185 -5 162.5 -1 Q140 3 128 3 Q111 3 94 0 Q66 -5 62 -5 Q30 -5 30 28 Q30 63 60 63 Q61 63 65 63 Q69 62 72 61.5 Q75 61 80 61 Q98 61 99 95 L101 146 L100 405 Q99 424 86 424 Q83 424 73 423 L67 423 Q28 423 28 459 Q28 497 66 497 Q70 497 78.5 496 Q87 495 91 495 Q104 495 104 511 L104 517 Q104 563 113 595 Q141 692 261 692 Q318 692 357 664 Q396 636 396 595 Q396 567 379 548 Q362 529 337 529 Q294 529 294 571 Z " />
<glyph glyph-name="fl" unicode="&#xfb02;" horiz-adv-x="478" d="M394 470 L396 88 Q397 63 416 63 L424 63 Q426 63 428 64 Q431 64 432 64 Q463 64 463 29 Q463 15 452.5 5 Q442 -5 427 -5 Q419 -5 390 0 Q372 3 355 3 Q341 3 331 1 Q302 -5 293 -5 Q279 -5 269.5 5.5 Q260 16 260 32 Q260 63 286 63 Q293 63 298 62 L305 62 Q319 62 321 96 L323 134 L325 253 L325 466 Q325 583 319 593 Q303 620 243 620 Q172 620 172 516 Q172 493 191 493 Q197 493 209 495 Q221 497 227 497 Q261 497 261 461 Q261 425 221 425 Q210 425 204 426.5 Q198 428 188 428 Q169 428 169 382 L169 101 Q169 63 184 63 Q190 63 192.5 63.5 Q195 64 198 65 Q201 65 202 65 Q226 65 226 35 Q226 -5 194 -5 Q182 -5 157.5 -1 Q133 3 121 3 Q106 3 90 0 Q64 -5 58 -5 Q29 -5 29 27 Q29 65 58 65 Q59 65 63 65 Q67 64 69.5 63.5 Q72 63 78 63 Q97 63 98 100 L100 154 L101 217 L100 407 Q99 425 85 425 L74 425 Q71 424 66 424 Q28 424 28 459 Q28 498 68 498 Q70 498 74 498 Q78 497 80 497 Q90 495 92 495 Q105 495 105 516 L105 522 Q105 565 114 598 Q124 636 156 661 Q188 686 226 686 Q250 686 296 670 Q319 662 334 662 Q342 662 356 665 Q375 669 384 669 Q399 669 399 649 Q399 637 397 583 Q394 502 394 470 Z " />
<glyph glyph-name="daggerdbl" unicode="&#x2021;" horiz-adv-x="500" d="M207 241 Q207 272 238 321 Q204 311 143 298 Q114 292 102 292 Q79 292 63 305 Q47 318 47 337 Q47 355 61.5 366.5 Q76 378 99 378 Q135 378 217 354 Q225 351 238 348 Q214 381 214 410 Q214 440 238 482 L214 474 L182 466 L142 457 Q130 453 113 453 Q47 453 47 498 Q47 538 103 538 Q136 538 173 528 L238 510 L220 561 Q208 595 208 621 Q208 680 250 680 Q292 680 292 621 Q292 595 280 561 L262 510 L283 516 L327 528 Q364 538 397 538 Q453 538 453 497 Q453 453 389 453 Q370 453 358 457 L318 466 L286 474 L262 482 Q286 440 286 412 Q286 382 262 348 Q270 350 283 354 Q358 378 401 378 Q453 378 453 336 Q453 318 437 305 Q421 292 398 292 Q386 292 352 299 L315 307 Q288 313 262 321 Q293 270 293 241 Q293 234 292 231 L290 210 L262 -110 Q260 -132 250 -132 Q240 -132 238 -110 L208 231 Q207 234 207 241 Z " />
<glyph glyph-name="middot" unicode="&#xb7;" horiz-adv-x="109" d="M54 270 Q31 270 15.5 288.5 Q0 307 0 336 Q0 364 15.5 383 Q31 402 54 402 Q78 402 93.5 383.5 Q109 365 109 336 Q109 307 93.5 288.5 Q78 270 54 270 Z " />
<glyph glyph-name="quotesinglbase" unicode="&#x201a;" horiz-adv-x="220" d="M117 -26 Q117 -18 113 -6 Q107 -8 97 -8 Q53 -8 53 52 Q53 116 105 116 Q167 116 167 18 Q167 -49 134 -115 L122 -139 Q109 -164 94 -164 Q74 -164 74 -145 Q74 -138 79 -130 L91 -110 Q99 -97 108 -68.5 Q117 -40 117 -26 Z " />
<glyph glyph-name="quotedblbase" unicode="&#x201e;" horiz-adv-x="367" d="M117 -26 Q117 -18 113 -6 Q107 -8 97 -8 Q53 -8 53 52 Q53 116 105 116 Q167 116 167 18 Q167 -49 134 -115 L122 -139 Q109 -164 94 -164 Q74 -164 74 -145 Q74 -138 79 -130 L91 -110 Q99 -97 108 -68.5 Q117 -40 117 -26 Z M263 -26 Q263 -15 260 -6 Q253 -8 244 -8 Q200 -8 200 52 Q200 116 252 116 Q314 116 314 18 Q314 -54 281 -115 L268 -139 Q254 -164 241 -164 Q221 -164 221 -145 Q221 -139 226 -130 L237 -110 Q263 -63 263 -26 Z " />
<glyph glyph-name="perthousand" unicode="&#x2030;" horiz-adv-x="1105" d="M168 251 Q109 251 71 311.5 Q33 372 33 466 Q33 559 71 619.5 Q109 680 168 680 Q226 680 264 619.5 Q302 559 302 466 Q302 372 264 311.5 Q226 251 168 251 Z M563 663 Q563 661 560 654 L268 13 Q259 -6 232 -6 Q210 -6 210 7 Q210 10 214 19 L504 656 Q514 677 539 677 Q563 677 563 663 Z M602 -13 Q543 -13 505.5 47 Q468 107 468 201 Q468 295 506 355.5 Q544 416 602 416 Q661 416 699 355.5 Q737 295 737 201 Q737 107 699 47 Q661 -13 602 -13 Z M937 -13 Q878 -13 840.5 47 Q803 107 803 201 Q803 295 841 355.5 Q879 416 938 416 Q996 416 1034 355.5 Q1072 295 1072 201 Q1072 107 1034 47 Q996 -13 937 -13 Z M169 620 Q138 620 117.5 576.5 Q97 533 97 466 Q97 400 117 355.5 Q137 311 167 311 Q198 311 218.5 354.5 Q239 398 239 466 Q239 531 218.5 575.5 Q198 620 169 620 Z M604 356 Q573 356 552.5 312 Q532 268 532 201 Q532 135 552 90.5 Q572 46 602 46 Q633 46 653.5 90 Q674 134 674 201 Q674 267 653.5 311.5 Q633 356 604 356 Z M939 356 Q908 356 887.5 312 Q867 268 867 201 Q867 135 887 90.5 Q907 46 937 46 Q968 46 988.5 90 Q1009 134 1009 201 Q1009 267 988.5 311.5 Q968 356 939 356 Z " />
<glyph glyph-name="Acircumflex" unicode="&#xc2;" horiz-adv-x="564" d="M123 202 L239 625 Q248 655 254 663 Q265 680 288 680 Q316 680 326 666.5 Q336 653 351 592 L466 135 Q478 92 486 78.5 Q494 65 508 65 Q512 65 526 67 Q529 67 533 68 Q537 68 538 68 Q570 68 570 34 Q570 -5 536 -5 Q532 -5 490 3 Q469 7 446 7 Q428 7 396.5 1 Q365 -5 354 -5 Q340 -5 329 6 Q318 17 318 33 Q318 68 351 68 Q357 68 360 67 Q363 67 367 67 Q371 66 372 66 Q395 66 395 98 Q395 115 389 140 L371 214 Q367 230 363 233.5 Q359 237 346 237 L225 237 Q204 237 195 202 L177 131 Q170 103 170 86 Q170 67 188 67 Q195 67 198 67.5 Q201 68 205 69 Q210 69 211 69 Q243 69 243 33 Q243 -5 210 -5 Q197 -5 169 1 Q141 7 125 7 Q103 7 73 1 Q43 -5 31 -5 Q-5 -5 -5 32 Q-5 68 26 68 Q32 68 42 66 Q52 64 57 64 Q73 64 87.5 94 Q102 124 123 202 Z M418 728 L291 782 L166 728 Q158 726 154 726 Q139 726 139 739 Q139 746 148 754 L161 765 L267 860 Q280 872 292 872 Q304 872 317 860 L436 754 Q445 746 445 739 Q445 726 429 726 Q426 726 418 728 Z M346 327 L291 574 L227 327 Q225 319 225 316 Q225 303 244 303 L331 303 Q348 303 348 315 Q348 318 346 327 Z " />
<glyph glyph-name="Ecircumflex" unicode="&#xca;" horiz-adv-x="539" d="M191 497 L191 435 L192 414 Q193 386 211 386 L250 386 Q291 386 291 433 Q291 448 290 458 Q287 487 287 491 Q287 529 317 529 Q346 529 346 482 Q346 461 346 461 L342 407 Q340 380 340 352 Q340 303 345 254 Q347 234 347 228 Q347 188 317 188 Q288 188 288 229 Q288 238 289.5 257 Q291 276 291 285 Q291 327 253 327 L211 327 Q197 327 194 321 Q191 315 191 287 L191 217 Q191 206 192 166 Q192 166 192 118 Q192 84 209 75 Q221 69 258 69 L312 69 Q378 69 399 87 Q420 105 420 162 Q420 175 418 200.5 Q416 226 416 239 Q416 284 449 284 Q482 284 482 244 Q482 237 480 211 Q474 177 474 133 Q474 119 475 90 Q476 61 476 47 Q476 20 465 9.5 Q454 -1 425 -1 Q408 -1 382 2 Q339 7 256 7 Q249 7 175 4 Q134 2 117 0 Q81 -5 65 -5 Q26 -5 26 35 Q26 68 58 68 Q68 68 73 66 Q89 64 91 64 Q110 64 115 93.5 Q120 123 120 238 L120 428 Q120 544 115 573.5 Q110 603 91 603 Q86 603 75 600.5 Q64 598 58 598 Q26 598 26 632 Q26 671 64 671 Q73 671 130 663 Q151 660 182 660 Q261 660 350 667 Q375 669 415 669 Q459 669 464 646 Q466 636 466 618 Q466 604 465 581 Q462 517 465 477 L468 429 Q468 388 437 388 Q403 388 403 433 Q403 446 404 470.5 Q405 495 405 508 Q405 563 389 582 Q373 601 327 601 L250 601 Q210 601 200.5 584 Q191 567 191 497 Z M394 728 L267 782 L142 728 Q134 726 130 726 Q115 726 115 739 Q115 746 124 754 L137 765 L243 860 Q256 872 268 872 Q280 872 293 860 L411 754 Q421 745 421 739 Q421 726 405 726 Q399 726 394 728 Z " />
<glyph glyph-name="Aacute" unicode="&#xc1;" horiz-adv-x="564" d="M123 202 L239 625 Q248 655 254 663 Q265 680 288 680 Q316 680 326 666.5 Q336 653 351 592 L466 135 Q478 92 486 78.5 Q494 65 508 65 Q512 65 526 67 Q529 67 533 68 Q537 68 538 68 Q570 68 570 34 Q570 -5 536 -5 Q532 -5 490 3 Q469 7 446 7 Q428 7 396.5 1 Q365 -5 354 -5 Q340 -5 329 6 Q318 17 318 33 Q318 68 351 68 Q357 68 360 67 Q363 67 367 67 Q371 66 372 66 Q395 66 395 98 Q395 115 389 140 L371 214 Q367 230 363 233.5 Q359 237 346 237 L225 237 Q204 237 195 202 L177 131 Q170 103 170 86 Q170 67 188 67 Q195 67 198 67.5 Q201 68 205 69 Q210 69 211 69 Q243 69 243 33 Q243 -5 210 -5 Q197 -5 169 1 Q141 7 125 7 Q103 7 73 1 Q43 -5 31 -5 Q-5 -5 -5 32 Q-5 68 26 68 Q32 68 42 66 Q52 64 57 64 Q73 64 87.5 94 Q102 124 123 202 Z M234 791 L305 857 Q331 881 354 881 Q369 881 380.5 868.5 Q392 856 392 839 Q392 818 372 802 Q364 795 334 779 L234 726 Q213 715 208 715 Q185 715 185 735 Q185 749 206 767 Q215 775 234 791 Z M346 327 L291 574 L227 327 Q225 319 225 316 Q225 303 244 303 L331 303 Q348 303 348 315 Q348 318 346 327 Z " />
<glyph glyph-name="Edieresis" unicode="&#xcb;" horiz-adv-x="539" d="M191 497 L191 435 L192 414 Q193 386 211 386 L250 386 Q291 386 291 433 Q291 448 290 458 Q287 487 287 491 Q287 529 317 529 Q346 529 346 482 Q346 461 346 461 L342 407 Q340 380 340 352 Q340 303 345 254 Q347 234 347 228 Q347 188 317 188 Q288 188 288 229 Q288 238 289.5 257 Q291 276 291 285 Q291 327 253 327 L211 327 Q197 327 194 321 Q191 315 191 287 L191 217 Q191 206 192 166 Q192 166 192 118 Q192 84 209 75 Q221 69 258 69 L312 69 Q378 69 399 87 Q420 105 420 162 Q420 175 418 200.5 Q416 226 416 239 Q416 284 449 284 Q482 284 482 244 Q482 237 480 211 Q474 177 474 133 Q474 119 475 90 Q476 61 476 47 Q476 20 465 9.5 Q454 -1 425 -1 Q408 -1 382 2 Q339 7 256 7 Q249 7 175 4 Q134 2 117 0 Q81 -5 65 -5 Q26 -5 26 35 Q26 68 58 68 Q68 68 73 66 Q89 64 91 64 Q110 64 115 93.5 Q120 123 120 238 L120 428 Q120 544 115 573.5 Q110 603 91 603 Q86 603 75 600.5 Q64 598 58 598 Q26 598 26 632 Q26 671 64 671 Q73 671 130 663 Q151 660 182 660 Q261 660 350 667 Q375 669 415 669 Q459 669 464 646 Q466 636 466 618 Q466 604 465 581 Q462 517 465 477 L468 429 Q468 388 437 388 Q403 388 403 433 Q403 446 404 470.5 Q405 495 405 508 Q405 563 389 582 Q373 601 327 601 L250 601 Q210 601 200.5 584 Q191 567 191 497 Z M190 726 Q169 726 155.5 742.5 Q142 759 142 785 Q142 811 155.5 828 Q169 845 190 845 Q210 845 224 828 Q238 811 238 786 Q238 760 224 743 Q210 726 190 726 Z M346 726 Q325 726 311.5 742.5 Q298 759 298 785 Q298 811 311.5 828 Q325 845 346 845 Q366 845 380 828 Q394 811 394 786 Q394 760 380 743 Q366 726 346 726 Z " />
<glyph glyph-name="Egrave" unicode="&#xc8;" horiz-adv-x="539" d="M191 497 L191 435 L192 414 Q193 386 211 386 L250 386 Q291 386 291 433 Q291 448 290 458 Q287 487 287 491 Q287 529 317 529 Q346 529 346 482 Q346 461 346 461 L342 407 Q340 380 340 352 Q340 303 345 254 Q347 234 347 228 Q347 188 317 188 Q288 188 288 229 Q288 238 289.5 257 Q291 276 291 285 Q291 327 253 327 L211 327 Q197 327 194 321 Q191 315 191 287 L191 217 Q191 206 192 166 Q192 166 192 118 Q192 84 209 75 Q221 69 258 69 L312 69 Q378 69 399 87 Q420 105 420 162 Q420 175 418 200.5 Q416 226 416 239 Q416 284 449 284 Q482 284 482 244 Q482 237 480 211 Q474 177 474 133 Q474 119 475 90 Q476 61 476 47 Q476 20 465 9.5 Q454 -1 425 -1 Q408 -1 382 2 Q339 7 256 7 Q249 7 175 4 Q134 2 117 0 Q81 -5 65 -5 Q26 -5 26 35 Q26 68 58 68 Q68 68 73 66 Q89 64 91 64 Q110 64 115 93.5 Q120 123 120 238 L120 428 Q120 544 115 573.5 Q110 603 91 603 Q86 603 75 600.5 Q64 598 58 598 Q26 598 26 632 Q26 671 64 671 Q73 671 130 663 Q151 660 182 660 Q261 660 350 667 Q375 669 415 669 Q459 669 464 646 Q466 636 466 618 Q466 604 465 581 Q462 517 465 477 L468 429 Q468 388 437 388 Q403 388 403 433 Q403 446 404 470.5 Q405 495 405 508 Q405 563 389 582 Q373 601 327 601 L250 601 Q210 601 200.5 584 Q191 567 191 497 Z M328 715 Q324 715 303 726 L203 779 Q167 798 155.5 810 Q144 822 144 839 Q144 856 155.5 868.5 Q167 881 182 881 Q205 881 231 857 L303 791 Q310 785 321 775 Q351 750 351 736 Q351 715 328 715 Z " />
<glyph glyph-name="Iacute" unicode="&#xcd;" horiz-adv-x="313" d="M91 64 Q110 64 115 93.5 Q120 123 120 238 L120 428 Q120 544 115 573.5 Q110 603 91 603 Q86 603 75 600.5 Q64 598 58 598 Q26 598 26 632 Q26 671 64 671 Q79 671 109 665.5 Q139 660 154 660 Q170 660 201 665.5 Q232 671 248 671 Q287 671 287 632 Q287 598 254 598 Q251 598 240 600.5 Q229 603 221 603 Q202 603 197.5 573.5 Q193 544 193 428 L193 238 Q193 123 197.5 93.5 Q202 64 221 64 Q225 64 239 66 Q245 68 254 68 Q268 68 277.5 58.5 Q287 49 287 35 Q287 18 276 6.5 Q265 -5 249 -5 Q244 -5 201 3 Q179 7 159 7 Q141 7 109.5 1 Q78 -5 64 -5 Q48 -5 37 6.5 Q26 18 26 35 Q26 68 58 68 Q68 68 73 66 Q89 64 91 64 Z M90 775 Q95 779 108 791 L180 857 Q206 881 228 881 Q244 881 255.5 868.5 Q267 856 267 839 Q267 822 255.5 810 Q244 798 208 779 L108 726 Q87 715 82 715 Q60 715 60 735 Q60 751 90 775 Z " />
<glyph glyph-name="Icircumflex" unicode="&#xce;" horiz-adv-x="313" d="M91 64 Q110 64 115 93.5 Q120 123 120 238 L120 428 Q120 544 115 573.5 Q110 603 91 603 Q86 603 75 600.5 Q64 598 58 598 Q26 598 26 632 Q26 671 64 671 Q79 671 109 665.5 Q139 660 154 660 Q170 660 201 665.5 Q232 671 248 671 Q287 671 287 632 Q287 598 254 598 Q251 598 240 600.5 Q229 603 221 603 Q202 603 197.5 573.5 Q193 544 193 428 L193 238 Q193 123 197.5 93.5 Q202 64 221 64 Q225 64 239 66 Q245 68 254 68 Q268 68 277.5 58.5 Q287 49 287 35 Q287 18 276 6.5 Q265 -5 249 -5 Q244 -5 201 3 Q179 7 159 7 Q141 7 109.5 1 Q78 -5 64 -5 Q48 -5 37 6.5 Q26 18 26 35 Q26 68 58 68 Q68 68 73 66 Q89 64 91 64 Z M282 728 L156 782 L30 728 Q25 726 19 726 Q3 726 3 739 Q3 745 13 754 L25 765 L131 860 Q144 872 156 872 Q168 872 181 860 L300 754 Q309 746 309 739 Q309 726 294 726 Q290 726 282 728 Z " />
<glyph glyph-name="Idieresis" unicode="&#xcf;" horiz-adv-x="313" d="M91 64 Q110 64 115 93.5 Q120 123 120 238 L120 428 Q120 544 115 573.5 Q110 603 91 603 Q86 603 75 600.5 Q64 598 58 598 Q26 598 26 632 Q26 671 64 671 Q79 671 109 665.5 Q139 660 154 660 Q170 660 201 665.5 Q232 671 248 671 Q287 671 287 632 Q287 598 254 598 Q251 598 240 600.5 Q229 603 221 603 Q202 603 197.5 573.5 Q193 544 193 428 L193 238 Q193 123 197.5 93.5 Q202 64 221 64 Q225 64 239 66 Q245 68 254 68 Q268 68 277.5 58.5 Q287 49 287 35 Q287 18 276 6.5 Q265 -5 249 -5 Q244 -5 201 3 Q179 7 159 7 Q141 7 109.5 1 Q78 -5 64 -5 Q48 -5 37 6.5 Q26 18 26 35 Q26 68 58 68 Q68 68 73 66 Q89 64 91 64 Z M89 725 Q69 725 55.5 742 Q42 759 42 785 Q42 808 57 826.5 Q72 845 92 845 Q112 845 126 827.5 Q140 810 140 786 Q140 761 125 743 Q110 725 89 725 Z M220 725 Q200 725 186.5 742.5 Q173 760 173 785 Q173 808 188.5 826.5 Q204 845 223 845 Q243 845 257 827.5 Q271 810 271 786 Q271 761 256 743 Q241 725 220 725 Z " />
<glyph glyph-name="Igrave" unicode="&#xcc;" horiz-adv-x="313" d="M91 64 Q110 64 115 93.5 Q120 123 120 238 L120 428 Q120 544 115 573.5 Q110 603 91 603 Q86 603 75 600.5 Q64 598 58 598 Q26 598 26 632 Q26 671 64 671 Q79 671 109 665.5 Q139 660 154 660 Q170 660 201 665.5 Q232 671 248 671 Q287 671 287 632 Q287 598 254 598 Q251 598 240 600.5 Q229 603 221 603 Q202 603 197.5 573.5 Q193 544 193 428 L193 238 Q193 123 197.5 93.5 Q202 64 221 64 Q225 64 239 66 Q245 68 254 68 Q268 68 277.5 58.5 Q287 49 287 35 Q287 18 276 6.5 Q265 -5 249 -5 Q244 -5 201 3 Q179 7 159 7 Q141 7 109.5 1 Q78 -5 64 -5 Q48 -5 37 6.5 Q26 18 26 35 Q26 68 58 68 Q68 68 73 66 Q89 64 91 64 Z M230 715 Q226 715 205 726 L105 779 Q69 798 57.5 810 Q46 822 46 839 Q46 856 57.5 868.5 Q69 881 84 881 Q107 881 133 857 L205 791 Q208 788 232 767 Q253 749 253 736 Q253 715 230 715 Z " />
<glyph glyph-name="Oacute" unicode="&#xd3;" horiz-adv-x="509" d="M255 -13 Q157 -13 98.5 81 Q40 175 40 333 Q40 491 98.5 585.5 Q157 680 255 680 Q353 680 411 586 Q469 492 469 333 Q469 175 411 81 Q353 -13 255 -13 Z M175 775 Q180 779 193 791 L265 857 Q291 881 313 881 Q329 881 340.5 868.5 Q352 856 352 839 Q352 822 340.5 810 Q329 798 293 779 L193 726 Q172 715 167 715 Q145 715 145 735 Q145 751 175 775 Z M256 610 Q189 610 152.5 537 Q116 464 116 333 Q116 204 152.5 130.5 Q189 57 253 57 Q319 57 356 130 Q393 203 393 333 Q393 462 356.5 536 Q320 610 256 610 Z " />
<glyph glyph-name="Ocircumflex" unicode="&#xd4;" horiz-adv-x="509" d="M255 -13 Q157 -13 98.5 81 Q40 175 40 333 Q40 491 98.5 585.5 Q157 680 255 680 Q353 680 411 586 Q469 492 469 333 Q469 175 411 81 Q353 -13 255 -13 Z M381 728 L254 782 L129 728 Q121 726 117 726 Q102 726 102 739 Q102 746 111 754 L124 765 L230 860 Q243 872 255 872 Q267 872 280 860 L398 754 Q408 745 408 739 Q408 726 392 726 Q386 726 381 728 Z M256 610 Q189 610 152.5 537 Q116 464 116 333 Q116 204 152.5 130.5 Q189 57 253 57 Q319 57 356 130 Q393 203 393 333 Q393 462 356.5 536 Q320 610 256 610 Z " />
<glyph glyph-name="apple" unicode="&#xf8ff;" horiz-adv-x="667" d="M332 518 Q333 591 372.5 636.5 Q412 682 480 691 L480 681 Q480 616 435.5 567 Q391 518 332 518 Z M479 528 Q570 528 623 457 Q543 395 543 317 Q543 211 642 169 Q563 -27 473 -27 Q455 -27 433 -18 L392 -1 Q382 3 359 3 Q320 3 308 -2 L265 -20 Q246 -28 227 -28 Q172 -28 116 54 Q32 178 32 306 Q32 403 84 464.5 Q136 526 219 526 Q250 526 296 508 Q327 496 344 496 Q360 496 387 506 Q446 528 479 528 Z " />
<glyph glyph-name="Ograve" unicode="&#xd2;" horiz-adv-x="509" d="M255 -13 Q157 -13 98.5 81 Q40 175 40 333 Q40 491 98.5 585.5 Q157 680 255 680 Q353 680 411 586 Q469 492 469 333 Q469 175 411 81 Q353 -13 255 -13 Z M329 715 Q324 715 303 726 L203 779 Q167 798 155.5 810 Q144 822 144 839 Q144 856 155.5 868.5 Q167 881 183 881 Q205 881 231 857 L303 791 Q307 787 322 775 Q351 751 351 736 Q351 715 329 715 Z M256 610 Q189 610 152.5 537 Q116 464 116 333 Q116 204 152.5 130.5 Q189 57 253 57 Q319 57 356 130 Q393 203 393 333 Q393 462 356.5 536 Q320 610 256 610 Z " />
<glyph glyph-name="Uacute" unicode="&#xda;" horiz-adv-x="575" d="M102 379 L102 535 Q102 603 73 603 Q69 603 61 601.5 Q53 600 49 600 Q36 600 27 609.5 Q18 619 18 633 Q18 672 55 672 Q69 672 90 667 Q120 660 140 660 Q156 660 185 665.5 Q214 671 227 671 Q243 671 254 659.5 Q265 648 265 632 Q265 618 255.5 608 Q246 598 232 598 Q226 598 215.5 600.5 Q205 603 199 603 Q175 603 170 527 Q170 528 170 428 L170 283 Q170 176 181 132 Q189 98 219 76.5 Q249 55 287 55 Q325 55 354 76.5 Q383 98 393 135 Q404 176 404 283 L404 428 Q404 528 404 527 Q399 603 375 603 Q369 603 358.5 600.5 Q348 598 342 598 Q328 598 318.5 608 Q309 618 309 632 Q309 649 320.5 660 Q332 671 348 671 Q362 671 390 665.5 Q418 660 432 660 Q447 660 476 666.5 Q505 673 520 673 Q555 673 555 635 Q555 602 523 602 L505 602 Q484 602 478.5 584 Q473 566 473 494 L473 401 Q473 375 474 322.5 Q475 270 475 244 Q475 130 449 77 Q428 35 382.5 11 Q337 -13 280 -13 Q228 -13 186 8.5 Q144 30 126 65 Q100 117 100 243 Q100 288 100 288 Q102 357 102 379 Z M225 791 L297 857 Q323 881 346 881 Q361 881 372.5 868.5 Q384 856 384 839 Q384 822 372.5 810 Q361 798 325 779 L225 726 Q204 715 199 715 Q177 715 177 735 Q177 749 195 766 Q210 779 225 791 Z " />
<glyph glyph-name="Ucircumflex" unicode="&#xdb;" horiz-adv-x="575" d="M102 379 L102 535 Q102 603 73 603 Q69 603 61 601.5 Q53 600 49 600 Q36 600 27 609.5 Q18 619 18 633 Q18 672 55 672 Q69 672 90 667 Q120 660 140 660 Q156 660 185 665.5 Q214 671 227 671 Q243 671 254 659.5 Q265 648 265 632 Q265 618 255.5 608 Q246 598 232 598 Q226 598 215.5 600.5 Q205 603 199 603 Q175 603 170 527 Q170 528 170 428 L170 283 Q170 176 181 132 Q189 98 219 76.5 Q249 55 287 55 Q325 55 354 76.5 Q383 98 393 135 Q404 176 404 283 L404 428 Q404 528 404 527 Q399 603 375 603 Q369 603 358.5 600.5 Q348 598 342 598 Q328 598 318.5 608 Q309 618 309 632 Q309 649 320.5 660 Q332 671 348 671 Q362 671 390 665.5 Q418 660 432 660 Q447 660 476 666.5 Q505 673 520 673 Q555 673 555 635 Q555 602 523 602 L505 602 Q484 602 478.5 584 Q473 566 473 494 L473 401 Q473 375 474 322.5 Q475 270 475 244 Q475 130 449 77 Q428 35 382.5 11 Q337 -13 280 -13 Q228 -13 186 8.5 Q144 30 126 65 Q100 117 100 243 Q100 288 100 288 Q102 357 102 379 Z M413 728 L286 782 L161 728 Q153 726 150 726 Q134 726 134 739 Q134 746 143 754 L156 765 L262 860 Q275 872 287 872 Q299 872 312 860 L431 754 Q440 746 440 739 Q440 726 424 726 Q421 726 413 728 Z " />
<glyph glyph-name="Ugrave" unicode="&#xd9;" horiz-adv-x="575" d="M102 379 L102 535 Q102 603 73 603 Q69 603 61 601.5 Q53 600 49 600 Q36 600 27 609.5 Q18 619 18 633 Q18 672 55 672 Q69 672 90 667 Q120 660 140 660 Q156 660 185 665.5 Q214 671 227 671 Q243 671 254 659.5 Q265 648 265 632 Q265 618 255.5 608 Q246 598 232 598 Q226 598 215.5 600.5 Q205 603 199 603 Q175 603 170 527 Q170 528 170 428 L170 283 Q170 176 181 132 Q189 98 219 76.5 Q249 55 287 55 Q325 55 354 76.5 Q383 98 393 135 Q404 176 404 283 L404 428 Q404 528 404 527 Q399 603 375 603 Q369 603 358.5 600.5 Q348 598 342 598 Q328 598 318.5 608 Q309 618 309 632 Q309 649 320.5 660 Q332 671 348 671 Q362 671 390 665.5 Q418 660 432 660 Q447 660 476 666.5 Q505 673 520 673 Q555 673 555 635 Q555 602 523 602 L505 602 Q484 602 478.5 584 Q473 566 473 494 L473 401 Q473 375 474 322.5 Q475 270 475 244 Q475 130 449 77 Q428 35 382.5 11 Q337 -13 280 -13 Q228 -13 186 8.5 Q144 30 126 65 Q100 117 100 243 Q100 288 100 288 Q102 357 102 379 Z M361 715 Q356 715 335 726 L235 779 Q205 795 197 802 Q177 818 177 839 Q177 856 188.5 868.5 Q200 881 215 881 Q238 881 264 857 L335 791 Q344 783 364 766 Q384 749 384 736 Q384 715 361 715 Z " />
<glyph glyph-name="dotlessi" unicode="&#x131;" horiz-adv-x="253" d="M169 316 L169 156 Q169 92 173 77 Q177 62 192 62 L201 62 Q206 63 213 63 Q224 63 232 53 Q240 43 240 29 Q240 -5 208 -5 Q196 -5 170 -1 Q144 3 130 3 Q117 3 93.5 -1 Q70 -5 61 -5 Q30 -5 30 29 Q30 63 57 63 Q64 63 68 62 L77 62 Q92 62 95 75.5 Q98 89 100 156 L101 199 L101 271 Q101 277 100 300.5 Q99 324 99 343 L98 395 Q97 429 74 429 L68 429 Q66 429 63 429 Q59 428 58 428 Q28 428 28 460 Q28 474 38 485 Q48 496 61 496 Q64 496 84 491 Q96 488 104 488 Q109 488 142 494 Q150 495 155 495 Q172 495 172 471 L172 459 Q172 457 171 419 L169 316 Z " />
<glyph glyph-name="circumflex" unicode="&#x2c6;" horiz-adv-x="500" d="M347 570 L251 613 L157 570 Q148 566 139 566 Q118 566 118 580 Q118 590 131 601 L233 688 Q244 697 252 697 Q258 697 269 688 L370 601 Q381 592 381 583 Q381 566 363 566 Q356 566 347 570 Z " />
<glyph glyph-name="tilde" unicode="&#x2dc;" horiz-adv-x="500" d="M333 648 Q350 648 359 658 L377 679 Q383 686 392 686 Q407 686 407 671 Q407 647 380.5 609 Q354 571 313 571 Q285 571 240 591 L201 608 Q187 614 173 614 Q149 614 123 589 Q113 579 107 579 Q93 579 93 595 Q93 610 112 645 Q137 690 180 690 Q204 690 260 669 Q316 648 333 648 Z " />
<glyph glyph-name="firsttonechinese" unicode="&#x2c9;" horiz-adv-x="500" d="M155 640 L200 638 L251 638 Q272 638 290 637 Q304 637 304 637 Q340 639 340 639 Q379 639 379 608 Q379 574 339 574 Q327 574 300 577 L200 577 Q169 574 156 574 Q121 574 121 607 Q121 642 155 640 Z " />
<glyph glyph-name="breve" unicode="&#x2d8;" horiz-adv-x="500" d="M125 712 Q155 662 179 647 Q203 632 253 632 Q334 632 373 700 Q382 715 392 715 Q406 715 406 689 Q406 668 386 638 Q334 559 248 559 Q190 559 142 602 Q94 645 94 698 Q94 725 111 725 Q117 725 125 712 Z " />
<glyph glyph-name="dotaccent" unicode="&#x2d9;" horiz-adv-x="500" d="M248 535 Q228 535 214.5 552.5 Q201 570 201 595 Q201 618 216.5 636.5 Q232 655 251 655 Q271 655 285 637.5 Q299 620 299 596 Q299 570 284.5 552.5 Q270 535 248 535 Z " />
<glyph glyph-name="ring" unicode="&#x2da;" horiz-adv-x="500" d="M250 556 Q218 556 197 579 Q176 602 176 637 Q176 672 197 694.5 Q218 717 250 717 Q282 717 303 694 Q324 671 324 636 Q324 602 303 579 Q282 556 250 556 Z M250 677 Q237 677 227.5 665.5 Q218 654 218 637 Q218 596 250 596 Q282 596 282 637 Q282 654 272.5 665.5 Q263 677 250 677 Z " />
<glyph glyph-name="cedilla" unicode="&#xb8;" horiz-adv-x="500" d="M234 0 L276 0 L266 -38 Q336 -39 336 -102 Q336 -135 314.5 -155 Q293 -175 258 -175 Q230 -175 210.5 -162 Q191 -149 191 -130 Q191 -109 211 -109 Q218 -109 225 -114 L238 -127 Q244 -133 254 -133 Q283 -133 283 -103 Q283 -79 258 -79 Q250 -79 245 -82 L233 -89 Q230 -91 224 -91 Q209 -91 209 -76 Q209 -71 214 -57 L234 0 Z " />
<glyph glyph-name="hungarumlaut" unicode="&#x2dd;" horiz-adv-x="500" d="M245 605 L187 542 Q184 538 178 538 Q166 538 166 552 Q166 554 168 564 Q169 567 171 571.5 Q173 576 173 577 L206 651 Q218 678 237 678 Q267 678 267 648 Q267 629 245 605 Z M340 605 L282 542 Q276 538 272 538 Q260 538 260 552 Q260 556 263 564 Q265 569 267 577 L301 651 Q313 678 332 678 Q362 678 362 648 Q362 629 340 605 Z " />
<glyph glyph-name="ogonek" unicode="&#x2db;" horiz-adv-x="500" d="M183 -103 Q183 -47 275 0 L317 0 Q233 -45 233 -97 Q233 -130 267 -130 Q276 -130 286 -123.5 Q296 -117 301 -117 Q315 -117 315 -135 Q315 -151 296.5 -163 Q278 -175 252 -175 Q222 -175 202.5 -154.5 Q183 -134 183 -103 Z " />
<glyph glyph-name="caron" unicode="&#x2c7;" horiz-adv-x="500" d="M153 693 L249 650 L343 693 Q354 698 361 698 Q381 698 381 683 Q381 673 369 663 L267 576 Q255 566 248 566 Q243 566 231 576 L130 663 Q119 672 119 680 Q119 697 137 697 Q144 697 153 693 Z " />
<glyph glyph-name="currency" unicode="&#xa4;" horiz-adv-x="667" d="M97 83 L59 121 L152 215 Q100 280 100 358 Q100 432 151 500 L57 594 L95 632 L189 538 Q258 590 334 590 Q409 590 477 539 L571 631 L609 594 L516 500 Q567 430 567 358 Q567 285 516 216 L610 122 L573 84 L478 178 Q410 126 334 126 Q262 126 190 177 L97 83 Z M505 358 Q505 429 454.5 479.5 Q404 530 333 530 Q262 530 212 479.5 Q162 429 162 358 Q162 287 212 236.5 Q262 186 333 186 Q404 186 454.5 236.5 Q505 287 505 358 Z " />
<glyph glyph-name="minus" unicode="&#x2212;" horiz-adv-x="549" d="M46 205 L46 267 L503 267 L503 205 L46 205 Z " />
<glyph glyph-name="lefttorightmark" unicode="&#x200e;" d="" />
<glyph glyph-name="gravecmb" unicode="&#x300;" d="M-151 565 Q-157 565 -170 571 L-257 611 Q-295 628 -295 659 Q-295 678 -284 691 Q-273 704 -257 704 Q-240 704 -214 678 L-148 611 Q-134 597 -134 583 Q-134 565 -151 565 Z " />
<glyph glyph-name="acutecmb" unicode="&#x301;" d="M-295 583 Q-295 597 -281 611 L-215 678 Q-189 704 -172 704 Q-156 704 -145 691 Q-134 678 -134 659 Q-134 628 -172 611 L-259 571 Q-272 565 -278 565 Q-295 565 -295 583 Z " />
<glyph glyph-name="circumflexcmb" unicode="&#x302;" d="M-117 570 L-213 613 L-307 570 Q-316 566 -325 566 Q-346 566 -346 580 Q-346 590 -333 601 L-231 688 Q-220 697 -212 697 Q-206 697 -195 688 L-94 601 Q-83 592 -83 583 Q-83 566 -101 566 Q-108 566 -117 570 Z " />
<glyph glyph-name="tildecmb" unicode="&#x303;" d="M-132 648 Q-115 648 -106 658 L-88 679 Q-82 686 -73 686 Q-58 686 -58 671 Q-58 647 -84.5 609 Q-111 571 -152 571 Q-180 571 -225 591 L-264 608 Q-278 614 -292 614 Q-316 614 -342 589 Q-352 579 -358 579 Q-372 579 -372 595 Q-372 610 -353 645 Q-328 690 -285 690 Q-261 690 -205 669 Q-149 648 -132 648 Z " />
<glyph glyph-name="macroncmb" unicode="&#x304;" d="M-310 640 L-265 638 L-214 638 Q-193 638 -175 637 Q-161 637 -161 637 Q-125 639 -125 639 Q-86 639 -86 608 Q-86 574 -126 574 Q-138 574 -165 577 L-265 577 Q-296 574 -309 574 Q-344 574 -344 607 Q-344 642 -310 640 Z " />
<glyph glyph-name="brevecmb" unicode="&#x306;" d="M-340 712 Q-310 662 -286 647 Q-262 632 -212 632 Q-131 632 -92 700 Q-83 715 -73 715 Q-59 715 -59 689 Q-59 668 -79 638 Q-131 559 -217 559 Q-275 559 -323 602 Q-371 645 -371 698 Q-371 725 -354 725 Q-348 725 -340 712 Z " />
<glyph glyph-name="dotaccentcmb" unicode="&#x307;" d="M-217 535 Q-237 535 -250.5 552.5 Q-264 570 -264 595 Q-264 618 -248.5 636.5 Q-233 655 -214 655 Q-194 655 -180 637.5 Q-166 620 -166 596 Q-166 570 -180.5 552.5 Q-195 535 -217 535 Z " />
<glyph glyph-name="dieresiscmb" unicode="&#x308;" d="M-293 562 Q-341 562 -341 622 Q-341 681 -293 681 Q-244 681 -244 622 Q-244 562 -293 562 Z M-137 562 Q-186 562 -186 622 Q-186 681 -137 681 Q-89 681 -89 622 Q-89 562 -137 562 Z " />
<glyph glyph-name="hungarumlautcmb" unicode="&#x30b;" d="M-234 605 L-292 542 Q-295 538 -301 538 Q-313 538 -313 552 Q-313 554 -311 564 Q-310 567 -308 571.5 Q-306 576 -306 577 L-273 651 Q-261 678 -242 678 Q-212 678 -212 648 Q-212 629 -234 605 Z M-139 605 L-197 542 Q-203 538 -207 538 Q-219 538 -219 552 Q-219 556 -216 564 Q-214 569 -212 577 L-178 651 Q-166 678 -147 678 Q-117 678 -117 648 Q-117 629 -139 605 Z " />
<glyph glyph-name="ringcmb" unicode="&#x30a;" d="M-215 556 Q-247 556 -268 579 Q-289 602 -289 637 Q-289 672 -268 694.5 Q-247 717 -215 717 Q-183 717 -162 694 Q-141 671 -141 636 Q-141 602 -162 579 Q-183 556 -215 556 Z M-215 677 Q-228 677 -237.5 665.5 Q-247 654 -247 637 Q-247 596 -215 596 Q-183 596 -183 637 Q-183 654 -192.5 665.5 Q-202 677 -215 677 Z " />
<glyph glyph-name="caroncmb" unicode="&#x30c;" d="M-312 693 L-216 650 L-122 693 Q-111 698 -104 698 Q-84 698 -84 683 Q-84 673 -96 663 L-198 576 Q-210 566 -217 566 Q-222 566 -234 576 L-335 663 Q-346 672 -346 680 Q-346 697 -328 697 Q-321 697 -312 693 Z " />
<glyph glyph-name="cedillacmb" unicode="&#x327;" d="M-244 0 L-202 0 L-212 -38 Q-142 -39 -142 -102 Q-142 -135 -163.5 -155 Q-185 -175 -220 -175 Q-248 -175 -267.5 -162 Q-287 -149 -287 -130 Q-287 -109 -267 -109 Q-260 -109 -253 -114 L-240 -127 Q-234 -133 -224 -133 Q-195 -133 -195 -103 Q-195 -79 -220 -79 Q-228 -79 -233 -82 L-245 -89 Q-248 -91 -254 -91 Q-269 -91 -269 -76 Q-269 -71 -264 -57 L-244 0 Z " />
<glyph glyph-name="ogonekcmb" unicode="&#x328;" d="M-282 -103 Q-282 -47 -190 0 L-148 0 Q-232 -45 -232 -97 Q-232 -130 -198 -130 Q-189 -130 -179 -123.5 Q-169 -117 -164 -117 Q-150 -117 -150 -135 Q-150 -151 -168.5 -163 Q-187 -175 -213 -175 Q-243 -175 -262.5 -154.5 Q-282 -134 -282 -103 Z " />
<glyph glyph-name="soliduslongoverlaycmb" unicode="&#x338;" d="M-14 660 Q-14 656 -18 647 L-358 -93 Q-366 -111 -395 -111 Q-415 -111 -415 -98 Q-415 -94 -411 -85 L-73 654 Q-64 673 -39 673 Q-14 673 -14 660 Z " />
<glyph glyph-name="righttoleftmark" unicode="&#x200f;" d="" />
<glyph glyph-name="dblgravecmb" unicode="&#x30f;" d="M-196 605 Q-218 629 -218 648 Q-218 678 -188 678 Q-169 678 -157 651 L-124 577 Q-124 576 -122 571.5 Q-120 567 -119 564 Q-117 554 -117 552 Q-117 538 -129 538 Q-135 538 -138 542 L-196 605 L-196 605 Z M-291 605 Q-313 629 -313 648 Q-313 678 -283 678 Q-264 678 -252 651 L-218 577 Q-216 569 -214 564 Q-211 556 -211 552 Q-211 538 -223 538 Q-227 538 -233 542 L-291 605 L-291 605 Z " />
<glyph glyph-name="breveinvertedcmb" unicode="&#x311;" d="M-340 572 Q-348 559 -354 559 Q-371 559 -371 586 Q-371 639 -323 682 Q-275 725 -217 725 Q-131 725 -79 646 Q-59 616 -59 595 Q-59 569 -73 569 Q-83 569 -92 584 Q-131 652 -212 652 Q-262 652 -286 637 Q-310 622 -340 572 Z " />
<glyph glyph-name="commaturnedabovecmb" unicode="&#x312;" d="M-221 539 Q-221 528 -218 519 Q-211 521 -202 521 Q-158 521 -158 461 Q-158 397 -210 397 Q-272 397 -272 495 Q-272 567 -239 628 L-226 652 Q-212 677 -199 677 Q-179 677 -179 658 Q-179 652 -184 643 L-195 624 Q-221 579 -221 539 Z " />
<glyph glyph-name="commaabovecmb" unicode="&#x313;" d="M-208 536 Q-208 543 -212 555 Q-224 553 -228 553 Q-247 553 -259.5 570 Q-272 587 -272 613 Q-272 677 -220 677 Q-158 677 -158 579 Q-158 513 -191 447 L-203 423 Q-216 397 -231 397 Q-251 397 -251 416 Q-251 423 -246 431 L-234 451 Q-221 472 -211 516 Q-208 529 -208 536 Z " />
<glyph glyph-name="commareversedabovecmb" unicode="&#x314;" d="M-222 536 Q-222 529 -219 516 Q-209 472 -196 451 L-184 431 Q-179 423 -179 416 Q-179 397 -199 397 Q-214 397 -227 423 L-239 447 Q-272 513 -272 579 Q-272 677 -210 677 Q-158 677 -158 613 Q-158 587 -170.5 570 Q-183 553 -202 553 Q-206 553 -218 555 Q-222 543 -222 536 Z " />
<glyph glyph-name="gravebelowcmb" unicode="&#x316;" d="M-151 -135 Q-157 -135 -170 -129 L-257 -89 Q-295 -72 -295 -41 Q-295 -22 -284 -9 Q-273 4 -257 4 Q-240 4 -214 -22 L-148 -89 Q-134 -103 -134 -117 Q-134 -135 -151 -135 Z " />
<glyph glyph-name="acutebelowcmb" unicode="&#x317;" d="M-295 -117 Q-295 -103 -281 -89 L-215 -22 Q-189 4 -172 4 Q-156 4 -145 -9 Q-134 -22 -134 -41 Q-134 -72 -172 -89 L-259 -129 Q-272 -135 -278 -135 Q-295 -135 -295 -117 Z " />
<glyph glyph-name="dotbelowcmb" unicode="&#x323;" d="M-217 -165 Q-237 -165 -250.5 -147.5 Q-264 -130 -264 -105 Q-264 -82 -248.5 -63.5 Q-233 -45 -214 -45 Q-194 -45 -180 -62.5 Q-166 -80 -166 -104 Q-166 -130 -180.5 -147.5 Q-195 -165 -217 -165 Z " />
<glyph glyph-name="dieresisbelowcmb" unicode="&#x324;" d="M-293 -138 Q-341 -138 -341 -78 Q-341 -19 -293 -19 Q-244 -19 -244 -78 Q-244 -138 -293 -138 Z M-137 -138 Q-186 -138 -186 -78 Q-186 -19 -137 -19 Q-89 -19 -89 -78 Q-89 -138 -137 -138 Z " />
<glyph glyph-name="ringbelowcmb" unicode="&#x325;" d="M-215 -144 Q-247 -144 -268 -121 Q-289 -98 -289 -63 Q-289 -28 -268 -5.5 Q-247 17 -215 17 Q-183 17 -162 -6 Q-141 -29 -141 -64 Q-141 -98 -162 -121 Q-183 -144 -215 -144 Z M-215 -23 Q-228 -23 -237.5 -34.5 Q-247 -46 -247 -63 Q-247 -104 -215 -104 Q-183 -104 -183 -63 Q-183 -46 -192.5 -34.5 Q-202 -23 -215 -23 Z " />
<glyph glyph-name="commaaccent" unicode="&#x326;" d="M-210 -121 Q-210 -112 -212 -105 Q-218 -106 -225 -106 Q-260 -106 -260 -58 Q-260 -7 -219 -7 Q-169 -7 -169 -86 Q-169 -143 -195 -192 L-206 -211 Q-217 -231 -227 -231 Q-243 -231 -243 -216 Q-243 -211 -239 -204 L-231 -188 Q-210 -150 -210 -121 Z " />
<glyph glyph-name="caronbelowcmb" unicode="&#x32c;" d="M-312 -7 L-216 -50 L-122 -7 Q-111 -2 -104 -2 Q-84 -2 -84 -17 Q-84 -27 -96 -37 L-198 -124 Q-210 -134 -217 -134 Q-222 -134 -234 -124 L-335 -37 Q-346 -28 -346 -20 Q-346 -3 -328 -3 Q-321 -3 -312 -7 Z " />
<glyph glyph-name="circumflexbelowcmb" unicode="&#x32d;" d="M-117 -130 L-213 -87 L-307 -130 Q-316 -134 -325 -134 Q-346 -134 -346 -120 Q-346 -110 -333 -99 L-231 -12 Q-220 -3 -212 -3 Q-206 -3 -195 -12 L-94 -99 Q-83 -108 -83 -117 Q-83 -134 -101 -134 Q-108 -134 -117 -130 Z " />
<glyph glyph-name="brevebelowcmb" unicode="&#x32e;" d="M-340 12 Q-310 -38 -286 -53 Q-262 -68 -212 -68 Q-131 -68 -92 0 Q-83 15 -73 15 Q-59 15 -59 -11 Q-59 -32 -79 -62 Q-131 -141 -217 -141 Q-275 -141 -323 -98 Q-371 -55 -371 -2 Q-371 25 -354 25 Q-348 25 -340 12 Z " />
<glyph glyph-name="breveinvertedbelowcmb" unicode="&#x32f;" d="M-340 -128 Q-348 -141 -354 -141 Q-371 -141 -371 -114 Q-371 -61 -323 -18 Q-275 25 -217 25 Q-131 25 -79 -54 Q-59 -84 -59 -105 Q-59 -131 -73 -131 Q-83 -131 -92 -116 Q-131 -48 -212 -48 Q-262 -48 -286 -63 Q-310 -78 -340 -128 Z " />
<glyph glyph-name="tildebelowcmb" unicode="&#x330;" d="M-132 -52 Q-115 -52 -106 -42 L-88 -21 Q-82 -14 -73 -14 Q-58 -14 -58 -29 Q-58 -53 -84.5 -91 Q-111 -129 -152 -129 Q-180 -129 -225 -109 L-264 -92 Q-278 -86 -292 -86 Q-316 -86 -342 -111 Q-352 -121 -358 -121 Q-372 -121 -372 -105 Q-372 -90 -353 -55 Q-328 -10 -285 -10 Q-261 -10 -205 -31 Q-149 -52 -132 -52 Z " />
<glyph glyph-name="macronbelowcmb" unicode="&#x331;" d="M-310 -60 L-265 -62 L-214 -62 Q-193 -62 -175 -63 Q-161 -63 -161 -63 Q-125 -61 -125 -61 Q-86 -61 -86 -92 Q-86 -126 -126 -126 Q-138 -126 -165 -123 L-265 -123 Q-296 -126 -309 -126 Q-344 -126 -344 -93 Q-344 -58 -310 -60 Z " />
<glyph glyph-name="nonbreakinghyphen" unicode="&#x2011;" horiz-adv-x="201" d="M0 289 Q0 325 35 324 L63 323 Q91 322 105 322 Q115 322 135 323 Q155 324 165 324 Q201 324 201 289 Q201 254 165 254 Q162 254 153 255 Q144 256 138 256 Q124 257 101 257 Q77 257 63 256 Q57 256 48 255 Q39 254 36 254 Q0 254 0 289 Z " />
<glyph glyph-name="figuredash" unicode="&#x2012;" horiz-adv-x="500" d="M33 301 L33 363 L467 363 L467 301 L33 301 Z " />
<glyph glyph-name="horizontalbar" unicode="&#x2015;" horiz-adv-x="601" d="M69 324 L78 324 L138 322 Q228 319 300 319 Q372 319 462 322 L532 324 Q601 324 601 287 Q601 266 585.5 258 Q570 250 530 250 Q525 250 462 252 Q367 255 300 255 Q227 255 138 252 L69 250 Q30 250 15 258 Q0 266 0 287 Q0 308 15 316 Q30 324 69 324 Z " />
<glyph glyph-name="notequal" unicode="&#x2260;" horiz-adv-x="500" d="M33 440 L273 440 L328 553 L383 553 L329 440 L466 440 L467 380 L302 380 L256 286 L467 286 L467 225 L229 225 L173 109 L118 109 L173 225 L34 225 L34 286 L200 286 L246 380 L33 380 L33 440 Z " />
<glyph glyph-name="partialdiff" unicode="&#x2202;" horiz-adv-x="500" d="M221 563 Q158 600 78 611 L87 671 Q172 659 225 636 Q350 582 413 458 Q463 360 463 243 Q463 130 402 59.5 Q341 -11 243 -11 Q152 -11 87.5 55.5 Q23 122 23 214 Q23 306 83.5 370.5 Q144 435 232 435 Q281 435 314 418 Q347 401 381 358 Q379 364 375 374 Q344 451 313 488 Q277 530 221 563 Z M392 218 Q392 289 350.5 333.5 Q309 378 244 378 Q180 378 135.5 330 Q91 282 91 212 Q91 144 135.5 96.5 Q180 49 243 49 Q307 49 349.5 97.5 Q392 146 392 218 Z " />
<glyph glyph-name="summation" unicode="&#x2211;" horiz-adv-x="667" d="M29 750 L596 750 L596 526 L535 526 L529 690 L104 690 L356 270 L103 -190 L539 -190 L542 -26 L605 -26 L605 -250 L29 -250 L29 -182 L278 270 L29 683 L29 750 Z " />
<glyph glyph-name="integral" unicode="&#x222b;" horiz-adv-x="500" d="M155 -249 Q125 -249 100 -239 L115 -180 Q140 -190 159 -190 Q203 -190 213 -149 Q216 -136 216 -71 L216 559 Q216 626 217 639 Q222 687 242 712 Q273 750 335 750 Q363 750 400 739 L385 680 Q359 690 341 690 Q306 690 295 671 Q284 652 284 591 L284 -59 Q284 -171 265 -201 Q234 -249 155 -249 Z " />
<glyph glyph-name="radical" unicode="&#x221a;" horiz-adv-x="667" d="M412 827 L667 827 L667 766 L469 766 L248 0 L167 0 L82 302 L0 302 L0 362 L136 362 L175 230 Q180 212 189 167 Q192 152 205 93 L210 93 L215 114 L256 284 L412 827 Z " />
<glyph glyph-name="approxequal" unicode="&#x2248;" horiz-adv-x="500" d="M141 418 Q90 418 50 344 L10 370 Q63 483 145 483 Q182 483 258 448 Q330 415 356 415 Q407 415 449 485 L490 460 Q434 350 348 350 Q316 350 267 372 L209 398 Q164 418 141 418 Z M141 254 Q89 254 50 181 L10 207 Q63 320 145 320 Q182 320 258 285 Q330 252 356 252 Q407 252 449 321 L490 297 Q434 187 348 187 Q316 187 267 209 L209 235 Q167 254 141 254 Z " />
<glyph glyph-name="quoteleftreversed" unicode="&#x201b;" horiz-adv-x="220" d="M103 536 Q103 529 106 516 Q116 472 129 451 L141 431 Q146 423 146 416 Q146 397 126 397 Q111 397 98 423 L86 447 Q53 513 53 579 Q53 677 115 677 Q167 677 167 613 Q167 587 154.5 570 Q142 553 123 553 Q119 553 107 555 Q103 543 103 536 Z " />
<glyph glyph-name="quotedblleftaltone" unicode="&#x201f;" horiz-adv-x="367" d="M250 536 Q250 529 253 516 Q263 472 276 451 L288 431 Q293 423 293 416 Q293 397 273 397 Q258 397 245 423 L233 447 Q200 513 200 579 Q200 677 262 677 Q314 677 314 613 Q314 587 301.5 570 Q289 553 270 553 Q266 553 254 555 Q250 543 250 536 Z M104 536 Q104 525 106 516 Q115 479 130 451 L141 431 Q146 422 146 416 Q146 397 126 397 Q113 397 99 423 L86 447 Q53 508 53 579 Q53 677 115 677 Q167 677 167 613 Q167 587 154.5 570 Q142 553 123 553 Q121 553 107 555 Q104 546 104 536 Z " />
<glyph glyph-name="reversedpilcrow" unicode="&#x204b;" horiz-adv-x="571" d="M243 614 L136 614 L136 -99 L78 -99 L78 614 L20 614 L20 667 L281 667 Q344 667 393 650 Q442 633 471.5 589 Q501 545 501 488 Q501 411 449.5 362.5 Q398 314 317 314 L302 314 L302 -99 L243 -99 L243 614 Z " />
<glyph glyph-name="zerowidthspace" unicode="&#x200b;" d="" />
<glyph glyph-name="zerowidthnonjoiner" unicode="&#x200c;" d="" />
<glyph glyph-name="zerowidthjoiner" unicode="&#x200d;" d="" />
<glyph glyph-name="combininggraphemejoiner" unicode="&#x34f;" d="" />
<glyph glyph-name="centigrade" unicode="&#x2103;" horiz-adv-x="1014" d="M250 396 Q192 396 151 436.5 Q110 477 110 533 Q110 590 151 630 Q192 670 250 670 Q308 670 349 630 Q390 590 390 533 Q390 477 349 436.5 Q308 396 250 396 Z M250 627 Q210 627 182 599.5 Q154 572 154 533 Q154 494 182 466.5 Q210 439 250 439 Q290 439 318 466.5 Q346 494 346 533 Q346 572 318 599.5 Q290 627 250 627 Z M765 679 Q846 679 891 614 L891 624 Q891 657 897.5 668.5 Q904 680 921 680 Q951 680 951 642 Q951 623 947.5 584.5 Q944 546 944 526 Q944 503 947 468 Q950 433 950 416 Q950 373 916 373 Q884 373 884 412 Q884 420 885 435 Q886 450 886 458 Q886 527 854 568 Q822 609 769 609 Q698 609 656.5 535.5 Q615 462 615 337 Q615 213 658 136.5 Q701 60 772 60 Q827 60 861.5 100 Q896 140 902 210 Q905 245 913 256.5 Q921 268 942 268 Q974 268 974 230 Q974 127 914.5 57.5 Q855 -12 767 -12 Q663 -12 601.5 82 Q540 176 540 337 Q540 490 602 584.5 Q664 679 765 679 Z " />
<glyph glyph-name="fahrenheit" unicode="&#x2109;" horiz-adv-x="1002" d="M250 396 Q192 396 151 436.5 Q110 477 110 533 Q110 590 151 630 Q192 670 250 670 Q308 670 349 630 Q390 590 390 533 Q390 477 349 436.5 Q308 396 250 396 Z M250 627 Q210 627 182 599.5 Q154 572 154 533 Q154 494 182 466.5 Q210 439 250 439 Q290 439 318 466.5 Q346 494 346 533 Q346 572 318 599.5 Q290 627 250 627 Z M693 529 L692 496 L692 414 Q692 390 696 384 Q700 378 717 378 L740 378 Q791 378 791 423 Q791 429 788 454 L788 471 Q788 510 818 510 Q848 510 848 476 Q848 448 843.5 392 Q839 336 839 308 Q839 290 845 248 Q848 227 848 214 Q848 173 818 173 Q786 173 786 220 Q786 228 787 245 Q788 262 788 271 Q788 312 750 312 L716 312 Q698 312 695 304.5 Q692 297 692 283 L692 228 L694 109 Q695 64 726 64 Q733 64 746 66.5 Q759 69 766 69 Q797 69 797 37 Q797 -2 762 -2 Q746 -2 714 2.5 Q682 7 666 7 Q647 7 613.5 1 Q580 -5 564 -5 Q548 -5 537 6.5 Q526 18 526 35 Q526 68 558 68 Q568 68 573 66 Q589 64 591 64 Q610 64 615 93.5 Q620 123 620 238 L620 428 Q620 544 615 573.5 Q610 603 591 603 Q586 603 575 600.5 Q564 598 558 598 Q526 598 526 632 Q526 649 536.5 660 Q547 671 563 671 Q576 671 621 663 Q638 660 672 660 Q686 660 761 661 Q785 661 839 664 Q889 667 916 667 Q945 667 956 659.5 Q967 652 967 623 Q967 607 966 579 L964 524 L965 479 L968 431 Q968 431 968 424 Q968 386 938 386 Q901 386 901 429 Q901 435 901 434 L904 474 Q905 478 905 491 Q905 556 891 576 Q877 596 831 596 L758 596 Q693 596 693 557 L693 529 Z " />
<glyph glyph-name="kelvin" unicode="&#x212a;" horiz-adv-x="607" d="M394 123 L266 355 L192 268 L192 238 Q192 139 192 139 Q197 64 221 64 Q225 64 239 66 Q245 68 254 68 Q268 68 277.5 58.5 Q287 49 287 35 Q287 18 276 6.5 Q265 -5 249 -5 Q241 -5 204 2 Q178 7 158 7 Q142 7 111 1 Q80 -5 64 -5 Q48 -5 37 6.5 Q26 18 26 35 Q26 68 58 68 Q68 68 73 66 Q89 64 91 64 Q110 64 115 93.5 Q120 123 120 238 L120 428 Q120 544 115 573.5 Q110 603 91 603 Q86 603 75 600.5 Q64 598 58 598 Q26 598 26 632 Q26 671 65 671 Q83 671 111 666 Q144 660 162 660 Q182 660 201 664 Q234 671 249 671 Q265 671 276 659.5 Q287 648 287 632 Q287 618 277.5 608 Q268 598 254 598 Q251 598 240 600.5 Q229 603 221 603 Q197 603 192 527 Q192 528 192 428 L192 365 L317 501 Q387 577 387 591 Q387 600 376 600 Q372 600 364.5 598.5 Q357 597 353 597 Q322 597 322 635 Q322 671 356 671 Q368 671 386 667 Q410 662 417 662 Q430 660 449 660 Q465 660 496 665.5 Q527 671 542 671 Q579 671 579 635 Q579 620 569.5 609.5 Q560 599 546 599 Q537 599 531 601 Q517 603 515 603 Q499 603 472 574 L438 537 L317 411 L493 102 Q507 78 514.5 71.5 Q522 65 535 65 Q546 65 552 67 Q568 69 571 69 Q602 69 602 33 Q602 -5 566 -5 Q550 -5 518 1 Q486 7 469 7 Q453 7 421.5 1 Q390 -5 374 -5 Q337 -5 337 33 Q337 70 372 70 Q377 70 385.5 68.5 Q394 67 399 67 Q412 67 412 79 Q412 92 405 104 L394 123 Z " />
<glyph glyph-name="angstrom" unicode="&#x212b;" horiz-adv-x="564" d="M123 202 L239 625 Q248 655 254 663 Q265 680 288 680 Q316 680 326 666.5 Q336 653 351 592 L466 135 Q478 92 486 78.5 Q494 65 508 65 Q512 65 526 67 Q529 67 533 68 Q537 68 538 68 Q570 68 570 34 Q570 -5 536 -5 Q532 -5 490 3 Q469 7 446 7 Q428 7 396.5 1 Q365 -5 354 -5 Q340 -5 329 6 Q318 17 318 33 Q318 68 351 68 Q357 68 360 67 Q363 67 367 67 Q371 66 372 66 Q395 66 395 98 Q395 115 389 140 L371 214 Q367 230 363 233.5 Q359 237 346 237 L225 237 Q204 237 195 202 L177 131 Q170 103 170 86 Q170 67 188 67 Q195 67 198 67.5 Q201 68 205 69 Q210 69 211 69 Q243 69 243 33 Q243 -5 210 -5 Q197 -5 169 1 Q141 7 125 7 Q103 7 73 1 Q43 -5 31 -5 Q-5 -5 -5 32 Q-5 68 26 68 Q32 68 42 66 Q52 64 57 64 Q73 64 87.5 94 Q102 124 123 202 Z M289 711 Q261 711 242 732 Q223 753 223 785 Q223 817 242 837.5 Q261 858 289 858 Q317 858 336 837.5 Q355 817 355 785 Q355 753 336 732 Q317 711 289 711 Z M346 327 L291 574 L227 327 Q225 319 225 316 Q225 303 244 303 L331 303 Q348 303 348 315 Q348 318 346 327 Z M289 824 Q277 824 268 812.5 Q259 801 259 785 Q259 746 289 746 Q318 746 318 785 Q318 801 309.5 812.5 Q301 824 289 824 Z " />
<glyph glyph-name="Oneroman" unicode="&#x2160;" horiz-adv-x="313" d="M91 64 Q110 64 115 93.5 Q120 123 120 238 L120 428 Q120 544 115 573.5 Q110 603 91 603 Q86 603 75 600.5 Q64 598 58 598 Q26 598 26 632 Q26 671 64 671 Q79 671 109 665.5 Q139 660 154 660 Q170 660 201 665.5 Q232 671 248 671 Q287 671 287 632 Q287 598 254 598 Q251 598 240 600.5 Q229 603 221 603 Q202 603 197.5 573.5 Q193 544 193 428 L193 238 Q193 123 197.5 93.5 Q202 64 221 64 Q225 64 239 66 Q245 68 254 68 Q268 68 277.5 58.5 Q287 49 287 35 Q287 18 276 6.5 Q265 -5 249 -5 Q244 -5 201 3 Q179 7 159 7 Q141 7 109.5 1 Q78 -5 64 -5 Q48 -5 37 6.5 Q26 18 26 35 Q26 68 58 68 Q68 68 73 66 Q89 64 91 64 Z " />
<glyph glyph-name="Tworoman" unicode="&#x2161;" horiz-adv-x="626" d="M91 64 Q110 64 115 93.5 Q120 123 120 238 L120 428 Q120 544 115 573.5 Q110 603 91 603 Q86 603 75 600.5 Q64 598 58 598 Q26 598 26 632 Q26 671 64 671 Q79 671 109 665.5 Q139 660 154 660 Q170 660 201 665.5 Q232 671 248 671 Q287 671 287 632 Q287 598 254 598 Q251 598 240 600.5 Q229 603 221 603 Q202 603 197.5 573.5 Q193 544 193 428 L193 238 Q193 123 197.5 93.5 Q202 64 221 64 Q225 64 239 66 Q245 68 254 68 Q268 68 277.5 58.5 Q287 49 287 35 Q287 18 276 6.5 Q265 -5 249 -5 Q244 -5 201 3 Q179 7 159 7 Q141 7 109.5 1 Q78 -5 64 -5 Q48 -5 37 6.5 Q26 18 26 35 Q26 68 58 68 Q68 68 73 66 Q89 64 91 64 Z M404 64 Q423 64 428 93.5 Q433 123 433 238 L433 428 Q433 544 428 573.5 Q423 603 404 603 Q399 603 388 600.5 Q377 598 371 598 Q339 598 339 632 Q339 671 377 671 Q392 671 422 665.5 Q452 660 467 660 Q483 660 514 665.5 Q545 671 561 671 Q600 671 600 632 Q600 598 567 598 Q564 598 553 600.5 Q542 603 534 603 Q515 603 510.5 573.5 Q506 544 506 428 L506 238 Q506 123 510.5 93.5 Q515 64 534 64 Q538 64 552 66 Q558 68 567 68 Q581 68 590.5 58.5 Q600 49 600 35 Q600 18 589 6.5 Q578 -5 562 -5 Q557 -5 514 3 Q492 7 472 7 Q454 7 422.5 1 Q391 -5 377 -5 Q361 -5 350 6.5 Q339 18 339 35 Q339 68 371 68 Q381 68 386 66 Q402 64 404 64 Z " />
<glyph glyph-name="Threeroman" unicode="&#x2162;" horiz-adv-x="939" d="M91 64 Q110 64 115 93.5 Q120 123 120 238 L120 428 Q120 544 115 573.5 Q110 603 91 603 Q86 603 75 600.5 Q64 598 58 598 Q26 598 26 632 Q26 671 64 671 Q79 671 109 665.5 Q139 660 154 660 Q170 660 201 665.5 Q232 671 248 671 Q287 671 287 632 Q287 598 254 598 Q251 598 240 600.5 Q229 603 221 603 Q202 603 197.5 573.5 Q193 544 193 428 L193 238 Q193 123 197.5 93.5 Q202 64 221 64 Q225 64 239 66 Q245 68 254 68 Q268 68 277.5 58.5 Q287 49 287 35 Q287 18 276 6.5 Q265 -5 249 -5 Q244 -5 201 3 Q179 7 159 7 Q141 7 109.5 1 Q78 -5 64 -5 Q48 -5 37 6.5 Q26 18 26 35 Q26 68 58 68 Q68 68 73 66 Q89 64 91 64 Z M404 64 Q423 64 428 93.5 Q433 123 433 238 L433 428 Q433 544 428 573.5 Q423 603 404 603 Q399 603 388 600.5 Q377 598 371 598 Q339 598 339 632 Q339 671 377 671 Q392 671 422 665.5 Q452 660 467 660 Q483 660 514 665.5 Q545 671 561 671 Q600 671 600 632 Q600 598 567 598 Q564 598 553 600.5 Q542 603 534 603 Q515 603 510.5 573.5 Q506 544 506 428 L506 238 Q506 123 510.5 93.5 Q515 64 534 64 Q538 64 552 66 Q558 68 567 68 Q581 68 590.5 58.5 Q600 49 600 35 Q600 18 589 6.5 Q578 -5 562 -5 Q557 -5 514 3 Q492 7 472 7 Q454 7 422.5 1 Q391 -5 377 -5 Q361 -5 350 6.5 Q339 18 339 35 Q339 68 371 68 Q381 68 386 66 Q402 64 404 64 Z M717 64 Q736 64 741 93.5 Q746 123 746 238 L746 428 Q746 544 741 573.5 Q736 603 717 603 Q712 603 701 600.5 Q690 598 684 598 Q652 598 652 632 Q652 671 690 671 Q705 671 735 665.5 Q765 660 780 660 Q796 660 827 665.5 Q858 671 874 671 Q913 671 913 632 Q913 598 880 598 Q877 598 866 600.5 Q855 603 847 603 Q828 603 823.5 573.5 Q819 544 819 428 L819 238 Q819 123 823.5 93.5 Q828 64 847 64 Q851 64 865 66 Q871 68 880 68 Q894 68 903.5 58.5 Q913 49 913 35 Q913 18 902 6.5 Q891 -5 875 -5 Q870 -5 827 3 Q805 7 785 7 Q767 7 735.5 1 Q704 -5 690 -5 Q674 -5 663 6.5 Q652 18 652 35 Q652 68 684 68 Q694 68 699 66 Q715 64 717 64 Z " />
<glyph glyph-name="Fourroman" unicode="&#x2163;" horiz-adv-x="836" d="M91 64 Q110 64 115 93.5 Q120 123 120 238 L120 428 Q120 544 115 573.5 Q110 603 91 603 Q86 603 75 600.5 Q64 598 58 598 Q26 598 26 632 Q26 671 64 671 Q79 671 109 665.5 Q139 660 154 660 Q170 660 201 665.5 Q232 671 248 671 Q287 671 287 632 Q287 598 254 598 Q251 598 240 600.5 Q229 603 221 603 Q202 603 197.5 573.5 Q193 544 193 428 L193 238 Q193 123 197.5 93.5 Q202 64 221 64 Q225 64 239 66 Q245 68 254 68 Q268 68 277.5 58.5 Q287 49 287 35 Q287 18 276 6.5 Q265 -5 249 -5 Q244 -5 201 3 Q179 7 159 7 Q141 7 109.5 1 Q78 -5 64 -5 Q48 -5 37 6.5 Q26 18 26 35 Q26 68 58 68 Q68 68 73 66 Q89 64 91 64 Z M480 511 L581 105 L676 550 Q680 570 680 580 Q680 602 662 602 Q660 602 657 602 Q653 601 652 601 Q640 598 633 598 Q605 598 605 633 Q605 671 641 671 Q654 671 682 665 Q706 660 726 660 Q741 660 768 665.5 Q795 671 807 671 Q841 671 841 634 Q841 600 812 600 Q807 600 798.5 601.5 Q790 603 785 603 Q765 603 746 526 L728 453 L625 27 Q616 -9 579 -9 Q555 -9 546 1 Q538 8 531 35 L403 515 Q381 600 356 600 Q355 600 353 600 Q350 599 349 599 Q343 598 336 597 Q324 597 315.5 608.5 Q307 620 307 635 Q307 671 343 671 Q357 671 384 665.5 Q411 660 425 660 Q448 660 464 665 Q496 671 507 671 Q541 671 541 635 Q541 620 531 609.5 Q521 599 507 599 Q503 599 494.5 600.5 Q486 602 482 602 Q464 602 464 582 Q464 573 472 542 L480 511 Z " />
<glyph glyph-name="Fiveroman" unicode="&#x2164;" horiz-adv-x="523" d="M167 511 L268 105 L363 550 Q367 570 367 580 Q367 602 349 602 Q347 602 344 602 Q340 601 339 601 Q327 598 320 598 Q292 598 292 633 Q292 671 328 671 Q341 671 369 665 Q393 660 413 660 Q428 660 455 665.5 Q482 671 494 671 Q528 671 528 634 Q528 600 499 600 Q494 600 485.5 601.5 Q477 603 472 603 Q452 603 433 526 L415 453 L312 27 Q303 -9 266 -9 Q242 -9 233 1 Q225 8 218 35 L90 515 Q68 600 43 600 Q42 600 40 600 Q37 599 36 599 Q30 598 23 597 Q11 597 2.5 608.5 Q-6 620 -6 635 Q-6 671 30 671 Q44 671 71 665.5 Q98 660 112 660 Q135 660 151 665 Q183 671 194 671 Q228 671 228 635 Q228 620 218 609.5 Q208 599 194 599 Q190 599 181.5 600.5 Q173 602 169 602 Q151 602 151 582 Q151 573 159 542 L167 511 Z " />
<glyph glyph-name="Sixroman" unicode="&#x2165;" horiz-adv-x="836" d="M167 511 L268 105 L363 550 Q367 570 367 580 Q367 602 349 602 Q347 602 344 602 Q340 601 339 601 Q327 598 320 598 Q292 598 292 633 Q292 671 328 671 Q341 671 369 665 Q393 660 413 660 Q428 660 455 665.5 Q482 671 494 671 Q528 671 528 634 Q528 600 499 600 Q494 600 485.5 601.5 Q477 603 472 603 Q452 603 433 526 L415 453 L312 27 Q303 -9 266 -9 Q242 -9 233 1 Q225 8 218 35 L90 515 Q68 600 43 600 Q42 600 40 600 Q37 599 36 599 Q30 598 23 597 Q11 597 2.5 608.5 Q-6 620 -6 635 Q-6 671 30 671 Q44 671 71 665.5 Q98 660 112 660 Q135 660 151 665 Q183 671 194 671 Q228 671 228 635 Q228 620 218 609.5 Q208 599 194 599 Q190 599 181.5 600.5 Q173 602 169 602 Q151 602 151 582 Q151 573 159 542 L167 511 Z M614 64 Q633 64 638 93.5 Q643 123 643 238 L643 428 Q643 544 638 573.5 Q633 603 614 603 Q609 603 598 600.5 Q587 598 581 598 Q549 598 549 632 Q549 671 587 671 Q602 671 632 665.5 Q662 660 677 660 Q693 660 724 665.5 Q755 671 771 671 Q810 671 810 632 Q810 598 777 598 Q774 598 763 600.5 Q752 603 744 603 Q725 603 720.5 573.5 Q716 544 716 428 L716 238 Q716 123 720.5 93.5 Q725 64 744 64 Q748 64 762 66 Q768 68 777 68 Q791 68 800.5 58.5 Q810 49 810 35 Q810 18 799 6.5 Q788 -5 772 -5 Q767 -5 724 3 Q702 7 682 7 Q664 7 632.5 1 Q601 -5 587 -5 Q571 -5 560 6.5 Q549 18 549 35 Q549 68 581 68 Q591 68 596 66 Q612 64 614 64 Z " />
<glyph glyph-name="Sevenroman" unicode="&#x2166;" horiz-adv-x="1149" d="M167 511 L268 105 L363 550 Q367 570 367 580 Q367 602 349 602 Q347 602 344 602 Q340 601 339 601 Q327 598 320 598 Q292 598 292 633 Q292 671 328 671 Q341 671 369 665 Q393 660 413 660 Q428 660 455 665.5 Q482 671 494 671 Q528 671 528 634 Q528 600 499 600 Q494 600 485.5 601.5 Q477 603 472 603 Q452 603 433 526 L415 453 L312 27 Q303 -9 266 -9 Q242 -9 233 1 Q225 8 218 35 L90 515 Q68 600 43 600 Q42 600 40 600 Q37 599 36 599 Q30 598 23 597 Q11 597 2.5 608.5 Q-6 620 -6 635 Q-6 671 30 671 Q44 671 71 665.5 Q98 660 112 660 Q135 660 151 665 Q183 671 194 671 Q228 671 228 635 Q228 620 218 609.5 Q208 599 194 599 Q190 599 181.5 600.5 Q173 602 169 602 Q151 602 151 582 Q151 573 159 542 L167 511 Z M614 64 Q633 64 638 93.5 Q643 123 643 238 L643 428 Q643 544 638 573.5 Q633 603 614 603 Q609 603 598 600.5 Q587 598 581 598 Q549 598 549 632 Q549 671 587 671 Q602 671 632 665.5 Q662 660 677 660 Q693 660 724 665.5 Q755 671 771 671 Q810 671 810 632 Q810 598 777 598 Q774 598 763 600.5 Q752 603 744 603 Q725 603 720.5 573.5 Q716 544 716 428 L716 238 Q716 123 720.5 93.5 Q725 64 744 64 Q748 64 762 66 Q768 68 777 68 Q791 68 800.5 58.5 Q810 49 810 35 Q810 18 799 6.5 Q788 -5 772 -5 Q767 -5 724 3 Q702 7 682 7 Q664 7 632.5 1 Q601 -5 587 -5 Q571 -5 560 6.5 Q549 18 549 35 Q549 68 581 68 Q591 68 596 66 Q612 64 614 64 Z M927 64 Q946 64 951 93.5 Q956 123 956 238 L956 428 Q956 544 951 573.5 Q946 603 927 603 Q922 603 911 600.5 Q900 598 894 598 Q862 598 862 632 Q862 671 900 671 Q915 671 945 665.5 Q975 660 990 660 Q1006 660 1037 665.5 Q1068 671 1084 671 Q1123 671 1123 632 Q1123 598 1090 598 Q1087 598 1076 600.5 Q1065 603 1057 603 Q1038 603 1033.5 573.5 Q1029 544 1029 428 L1029 238 Q1029 123 1033.5 93.5 Q1038 64 1057 64 Q1061 64 1075 66 Q1081 68 1090 68 Q1104 68 1113.5 58.5 Q1123 49 1123 35 Q1123 18 1112 6.5 Q1101 -5 1085 -5 Q1080 -5 1037 3 Q1015 7 995 7 Q977 7 945.5 1 Q914 -5 900 -5 Q884 -5 873 6.5 Q862 18 862 35 Q862 68 894 68 Q904 68 909 66 Q925 64 927 64 Z " />
<glyph glyph-name="Eightroman" unicode="&#x2167;" horiz-adv-x="1462" d="M167 511 L268 105 L363 550 Q367 570 367 580 Q367 602 349 602 Q347 602 344 602 Q340 601 339 601 Q327 598 320 598 Q292 598 292 633 Q292 671 328 671 Q341 671 369 665 Q393 660 413 660 Q428 660 455 665.5 Q482 671 494 671 Q528 671 528 634 Q528 600 499 600 Q494 600 485.5 601.5 Q477 603 472 603 Q452 603 433 526 L415 453 L312 27 Q303 -9 266 -9 Q242 -9 233 1 Q225 8 218 35 L90 515 Q68 600 43 600 Q42 600 40 600 Q37 599 36 599 Q30 598 23 597 Q11 597 2.5 608.5 Q-6 620 -6 635 Q-6 671 30 671 Q44 671 71 665.5 Q98 660 112 660 Q135 660 151 665 Q183 671 194 671 Q228 671 228 635 Q228 620 218 609.5 Q208 599 194 599 Q190 599 181.5 600.5 Q173 602 169 602 Q151 602 151 582 Q151 573 159 542 L167 511 Z M614 64 Q633 64 638 93.5 Q643 123 643 238 L643 428 Q643 544 638 573.5 Q633 603 614 603 Q609 603 598 600.5 Q587 598 581 598 Q549 598 549 632 Q549 671 587 671 Q602 671 632 665.5 Q662 660 677 660 Q693 660 724 665.5 Q755 671 771 671 Q810 671 810 632 Q810 598 777 598 Q774 598 763 600.5 Q752 603 744 603 Q725 603 720.5 573.5 Q716 544 716 428 L716 238 Q716 123 720.5 93.5 Q725 64 744 64 Q748 64 762 66 Q768 68 777 68 Q791 68 800.5 58.5 Q810 49 810 35 Q810 18 799 6.5 Q788 -5 772 -5 Q767 -5 724 3 Q702 7 682 7 Q664 7 632.5 1 Q601 -5 587 -5 Q571 -5 560 6.5 Q549 18 549 35 Q549 68 581 68 Q591 68 596 66 Q612 64 614 64 Z M927 64 Q946 64 951 93.5 Q956 123 956 238 L956 428 Q956 544 951 573.5 Q946 603 927 603 Q922 603 911 600.5 Q900 598 894 598 Q862 598 862 632 Q862 671 900 671 Q915 671 945 665.5 Q975 660 990 660 Q1006 660 1037 665.5 Q1068 671 1084 671 Q1123 671 1123 632 Q1123 598 1090 598 Q1087 598 1076 600.5 Q1065 603 1057 603 Q1038 603 1033.5 573.5 Q1029 544 1029 428 L1029 238 Q1029 123 1033.5 93.5 Q1038 64 1057 64 Q1061 64 1075 66 Q1081 68 1090 68 Q1104 68 1113.5 58.5 Q1123 49 1123 35 Q1123 18 1112 6.5 Q1101 -5 1085 -5 Q1080 -5 1037 3 Q1015 7 995 7 Q977 7 945.5 1 Q914 -5 900 -5 Q884 -5 873 6.5 Q862 18 862 35 Q862 68 894 68 Q904 68 909 66 Q925 64 927 64 Z M1240 64 Q1259 64 1264 93.5 Q1269 123 1269 238 L1269 428 Q1269 544 1264 573.5 Q1259 603 1240 603 Q1235 603 1224 600.5 Q1213 598 1207 598 Q1175 598 1175 632 Q1175 671 1213 671 Q1228 671 1258 665.5 Q1288 660 1303 660 Q1319 660 1350 665.5 Q1381 671 1397 671 Q1436 671 1436 632 Q1436 598 1403 598 Q1400 598 1389 600.5 Q1378 603 1370 603 Q1351 603 1346.5 573.5 Q1342 544 1342 428 L1342 238 Q1342 123 1346.5 93.5 Q1351 64 1370 64 Q1374 64 1388 66 Q1394 68 1403 68 Q1417 68 1426.5 58.5 Q1436 49 1436 35 Q1436 18 1425 6.5 Q1414 -5 1398 -5 Q1393 -5 1350 3 Q1328 7 1308 7 Q1290 7 1258.5 1 Q1227 -5 1213 -5 Q1197 -5 1186 6.5 Q1175 18 1175 35 Q1175 68 1207 68 Q1217 68 1222 66 Q1238 64 1240 64 Z " />
<glyph glyph-name="Nineroman" unicode="&#x2168;" horiz-adv-x="911" d="M91 64 Q110 64 115 93.5 Q120 123 120 238 L120 428 Q120 544 115 573.5 Q110 603 91 603 Q86 603 75 600.5 Q64 598 58 598 Q26 598 26 632 Q26 671 64 671 Q79 671 109 665.5 Q139 660 154 660 Q170 660 201 665.5 Q232 671 248 671 Q287 671 287 632 Q287 598 254 598 Q251 598 240 600.5 Q229 603 221 603 Q202 603 197.5 573.5 Q193 544 193 428 L193 238 Q193 123 197.5 93.5 Q202 64 221 64 Q225 64 239 66 Q245 68 254 68 Q268 68 277.5 58.5 Q287 49 287 35 Q287 18 276 6.5 Q265 -5 249 -5 Q244 -5 201 3 Q179 7 159 7 Q141 7 109.5 1 Q78 -5 64 -5 Q48 -5 37 6.5 Q26 18 26 35 Q26 68 58 68 Q68 68 73 66 Q89 64 91 64 Z M475 183 L576 347 L488 494 Q424 601 401 601 L391 601 Q383 599 375 599 Q344 599 344 634 Q344 671 381 671 Q401 671 420 667 Q452 660 473 660 Q487 660 508 664 Q536 669 542 670 Q552 671 561 671 Q595 671 595 635 Q595 598 564 598 Q559 598 548 600 Q537 602 532 602 Q516 602 516 589 Q516 584 525 568 L542 537 L614 412 L688 537 Q714 581 714 589 Q714 601 697 601 Q692 601 683.5 599.5 Q675 598 670 598 Q658 598 649 609 Q640 620 640 634 Q640 649 650.5 660 Q661 671 676 671 Q690 671 718 665.5 Q746 660 761 660 Q777 660 807.5 665.5 Q838 671 853 671 Q889 671 889 634 Q889 599 857 599 Q853 599 844 600 Q835 601 831 601 Q815 601 800 583.5 Q785 566 745 501 L650 347 L779 138 L806 99 Q830 64 847 64 Q852 64 863 66 Q874 68 879 68 Q909 68 909 35 Q909 -5 872 -5 Q863 -5 840 -1 Q794 7 770 7 Q755 7 727 1 Q699 -5 685 -5 Q670 -5 659 6.5 Q648 18 648 34 Q648 69 683 69 Q688 69 698.5 67 Q709 65 714 65 Q728 65 728 80 Q728 86 716 108 L702 134 L614 283 L522 134 L505 103 Q496 87 496 80 Q496 65 514 65 Q524 65 530.5 66.5 Q537 68 546 68 Q578 68 578 33 Q578 17 568 6 Q558 -5 544 -5 Q533 -5 512 -1 Q487 5 480 6 Q468 7 457 7 Q430 7 403 2 Q365 -5 355 -5 Q315 -5 315 33 Q315 69 347 69 Q353 69 363 67 Q373 65 378 65 Q396 65 413 93 Q414 95 443 135 Q460 159 475 183 Z " />
<glyph glyph-name="Tenroman" unicode="&#x2169;" horiz-adv-x="598" d="M162 183 L263 347 L175 494 Q111 601 88 601 L78 601 Q70 599 62 599 Q31 599 31 634 Q31 671 68 671 Q88 671 107 667 Q139 660 160 660 Q174 660 195 664 Q223 669 229 670 Q239 671 248 671 Q282 671 282 635 Q282 598 251 598 Q246 598 235 600 Q224 602 219 602 Q203 602 203 589 Q203 584 212 568 L229 537 L301 412 L375 537 Q401 581 401 589 Q401 601 384 601 Q379 601 370.5 599.5 Q362 598 357 598 Q345 598 336 609 Q327 620 327 634 Q327 649 337.5 660 Q348 671 363 671 Q377 671 405 665.5 Q433 660 448 660 Q464 660 494.5 665.5 Q525 671 540 671 Q576 671 576 634 Q576 599 544 599 Q540 599 531 600 Q522 601 518 601 Q502 601 487 583.5 Q472 566 432 501 L337 347 L466 138 L493 99 Q517 64 534 64 Q539 64 550 66 Q561 68 566 68 Q596 68 596 35 Q596 -5 559 -5 Q550 -5 527 -1 Q481 7 457 7 Q442 7 414 1 Q386 -5 372 -5 Q357 -5 346 6.5 Q335 18 335 34 Q335 69 370 69 Q375 69 385.5 67 Q396 65 401 65 Q415 65 415 80 Q415 86 403 108 L389 134 L301 283 L209 134 L192 103 Q183 87 183 80 Q183 65 201 65 Q211 65 217.5 66.5 Q224 68 233 68 Q265 68 265 33 Q265 17 255 6 Q245 -5 231 -5 Q220 -5 199 -1 Q174 5 167 6 Q155 7 144 7 Q117 7 90 2 Q52 -5 42 -5 Q2 -5 2 33 Q2 69 34 69 Q40 69 50 67 Q60 65 65 65 Q83 65 100 93 Q101 95 130 135 Q147 159 162 183 Z " />
<glyph glyph-name="Elevenroman" unicode="&#x216a;" horiz-adv-x="911" d="M162 183 L263 347 L175 494 Q111 601 88 601 L78 601 Q70 599 62 599 Q31 599 31 634 Q31 671 68 671 Q88 671 107 667 Q139 660 160 660 Q174 660 195 664 Q223 669 229 670 Q239 671 248 671 Q282 671 282 635 Q282 598 251 598 Q246 598 235 600 Q224 602 219 602 Q203 602 203 589 Q203 584 212 568 L229 537 L301 412 L375 537 Q401 581 401 589 Q401 601 384 601 Q379 601 370.5 599.5 Q362 598 357 598 Q345 598 336 609 Q327 620 327 634 Q327 649 337.5 660 Q348 671 363 671 Q377 671 405 665.5 Q433 660 448 660 Q464 660 494.5 665.5 Q525 671 540 671 Q576 671 576 634 Q576 599 544 599 Q540 599 531 600 Q522 601 518 601 Q502 601 487 583.5 Q472 566 432 501 L337 347 L466 138 L493 99 Q517 64 534 64 Q539 64 550 66 Q561 68 566 68 Q596 68 596 35 Q596 -5 559 -5 Q550 -5 527 -1 Q481 7 457 7 Q442 7 414 1 Q386 -5 372 -5 Q357 -5 346 6.5 Q335 18 335 34 Q335 69 370 69 Q375 69 385.5 67 Q396 65 401 65 Q415 65 415 80 Q415 86 403 108 L389 134 L301 283 L209 134 L192 103 Q183 87 183 80 Q183 65 201 65 Q211 65 217.5 66.5 Q224 68 233 68 Q265 68 265 33 Q265 17 255 6 Q245 -5 231 -5 Q220 -5 199 -1 Q174 5 167 6 Q155 7 144 7 Q117 7 90 2 Q52 -5 42 -5 Q2 -5 2 33 Q2 69 34 69 Q40 69 50 67 Q60 65 65 65 Q83 65 100 93 Q101 95 130 135 Q147 159 162 183 Z M689 64 Q708 64 713 93.5 Q718 123 718 238 L718 428 Q718 544 713 573.5 Q708 603 689 603 Q684 603 673 600.5 Q662 598 656 598 Q624 598 624 632 Q624 671 662 671 Q677 671 707 665.5 Q737 660 752 660 Q768 660 799 665.5 Q830 671 846 671 Q885 671 885 632 Q885 598 852 598 Q849 598 838 600.5 Q827 603 819 603 Q800 603 795.5 573.5 Q791 544 791 428 L791 238 Q791 123 795.5 93.5 Q800 64 819 64 Q823 64 837 66 Q843 68 852 68 Q866 68 875.5 58.5 Q885 49 885 35 Q885 18 874 6.5 Q863 -5 847 -5 Q842 -5 799 3 Q777 7 757 7 Q739 7 707.5 1 Q676 -5 662 -5 Q646 -5 635 6.5 Q624 18 624 35 Q624 68 656 68 Q666 68 671 66 Q687 64 689 64 Z " />
<glyph glyph-name="Twelveroman" unicode="&#x216b;" horiz-adv-x="1224" d="M162 183 L263 347 L175 494 Q111 601 88 601 L78 601 Q70 599 62 599 Q31 599 31 634 Q31 671 68 671 Q88 671 107 667 Q139 660 160 660 Q174 660 195 664 Q223 669 229 670 Q239 671 248 671 Q282 671 282 635 Q282 598 251 598 Q246 598 235 600 Q224 602 219 602 Q203 602 203 589 Q203 584 212 568 L229 537 L301 412 L375 537 Q401 581 401 589 Q401 601 384 601 Q379 601 370.5 599.5 Q362 598 357 598 Q345 598 336 609 Q327 620 327 634 Q327 649 337.5 660 Q348 671 363 671 Q377 671 405 665.5 Q433 660 448 660 Q464 660 494.5 665.5 Q525 671 540 671 Q576 671 576 634 Q576 599 544 599 Q540 599 531 600 Q522 601 518 601 Q502 601 487 583.5 Q472 566 432 501 L337 347 L466 138 L493 99 Q517 64 534 64 Q539 64 550 66 Q561 68 566 68 Q596 68 596 35 Q596 -5 559 -5 Q550 -5 527 -1 Q481 7 457 7 Q442 7 414 1 Q386 -5 372 -5 Q357 -5 346 6.5 Q335 18 335 34 Q335 69 370 69 Q375 69 385.5 67 Q396 65 401 65 Q415 65 415 80 Q415 86 403 108 L389 134 L301 283 L209 134 L192 103 Q183 87 183 80 Q183 65 201 65 Q211 65 217.5 66.5 Q224 68 233 68 Q265 68 265 33 Q265 17 255 6 Q245 -5 231 -5 Q220 -5 199 -1 Q174 5 167 6 Q155 7 144 7 Q117 7 90 2 Q52 -5 42 -5 Q2 -5 2 33 Q2 69 34 69 Q40 69 50 67 Q60 65 65 65 Q83 65 100 93 Q101 95 130 135 Q147 159 162 183 Z M689 64 Q708 64 713 93.5 Q718 123 718 238 L718 428 Q718 544 713 573.5 Q708 603 689 603 Q684 603 673 600.5 Q662 598 656 598 Q624 598 624 632 Q624 671 662 671 Q677 671 707 665.5 Q737 660 752 660 Q768 660 799 665.5 Q830 671 846 671 Q885 671 885 632 Q885 598 852 598 Q849 598 838 600.5 Q827 603 819 603 Q800 603 795.5 573.5 Q791 544 791 428 L791 238 Q791 123 795.5 93.5 Q800 64 819 64 Q823 64 837 66 Q843 68 852 68 Q866 68 875.5 58.5 Q885 49 885 35 Q885 18 874 6.5 Q863 -5 847 -5 Q842 -5 799 3 Q777 7 757 7 Q739 7 707.5 1 Q676 -5 662 -5 Q646 -5 635 6.5 Q624 18 624 35 Q624 68 656 68 Q666 68 671 66 Q687 64 689 64 Z M1002 64 Q1021 64 1026 93.5 Q1031 123 1031 238 L1031 428 Q1031 544 1026 573.5 Q1021 603 1002 603 Q997 603 986 600.5 Q975 598 969 598 Q937 598 937 632 Q937 671 975 671 Q990 671 1020 665.5 Q1050 660 1065 660 Q1081 660 1112 665.5 Q1143 671 1159 671 Q1198 671 1198 632 Q1198 598 1165 598 Q1162 598 1151 600.5 Q1140 603 1132 603 Q1113 603 1108.5 573.5 Q1104 544 1104 428 L1104 238 Q1104 123 1108.5 93.5 Q1113 64 1132 64 Q1136 64 1150 66 Q1156 68 1165 68 Q1179 68 1188.5 58.5 Q1198 49 1198 35 Q1198 18 1187 6.5 Q1176 -5 1160 -5 Q1155 -5 1112 3 Q1090 7 1070 7 Q1052 7 1020.5 1 Q989 -5 975 -5 Q959 -5 948 6.5 Q937 18 937 35 Q937 68 969 68 Q979 68 984 66 Q1000 64 1002 64 Z " />
<glyph glyph-name="uni216C" unicode="&#x216c;" horiz-adv-x="502" d="M190 428 L191 162 Q192 91 199.5 76.5 Q207 62 243 62 L306 62 Q371 62 390 77 Q409 92 409 142 L409 146 Q409 169 408 190 Q408 203 407 217 Q406 231 406 232 Q406 279 441 279 Q475 279 475 238 Q475 228 473 203 Q468 142 468 123 Q468 99 470 76 Q473 41 473 39 Q473 -3 430 -3 Q417 -3 389 0 Q378 1 322 4 Q262 7 245 7 Q163 7 123 1 Q83 -5 64 -5 Q26 -5 26 35 Q26 68 58 68 Q68 68 73 66 Q89 64 91 64 Q110 64 115 93.5 Q120 123 120 238 L120 428 Q120 544 115 573.5 Q110 603 91 603 Q86 603 75 600.5 Q64 598 58 598 Q26 598 26 632 Q26 671 64 671 Q78 671 108 665.5 Q138 660 155 660 Q171 660 201 665.5 Q231 671 246 671 Q262 671 273 659.5 Q284 648 284 632 Q284 598 251 598 Q248 598 237 600.5 Q226 603 218 603 Q199 603 194.5 573.5 Q190 544 190 428 Z " />
<glyph glyph-name="uni216D" unicode="&#x216d;" horiz-adv-x="514" d="M265 679 Q346 679 391 614 L391 624 Q391 657 397.5 668.5 Q404 680 421 680 Q451 680 451 642 Q451 623 447.5 584.5 Q444 546 444 526 Q444 503 447 468 Q450 433 450 416 Q450 373 416 373 Q384 373 384 412 Q384 420 385 435 Q386 450 386 458 Q386 527 354 568 Q322 609 269 609 Q198 609 156.5 535.5 Q115 462 115 337 Q115 213 158 136.5 Q201 60 272 60 Q327 60 361.5 100 Q396 140 402 210 Q405 245 413 256.5 Q421 268 442 268 Q474 268 474 230 Q474 127 414.5 57.5 Q355 -12 267 -12 Q163 -12 101.5 82 Q40 176 40 337 Q40 490 102 584.5 Q164 679 265 679 Z " />
<glyph glyph-name="uni216E" unicode="&#x216e;" horiz-adv-x="570" d="M91 64 Q110 64 115 93.5 Q120 123 120 238 L120 428 Q120 544 115 573.5 Q110 603 91 603 Q86 603 75 600.5 Q64 598 58 598 Q26 598 26 632 Q26 671 64 671 Q82 671 121 664 Q143 660 167 660 Q184 660 241 665 Q264 667 290 667 Q530 667 530 332 Q530 -3 282 -3 Q261 -3 225 1 Q171 7 153 7 Q137 7 110 2 Q72 -5 63 -5 Q47 -5 36.5 6.5 Q26 18 26 35 Q26 68 58 68 Q68 68 73 66 Q89 64 91 64 Z M192 117 Q193 79 221 69 Q236 63 283 63 Q365 63 405 124 Q458 205 458 338 Q458 445 425.5 511.5 Q393 578 335 592 Q301 600 264 600 Q213 600 200 580 Q191 567 191 515 L191 509 L192 117 Z " />
<glyph glyph-name="uni216F" unicode="&#x216f;" horiz-adv-x="712" d="M244 612 L357 108 L469 624 Q479 668 501 668 Q500 668 537 662 Q548 660 561 660 Q576 660 604.5 665.5 Q633 671 648 671 Q665 671 676 660 Q687 649 687 632 Q687 618 677.5 608 Q668 598 654 598 Q648 598 639 600 Q626 603 621 603 Q597 603 592 527 Q592 528 592 428 L592 238 Q592 139 592 139 Q597 64 621 64 Q623 64 639 66 Q644 68 654 68 Q668 68 677.5 58.5 Q687 49 687 35 Q687 18 676 6.5 Q665 -5 648 -5 Q632 -5 601.5 1 Q571 7 555 7 Q540 7 513.5 1 Q487 -5 473 -5 Q460 -5 450.5 6 Q441 17 441 32 Q441 66 476 66 L489 66 Q491 65 497 65 Q522 65 524 110 L526 152 L528 237 L528 612 L398 14 Q392 -13 358 -13 Q322 -13 316 14 L184 603 L184 245 Q184 126 189 95.5 Q194 65 213 65 Q218 65 228 66.5 Q238 68 243 68 Q276 68 276 33 Q276 -5 242 -5 Q231 -5 206 1 Q181 7 158 7 Q142 7 111 1 Q80 -5 64 -5 Q26 -5 26 35 Q26 68 58 68 Q68 68 73 66 Q89 64 91 64 Q110 64 115 93.5 Q120 123 120 238 L120 422 Q120 537 115 566.5 Q110 596 91 596 Q89 596 73 594 Q68 592 58 592 Q26 592 26 625 Q26 642 37 653.5 Q48 665 64 665 Q71 665 96 662 Q105 660 131 660 Q145 660 171 663 Q197 666 209 666 Q227 666 235 647 Q237 641 244 612 Z " />
<glyph glyph-name="oneroman" unicode="&#x2170;" horiz-adv-x="248" d="M166 316 L166 252 L167 199 L167 156 Q167 91 170.5 76.5 Q174 62 190 62 L199 62 Q203 63 210 63 Q237 63 237 29 Q237 -5 205 -5 Q192 -5 166 -1 Q140 3 127 3 Q114 3 91.5 -1 Q69 -5 59 -5 Q27 -5 27 29 Q27 63 55 63 Q61 63 66 62 L75 62 Q91 62 94.5 76.5 Q98 91 98 156 L98 271 Q98 277 97 300.5 Q96 324 96 343 Q95 398 95 395 Q95 429 71 429 L65 429 Q64 429 60 429 Q57 428 55 428 Q26 428 26 460 Q26 474 35.5 485 Q45 496 58 496 Q61 496 81 491 Q93 488 102 488 Q111 488 128 491.5 Q145 495 153 495 Q169 495 169 471 L169 459 Q169 457 169 445 Q168 431 168 419 L166 316 Z M125 535 Q105 535 91.5 552 Q78 569 78 595 Q78 618 93 636.5 Q108 655 127 655 Q147 655 161.5 637.5 Q176 620 176 596 Q176 571 161 553 Q146 535 125 535 Z " />
<glyph glyph-name="tworoman" unicode="&#x2171;" horiz-adv-x="496" d="M166 316 L166 252 L167 199 L167 156 Q167 91 170.5 76.5 Q174 62 190 62 L199 62 Q203 63 210 63 Q237 63 237 29 Q237 -5 205 -5 Q192 -5 166 -1 Q140 3 127 3 Q114 3 91.5 -1 Q69 -5 59 -5 Q27 -5 27 29 Q27 63 55 63 Q61 63 66 62 L75 62 Q91 62 94.5 76.5 Q98 91 98 156 L98 271 Q98 277 97 300.5 Q96 324 96 343 Q95 398 95 395 Q95 429 71 429 L65 429 Q64 429 60 429 Q57 428 55 428 Q26 428 26 460 Q26 474 35.5 485 Q45 496 58 496 Q61 496 81 491 Q93 488 102 488 Q111 488 128 491.5 Q145 495 153 495 Q169 495 169 471 L169 459 Q169 457 169 445 Q168 431 168 419 L166 316 Z M125 535 Q105 535 91.5 552 Q78 569 78 595 Q78 618 93 636.5 Q108 655 127 655 Q147 655 161.5 637.5 Q176 620 176 596 Q176 571 161 553 Q146 535 125 535 Z M414 316 L414 252 L415 199 L415 156 Q415 91 418.5 76.5 Q422 62 438 62 L447 62 Q451 63 458 63 Q485 63 485 29 Q485 -5 453 -5 Q440 -5 414 -1 Q388 3 375 3 Q362 3 339.5 -1 Q317 -5 307 -5 Q275 -5 275 29 Q275 63 303 63 Q309 63 314 62 L323 62 Q339 62 342.5 76.5 Q346 91 346 156 L346 271 Q346 277 345 300.5 Q344 324 344 343 Q343 398 343 395 Q343 429 319 429 L313 429 Q312 429 308 429 Q305 428 303 428 Q274 428 274 460 Q274 474 283.5 485 Q293 496 306 496 Q309 496 329 491 Q341 488 350 488 Q359 488 376 491.5 Q393 495 401 495 Q417 495 417 471 L417 459 Q417 457 417 445 Q416 431 416 419 L414 316 Z M373 535 Q353 535 339.5 552 Q326 569 326 595 Q326 618 341 636.5 Q356 655 375 655 Q395 655 409.5 637.5 Q424 620 424 596 Q424 571 409 553 Q394 535 373 535 Z " />
<glyph glyph-name="threeroman" unicode="&#x2172;" horiz-adv-x="744" d="M166 316 L166 252 L167 199 L167 156 Q167 91 170.5 76.5 Q174 62 190 62 L199 62 Q203 63 210 63 Q237 63 237 29 Q237 -5 205 -5 Q192 -5 166 -1 Q140 3 127 3 Q114 3 91.5 -1 Q69 -5 59 -5 Q27 -5 27 29 Q27 63 55 63 Q61 63 66 62 L75 62 Q91 62 94.5 76.5 Q98 91 98 156 L98 271 Q98 277 97 300.5 Q96 324 96 343 Q95 398 95 395 Q95 429 71 429 L65 429 Q64 429 60 429 Q57 428 55 428 Q26 428 26 460 Q26 474 35.5 485 Q45 496 58 496 Q61 496 81 491 Q93 488 102 488 Q111 488 128 491.5 Q145 495 153 495 Q169 495 169 471 L169 459 Q169 457 169 445 Q168 431 168 419 L166 316 Z M125 535 Q105 535 91.5 552 Q78 569 78 595 Q78 618 93 636.5 Q108 655 127 655 Q147 655 161.5 637.5 Q176 620 176 596 Q176 571 161 553 Q146 535 125 535 Z M414 316 L414 252 L415 199 L415 156 Q415 91 418.5 76.5 Q422 62 438 62 L447 62 Q451 63 458 63 Q485 63 485 29 Q485 -5 453 -5 Q440 -5 414 -1 Q388 3 375 3 Q362 3 339.5 -1 Q317 -5 307 -5 Q275 -5 275 29 Q275 63 303 63 Q309 63 314 62 L323 62 Q339 62 342.5 76.5 Q346 91 346 156 L346 271 Q346 277 345 300.5 Q344 324 344 343 Q343 398 343 395 Q343 429 319 429 L313 429 Q312 429 308 429 Q305 428 303 428 Q274 428 274 460 Q274 474 283.5 485 Q293 496 306 496 Q309 496 329 491 Q341 488 350 488 Q359 488 376 491.5 Q393 495 401 495 Q417 495 417 471 L417 459 Q417 457 417 445 Q416 431 416 419 L414 316 Z M373 535 Q353 535 339.5 552 Q326 569 326 595 Q326 618 341 636.5 Q356 655 375 655 Q395 655 409.5 637.5 Q424 620 424 596 Q424 571 409 553 Q394 535 373 535 Z M662 316 L662 252 L663 199 L663 156 Q663 91 666.5 76.5 Q670 62 686 62 L695 62 Q699 63 706 63 Q733 63 733 29 Q733 -5 701 -5 Q688 -5 662 -1 Q636 3 623 3 Q610 3 587.5 -1 Q565 -5 555 -5 Q523 -5 523 29 Q523 63 551 63 Q557 63 562 62 L571 62 Q587 62 590.5 76.5 Q594 91 594 156 L594 271 Q594 277 593 300.5 Q592 324 592 343 Q591 398 591 395 Q591 429 567 429 L561 429 Q560 429 556 429 Q553 428 551 428 Q522 428 522 460 Q522 474 531.5 485 Q541 496 554 496 Q557 496 577 491 Q589 488 598 488 Q607 488 624 491.5 Q641 495 649 495 Q665 495 665 471 L665 459 Q665 457 665 445 Q664 431 664 419 L662 316 Z M621 535 Q601 535 587.5 552 Q574 569 574 595 Q574 618 589 636.5 Q604 655 623 655 Q643 655 657.5 637.5 Q672 620 672 596 Q672 571 657 553 Q642 535 621 535 Z " />
<glyph glyph-name="fourroman" unicode="&#x2173;" horiz-adv-x="711" d="M166 316 L166 252 L167 199 L167 156 Q167 91 170.5 76.5 Q174 62 190 62 L199 62 Q203 63 210 63 Q237 63 237 29 Q237 -5 205 -5 Q192 -5 166 -1 Q140 3 127 3 Q114 3 91.5 -1 Q69 -5 59 -5 Q27 -5 27 29 Q27 63 55 63 Q61 63 66 62 L75 62 Q91 62 94.5 76.5 Q98 91 98 156 L98 271 Q98 277 97 300.5 Q96 324 96 343 Q95 398 95 395 Q95 429 71 429 L65 429 Q64 429 60 429 Q57 428 55 428 Q26 428 26 460 Q26 474 35.5 485 Q45 496 58 496 Q61 496 81 491 Q93 488 102 488 Q111 488 128 491.5 Q145 495 153 495 Q169 495 169 471 L169 459 Q169 457 169 445 Q168 431 168 419 L166 316 Z M125 535 Q105 535 91.5 552 Q78 569 78 595 Q78 618 93 636.5 Q108 655 127 655 Q147 655 161.5 637.5 Q176 620 176 596 Q176 571 161 553 Q146 535 125 535 Z M400 379 L479 95 L559 379 Q567 407 567 416 Q567 431 549 431 L541 431 Q537 430 530 430 Q500 430 500 461 Q500 495 531 495 Q541 495 566 490 Q588 488 604 488 Q618 488 645 491.5 Q672 495 685 495 Q715 495 715 461 Q715 429 688 429 Q678 429 674.5 430 Q671 431 668 431 Q651 431 641 409 Q641 408 630 372 L527 41 Q517 9 507.5 -2 Q498 -13 480 -13 Q461 -13 451.5 -2 Q442 9 432 41 L330 372 Q319 406 318 409 Q308 431 291 431 Q289 431 285 430 Q281 429 271 429 Q244 429 244 461 Q244 495 274 495 Q288 495 314.5 491.5 Q341 488 355 488 Q371 488 394.5 491.5 Q418 495 428 495 Q459 495 459 460 Q459 430 429 430 Q422 430 418 431 L409 431 Q392 431 392 415 Q392 408 400 379 Z " />
<glyph glyph-name="fiveroman" unicode="&#x2174;" horiz-adv-x="463" d="M152 379 L231 95 L311 379 Q319 407 319 416 Q319 431 301 431 L293 431 Q289 430 282 430 Q252 430 252 461 Q252 495 283 495 Q293 495 318 490 Q340 488 356 488 Q370 488 397 491.5 Q424 495 437 495 Q467 495 467 461 Q467 429 440 429 Q430 429 426.5 430 Q423 431 420 431 Q403 431 393 409 Q393 408 382 372 L279 41 Q269 9 259.5 -2 Q250 -13 232 -13 Q213 -13 203.5 -2 Q194 9 184 41 L82 372 Q71 406 70 409 Q60 431 43 431 Q41 431 37 430 Q33 429 23 429 Q-4 429 -4 461 Q-4 495 26 495 Q40 495 66.5 491.5 Q93 488 107 488 Q123 488 146.5 491.5 Q170 495 180 495 Q211 495 211 460 Q211 430 181 430 Q174 430 170 431 L161 431 Q144 431 144 415 Q144 408 152 379 Z " />
<glyph glyph-name="sixroman" unicode="&#x2175;" horiz-adv-x="711" d="M152 379 L231 95 L311 379 Q319 407 319 416 Q319 431 301 431 L293 431 Q289 430 282 430 Q252 430 252 461 Q252 495 283 495 Q293 495 318 490 Q340 488 356 488 Q370 488 397 491.5 Q424 495 437 495 Q467 495 467 461 Q467 429 440 429 Q430 429 426.5 430 Q423 431 420 431 Q403 431 393 409 Q393 408 382 372 L279 41 Q269 9 259.5 -2 Q250 -13 232 -13 Q213 -13 203.5 -2 Q194 9 184 41 L82 372 Q71 406 70 409 Q60 431 43 431 Q41 431 37 430 Q33 429 23 429 Q-4 429 -4 461 Q-4 495 26 495 Q40 495 66.5 491.5 Q93 488 107 488 Q123 488 146.5 491.5 Q170 495 180 495 Q211 495 211 460 Q211 430 181 430 Q174 430 170 431 L161 431 Q144 431 144 415 Q144 408 152 379 Z M629 316 L629 252 L630 199 L630 156 Q630 91 633.5 76.5 Q637 62 653 62 L662 62 Q666 63 673 63 Q700 63 700 29 Q700 -5 668 -5 Q655 -5 629 -1 Q603 3 590 3 Q577 3 554.5 -1 Q532 -5 522 -5 Q490 -5 490 29 Q490 63 518 63 Q524 63 529 62 L538 62 Q554 62 557.5 76.5 Q561 91 561 156 L561 271 Q561 277 560 300.5 Q559 324 559 343 Q558 398 558 395 Q558 429 534 429 L528 429 Q527 429 523 429 Q520 428 518 428 Q489 428 489 460 Q489 474 498.5 485 Q508 496 521 496 Q524 496 544 491 Q556 488 565 488 Q574 488 591 491.5 Q608 495 616 495 Q632 495 632 471 L632 459 Q632 457 632 445 Q631 431 631 419 L629 316 Z M588 535 Q568 535 554.5 552 Q541 569 541 595 Q541 618 556 636.5 Q571 655 590 655 Q610 655 624.5 637.5 Q639 620 639 596 Q639 571 624 553 Q609 535 588 535 Z " />
</font>
</svg>
